<?xml version="1.0" encoding="UTF-8" standalone="no"?>
<svg width="1430px" height="495px" viewBox="0 0 1430 495" version="1.1" xmlns="http://www.w3.org/2000/svg" xmlns:xlink="http://www.w3.org/1999/xlink" xmlns:sketch="http://www.bohemiancoding.com/sketch/ns">
    <!-- Generator: Sketch 3.3.2 (12043) - http://www.bohemiancoding.com/sketch -->
    <title>hero-image</title>
    <desc>Created with Sketch.</desc>
    <defs></defs>
    <g id="Page-1" stroke="none" stroke-width="1" fill="none" fill-rule="evenodd" sketch:type="MSPage">
        <g id="hero-image" sketch:type="MSLayerGroup" transform="translate(0.000000, -7.000000)">
            <path d="M46.914,289.073 C31.986,287.671 15.558,287.263 0.865,288.898 C2.99,279.494 5.284,269.961 7.451,260.723 C9.639,251.39 11.97,242.146 14.264,232.882 C16.549,223.632 19.247,214.484 21.698,205.204 C24.117,196.044 26.542,186.83 29.178,177.546 C31.753,168.476 34.338,159.303 37.174,150.025 C39.915,141.048 42.421,131.763 45.458,122.509 C53.829,120.882 62.651,120.435 71.372,120.201 C80.143,119.963 88.66,120.186 97.08,120.417 C93.94,129.837 91.213,138.988 88.29,148.16 C85.291,157.575 82.585,166.943 79.755,176.197 C76.883,185.592 74.072,194.923 71.31,204.256 C68.54,213.618 65.409,222.856 62.69,232.262 C59.994,241.586 57.367,250.975 54.657,260.447 C52.004,269.727 49.64,279.551 46.914,289.073" id="Fill-2" fill="#FF1741" sketch:type="MSShapeGroup"></path>
            <path d="M182.974,122.559 C183.295,131.5 183.894,141.814 184.69,152.75 C185.422,162.737 186.471,173.097 187.314,183.045 C188.247,194.023 189.279,204.667 190.005,213.518 C192.209,203.204 194.361,192.532 197.068,182.068 C199.73,171.785 202.44,161.407 205.434,151.099 C208.416,140.827 212.173,130.905 215.333,120.726 C222.362,119.654 231.046,118.804 240.138,118.498 C248.844,118.204 257.909,118.114 265.441,119.028 C262.167,128.191 258.352,137.356 255.222,146.613 C252.098,155.851 249.29,165.207 246.312,174.492 C243.331,183.797 240.623,193.179 237.796,202.489 C234.952,211.86 231.77,221.103 229.09,230.433 C226.381,239.868 223.907,249.315 221.371,258.663 C218.795,268.16 216.533,277.641 214.144,287 C206.109,286.651 196.992,286.807 187.881,287.27 C178.742,287.739 169.844,288.273 161.903,289.326 C161.224,281.584 160.269,272.383 159.2,262.203 C158.278,253.42 157.28,244.092 156.304,234.845 C155.308,225.419 154.092,215.911 153.269,207.312 C150.402,216.438 148.283,225.675 145.793,234.449 C143.207,243.559 140.737,252.499 138.418,261.42 C136.065,270.475 133.285,279.196 131.058,288.258 C115.435,287.791 103.887,287.759 88.727,288.694 C90.675,279.689 91.934,270.762 94.062,261.354 C96.111,252.286 99.072,243.258 101.283,233.953 C103.448,224.837 105.582,215.621 107.896,206.408 C110.192,197.262 112.017,187.956 114.452,178.838 C116.901,169.668 119.758,160.638 122.344,151.624 C124.977,142.439 127.439,133.079 130.207,124.191 C139.917,122.965 148.629,122.556 156.749,122.273 C165.598,121.965 173.854,122.313 182.974,122.559" id="Fill-3" fill="#FF1741" sketch:type="MSShapeGroup"></path>
            <path d="M417.536,119.541 C415.134,127.657 412.832,135.492 410.626,143.443 C408.33,151.71 406.186,159.596 404.519,167.56 C393.559,167.097 381.018,166.744 368.423,167.444 C365.642,177.157 363.198,187.543 360.158,197.813 C357.226,207.714 354.008,217.721 351.025,227.785 C348.034,237.873 345.018,247.938 342.161,257.835 C339.184,268.156 336.231,278.316 333.605,288.042 C319.613,286.874 302.978,287.304 288.986,288.475 C291.488,278.892 293.862,268.699 296.357,258.284 C298.72,248.429 301.702,238.446 304.102,228.232 C306.458,218.193 308.207,207.921 310.64,197.894 C313.114,187.707 315.54,177.891 318.135,168.086 C306.475,167.387 293.257,168.033 281.596,168.496 C282.901,160.661 284.327,152.622 286.361,144.52 C288.324,136.706 291.024,129.189 294.116,121.519 C303.964,120.725 314.146,119.782 324.837,119.27 C334.939,118.789 345.317,118.288 355.8,118.113 C366.088,117.942 376.475,118.166 386.787,118.337 C397.244,118.512 407.41,118.965 417.536,119.541" id="Fill-4" fill="#FF1741" sketch:type="MSShapeGroup"></path>
            <path d="M449.759,124.964 C456.408,122.957 466.883,120.304 478.459,118.612 C488.407,117.16 498.96,115.956 508.013,116.281 C519.21,116.743 535.127,117.105 547.723,123.635 C554.636,127.288 560.625,132.966 564.563,140.98 C567.669,147.298 569.362,155.159 569.259,164.82 C569.259,174.602 567.356,184.849 562.79,194.397 C558.631,203.095 552.016,210.856 543.653,217.777 C536.457,223.732 528.299,229.409 517.716,233.006 C520.037,239.451 522.781,249.316 526.836,260.326 C530.123,269.235 534.017,278.525 537.458,287.392 C528.507,287.274 520.877,287.581 513.118,287.871 C505.313,288.164 497.349,288.874 488.46,289.459 C485.455,282.175 481.962,273.259 478.464,264.673 C474.903,255.942 471.289,247.325 468.82,240.035 C467.658,240.035 465.318,239.909 464.618,239.677 C460.634,249.425 457.234,257.027 454.448,264.025 C451.037,272.596 447.84,279.779 444.247,288.256 C432.585,287.788 413.968,288.557 400.907,289.492 C403.574,280.413 406.853,271 409.478,261.795 C412.074,252.688 413.874,243.302 416.474,234.093 C419.052,224.975 422.212,215.973 424.838,206.775 C427.44,197.662 429.876,188.455 432.574,179.282 C435.246,170.185 437.908,161.04 440.716,151.902 C443.504,142.838 446.795,134.05 449.759,124.964 L449.759,124.964 Z M508.732,195.892 C514.327,190.736 518.536,182.102 519.676,174.431 C520.96,165.793 517.983,158.289 507.732,156.93 C502.135,155.995 494.144,156.748 486.682,160.013 C482.482,174.706 478.178,189.062 473.748,203.754 C487.505,205.389 501.271,202.89 508.732,195.892 L508.732,195.892 Z" id="Fill-5" fill="#FF1741" sketch:type="MSShapeGroup"></path>
            <path d="M749.429,201.975 C747.216,212.131 744.156,221.783 740.182,230.587 C735.926,240.012 730.69,248.731 724.595,256.316 C718.211,264.26 710.461,270.782 702.271,276.368 C694.071,281.958 685.153,286.725 675.361,289.604 C666.11,292.327 656.069,293.228 645.586,293.228 C634.502,293.228 624.977,290.847 616.982,286.536 C608.115,281.749 600.79,274.882 595.878,266.056 C591.337,257.89 588.643,248.106 587.624,237.578 C586.727,228.308 587.172,218.248 589.102,207.916 C591.035,197.612 593.801,188.05 597.434,179.443 C601.479,169.861 607.144,161.713 612.957,154.268 C619.245,146.218 626.364,139.478 634.28,133.976 C642.469,128.285 651.067,123.211 660.501,120.302 C669.831,117.427 679.804,116.908 689.859,116.808 C701.432,116.696 711.633,117.845 720.055,121.658 C729.865,126.1 737.45,133.271 742.786,142.014 C747.806,150.241 750.205,160.245 751.072,171.334 C751.809,180.761 751.812,191.093 749.429,201.975 L749.429,201.975 Z M636.829,211.319 C634.365,220.318 634.89,229.312 637.78,236.633 C641.182,245.25 647.536,250.848 656.977,250.597 C666.429,250.221 676.24,244.982 684.13,236.323 C691.017,228.762 696.006,218.884 698.505,208.561 C700.867,198.696 701.047,189.738 698.117,182.864 C694.677,174.787 687.593,169.637 677.261,169.637 C666.595,169.637 657.69,175.476 650.581,183.734 C644.025,191.349 639.29,201.138 636.829,211.319 L636.829,211.319 Z" id="Fill-6" fill="#FF1741" sketch:type="MSShapeGroup"></path>
            <path d="M809.849,124.835 C821.277,120.636 838.414,116.671 851.938,116.439 C863.481,116.204 874.747,116.987 885.011,119.668 C896.121,122.572 905.769,127.571 913.013,136.427 C919.083,143.849 923.169,153.676 924.939,166.983 C926.13,175.973 926.373,185.292 924.85,194.632 C923.374,203.66 920.822,212.716 917.185,221.323 C913.562,229.89 909.112,238.223 903.705,245.649 C898.141,253.292 891.278,259.738 884.208,265.394 C876.903,271.256 868.976,276.533 860.129,280.215 C851.566,283.773 842.221,285.725 832.745,287.4 C823.575,289.022 814.142,290.076 804.591,290.076 C788.966,290.076 774.79,287.333 763.595,283.832 C766.582,272.808 768.82,262.24 771.633,251.828 C774.567,240.964 778.135,230.532 781.06,219.968 C784.005,209.325 786.822,198.692 789.943,187.97 C792.975,177.554 796.23,167.041 799.6,156.192 C802.773,145.969 806.226,135.747 809.849,124.835 L809.849,124.835 Z M876.224,182.083 C876.224,165.289 866.187,160.04 857.56,159.34 C853.591,159.104 847.584,160.16 844.32,161.328 C841.187,170.647 838.252,180.476 835.311,190.295 C832.431,199.911 829.484,209.617 826.657,219.256 C823.771,229.082 821.365,238.897 818.396,248.278 C829.549,248.519 839.672,244.606 848.345,238.138 C856.738,231.878 863.398,223.106 868.156,213.155 C872.775,203.495 876.224,192.857 876.224,182.083 L876.224,182.083 Z" id="Fill-7" fill="#FF1741" sketch:type="MSShapeGroup"></path>
            <path d="M919.411,286.938 C923.577,277.775 928.117,268.755 932.379,259.379 C936.56,250.174 940.553,240.784 944.826,231.459 C949.055,222.232 953.526,213.06 957.844,203.801 C962.15,194.568 965.897,185.057 970.29,175.871 C974.704,166.65 979.155,157.465 983.656,148.374 C988.208,139.179 993.068,130.224 997.714,121.247 C1008.544,119.536 1018.73,118.453 1028.745,118.086 C1039.216,117.705 1049.293,118.247 1059.78,118.604 C1059.859,128.002 1059.685,137.272 1059.79,146.754 C1059.896,156.183 1060.405,165.634 1060.495,175.09 C1060.586,184.544 1061.086,194 1061.117,203.429 C1061.147,212.914 1060.938,222.374 1060.864,231.776 C1060.792,241.29 1060.568,250.745 1060.34,260.111 C1060.108,269.652 1059.91,279.452 1059.474,288.78 C1045.484,288.314 1029.63,287.509 1015.639,289.144 C1016.342,279.582 1016.36,269.614 1016.593,259.825 C1003.3,260.288 990.715,259.522 974.858,260.689 C970.424,269.084 966.459,278.45 961.33,287.076 C946.635,285.914 932.472,285.776 919.411,286.938 L919.411,286.938 Z M1023.641,220.193 C1023.757,210.452 1023.902,200.066 1023.494,189.741 C1023.088,179.543 1022.064,169.12 1021.483,159.27 C1015.596,168.974 1009.627,179.073 1004.195,189.149 C998.659,199.42 993.871,209.71 988.57,219.479 C1000.465,219.012 1011.046,219.027 1023.641,220.193 L1023.641,220.193 Z" id="Fill-8" fill="#FF1741" sketch:type="MSShapeGroup"></path>
            <path d="M1215.032,170.08 C1203.814,170.234 1191.499,172.695 1180.372,177.369 C1169.195,182.067 1159.042,189.206 1152.035,198.339 C1145.139,207.332 1141.361,218.586 1142.442,231.761 C1143.373,244.119 1153.702,254.945 1169.794,255.177 C1179.12,255.177 1185.599,253.705 1192.131,249.742 C1194.229,241.808 1199.58,222.33 1203.546,209.735 C1210.352,209.107 1217.924,207.962 1226.42,207.642 C1233.641,207.37 1241.447,207.717 1249.594,207.717 C1246.779,217.385 1243.752,229.023 1240.137,241.07 C1236.865,251.976 1233.283,263.394 1229.514,274.142 C1221.727,279.86 1210.747,284.76 1198.984,287.984 C1188.203,290.939 1176.534,291.837 1165.828,291.951 C1153.928,292.104 1141.94,290.903 1131.307,286.777 C1120.107,282.433 1110.486,275.3 1103.459,266.02 C1096.885,257.344 1092.894,246.528 1092.363,233.376 C1091.905,222.443 1092.57,211.895 1095.466,202.133 C1098.479,191.971 1104.032,182.937 1109.995,174.327 C1115.929,165.764 1123.031,158.106 1131.197,151.361 C1139.218,144.736 1147.637,138.243 1157.158,133.645 C1166.576,129.1 1176.699,125.65 1186.958,123.349 C1199.157,120.602 1212.283,119.579 1224.725,119.572 C1238.68,119.566 1252.178,121.137 1262.661,123.602 C1260.387,134.256 1258.158,142.136 1256.107,150.137 C1254.162,157.723 1251.926,165.181 1248.632,175.853 C1239.533,172.119 1227.858,169.843 1215.032,170.08" id="Fill-9" fill="#FF1741" sketch:type="MSShapeGroup"></path>
            <path d="M1392.109,190.482 C1388.816,202.476 1386.491,211.954 1382.258,223.947 C1375.34,223.479 1364.599,221.957 1354.428,222.015 C1344.2,222.073 1333.938,223.121 1327.098,223.594 C1324.747,231.825 1322.438,239.27 1319.853,247.501 C1327.688,247.501 1338.616,248.199 1349.928,247.674 C1360.682,247.173 1371.604,245.602 1380.087,244.57 C1377.236,251.928 1374.878,259.252 1371.729,266.283 C1368.638,273.186 1365.031,280.228 1361.303,287.336 C1353.894,287.784 1345.609,287.065 1337.446,287.263 C1329.633,287.454 1321.67,287.737 1313.874,287.778 C1305.678,287.822 1297.682,288.473 1290.293,288.44 C1281.288,288.404 1272.451,288.503 1265.98,288.503 C1267.955,280.468 1271.305,272.238 1273.237,264.286 C1275.183,256.276 1277.049,248.281 1279.006,240.307 C1280.965,232.332 1283.383,224.48 1285.406,216.489 C1287.412,208.558 1288.131,200.264 1290.256,192.271 C1292.348,184.391 1294.264,176.395 1296.524,168.409 C1298.735,160.588 1301.507,152.835 1303.921,144.868 C1306.273,137.111 1308.59,129.036 1311.181,121.099 C1319.635,119.814 1329.302,119.207 1339.215,118.473 C1348.27,117.803 1357.698,116.868 1367.14,116.571 C1376.604,116.275 1386.076,116.345 1395.131,116.342 C1405.124,116.337 1414.337,116.842 1422.812,117.09 C1419.75,124.748 1416.563,132.364 1413.471,140.347 C1410.389,148.297 1407.686,156.403 1404.752,164.148 C1396.882,163.79 1385.924,163.343 1374.858,163.65 C1364.104,163.948 1353.556,165.349 1345.327,166.159 C1342.505,174.625 1339.314,183.492 1336.727,192.191 C1344.433,191.042 1354.531,191.061 1364.402,190.874 C1374.712,190.677 1384.902,190.242 1392.109,190.482" id="Fill-10" fill="#FF1741" sketch:type="MSShapeGroup"></path>
            <path d="M758.217,211.088 C756.002,221.245 752.541,230.697 748.564,239.503 C744.305,248.929 739.501,257.822 733.401,265.408 C727.012,273.351 719.225,279.781 711.031,285.366 C702.829,290.955 693.782,295.104 683.986,297.984 C674.735,300.702 664.911,302.477 654.426,302.477 C643.167,302.477 633.346,299.41 624.807,294.612 C615.754,289.526 604.705,280.148 599.22,271.131 C594.043,262.624 590.457,252.718 588.912,242.013 C587.494,232.195 587.502,221.649 589.49,211.004 C591.445,200.567 594.964,191.077 598.759,182.237 C602.917,172.555 607.973,163.863 613.944,156.21 C620.344,148.007 627.711,141.153 635.711,135.423 C644.036,129.456 652.785,124.252 662.284,121.126 C671.847,117.982 681.78,117.376 691.956,117.275 C703.906,117.16 714.778,118.679 723.658,123.341 C733.396,128.457 744.448,138.735 750.056,148.141 C755.343,157.009 758.885,167.411 760.107,178.764 C761.204,188.93 760.667,199.907 758.217,211.088 L758.217,211.088 Z M645.937,221.562 C643.456,230.62 643.606,239.801 646.501,247.083 C649.937,255.728 656.85,261.191 666.201,260.943 C675.827,260.562 684.39,255.315 690.919,246.557 C696.411,239.19 700.758,229.694 703.208,219.574 C705.47,210.128 705.927,201.268 704.484,194.39 C702.647,185.647 697.208,179.605 686.504,179.605 C675.83,179.605 666.605,185.474 659.49,193.727 C652.925,201.342 648.399,211.376 645.937,221.562 L645.937,221.562 Z" id="Fill-11" fill="#FF1741" sketch:type="MSShapeGroup"></path>
            <path d="M596.938,249.316 C596.04,240.046 596.485,229.986 598.416,219.654 C600.348,209.351 603.114,199.788 606.747,191.182 C610.793,181.6 616.458,173.45 622.271,166.005 C628.558,157.955 635.679,151.216 643.593,145.714 C651.782,140.023 660.38,134.949 669.814,132.041 C679.144,129.164 689.117,128.646 699.174,128.547 C710.744,128.434 720.947,129.583 729.369,133.396 C734.609,135.769 739.203,138.925 743.17,142.678 C743.042,142.457 742.916,142.231 742.786,142.014 C737.45,133.271 729.865,126.1 720.055,121.658 C711.633,117.845 701.432,116.696 689.859,116.808 C679.804,116.908 669.831,117.427 660.501,120.302 C651.067,123.211 642.469,128.285 634.28,133.976 C626.364,139.478 619.245,146.218 612.957,154.268 C607.144,161.713 601.479,169.861 597.434,179.443 C593.801,188.05 591.035,197.612 589.102,207.916 C587.172,218.248 586.727,228.308 587.624,237.578 C588.643,248.106 591.337,257.89 595.878,266.056 C598.459,270.694 601.722,274.775 605.508,278.313 C605.407,278.137 605.291,277.972 605.191,277.793 C600.65,269.627 597.956,259.845 596.938,249.316" id="Fill-12" fill="#FFEE4D" sketch:type="MSShapeGroup"></path>
            <path d="M751.072,171.334 C750.228,160.538 747.925,150.776 743.17,142.678 C739.203,138.925 734.609,135.769 729.369,133.396 C720.947,129.583 710.744,128.434 699.174,128.547 C689.117,128.646 679.144,129.164 669.814,132.041 C660.38,134.949 651.782,140.023 643.593,145.714 C635.679,151.216 628.558,157.955 622.271,166.005 C616.458,173.45 610.793,181.6 606.747,191.182 C603.114,199.788 600.348,209.351 598.416,219.654 C596.485,229.986 596.04,240.046 596.938,249.316 C597.956,259.845 600.65,269.627 605.191,277.793 C605.291,277.972 605.407,278.137 605.508,278.313 C608.929,281.508 612.774,284.264 616.982,286.536 C624.977,290.847 634.502,293.228 645.586,293.228 C656.069,293.228 666.11,292.327 675.361,289.604 C685.153,286.725 694.071,281.958 702.271,276.368 C710.461,270.782 718.211,264.26 724.595,256.316 C730.69,248.731 735.926,240.012 740.182,230.587 C744.156,221.783 747.216,212.131 749.429,201.975 C751.812,191.093 751.809,180.761 751.072,171.334 L751.072,171.334 Z M637.78,236.633 C634.89,229.312 634.365,220.318 636.829,211.319 C639.29,201.138 644.025,191.349 650.581,183.734 C657.69,175.476 666.595,169.637 677.261,169.637 C687.593,169.637 694.677,174.787 698.117,182.864 C698.336,183.374 698.528,183.9 698.712,184.433 C701.002,191.078 700.691,199.429 698.505,208.561 C696.006,218.884 691.017,228.762 684.13,236.323 C676.24,244.982 666.429,250.221 656.977,250.597 C653.155,250.697 649.85,249.828 647.03,248.202 C642.884,245.809 639.804,241.763 637.78,236.633 L637.78,236.633 Z" id="Fill-13" fill="#FFD6DF" sketch:type="MSShapeGroup"></path>
            <path d="M600.401,249.42 C601.463,252.499 601.937,253.024 603.721,255.45 C605.43,257.775 608.18,259 610.871,257.424 C613.168,256.08 614.583,252.441 612.866,250.106 C612.154,249.135 611.014,247.821 610.759,247.236 C610.503,246.649 610.11,245.18 609.98,244.578 C609.374,241.75 606.235,239.985 603.57,240.718 C600.666,241.517 599.27,244.547 599.875,247.371 C600.087,248.407 600.087,248.411 600.401,249.42" id="Fill-14" fill="#FFFFFF" sketch:type="MSShapeGroup"></path>
            <path d="M607.136,225.291 C606.795,202.222 619.433,177.569 637.159,159.378 C646.291,150.005 656.685,141.267 669.32,137.757 C683.303,133.875 702.964,133.8 714.687,143.544 C719.908,147.882 726.699,141.295 721.435,136.92 C695.088,115.022 655.709,128.188 632.887,148.959 C611.271,168.632 596.799,198.818 598.011,228.182 C598.292,234.997 609.005,234.714 609.005,228.351 C608.786,226.675 607.16,226.881 607.136,225.291" id="Fill-15" fill="#FFFFFF" sketch:type="MSShapeGroup"></path>
            <path d="M1223.775,180.191 C1212.559,180.344 1200.274,182.913 1189.148,187.587 C1177.971,192.285 1168.01,199.519 1161.002,208.652 C1154.106,217.645 1150.538,228.699 1151.617,241.874 C1152.548,254.232 1162.451,264.773 1178.544,265.003 C1187.867,265.003 1194.533,263.987 1201.064,260.023 C1203.165,252.092 1207.935,232.13 1211.9,219.536 C1220.473,218.745 1233.604,209.807 1249.594,207.717 C1252.957,208.215 1258.822,216.145 1258.507,217.938 C1255.688,227.607 1252.407,239.141 1248.793,251.189 C1245.521,262.094 1241.844,273.411 1238.075,284.16 C1230.289,289.878 1219.385,294.515 1207.623,297.739 C1196.842,300.694 1185.289,302.856 1174.583,302.971 C1162.684,303.124 1150.836,300.666 1140.201,296.54 C1128.999,292.194 1106.459,277.601 1100.309,260.041 C1096.317,248.649 1100.893,256.705 1100.362,243.553 C1099.906,232.62 1101.599,222.126 1104.492,212.363 C1107.508,202.201 1112.713,193.04 1118.677,184.431 C1124.61,175.866 1131.595,168.032 1139.76,161.287 C1147.782,154.664 1156.44,148.507 1165.963,143.911 C1175.382,139.366 1185.545,136.238 1195.805,133.938 C1205.75,131.698 1218.414,129.616 1230.586,128.096 C1244.482,126.362 1254.586,122.484 1262.661,123.602 C1264.803,123.897 1270.732,130.577 1270.732,133.856 C1268.449,144.538 1267.083,152.545 1264.969,160.643 C1262.939,168.414 1260.723,176.401 1257.435,187.054 C1255.285,186.096 1255.482,185.821 1250.849,184.062 C1243.063,181.105 1233.772,180.006 1223.775,180.191" id="Fill-16" fill="#FF1741" sketch:type="MSShapeGroup"></path>
            <path d="M1104.778,213.871 C1107.792,203.71 1113.345,194.676 1119.31,186.065 C1125.24,177.502 1132.345,169.843 1140.51,163.099 C1148.532,156.475 1156.951,149.981 1166.473,145.383 C1175.889,140.838 1186.013,137.388 1196.27,135.088 C1208.471,132.341 1221.595,131.317 1234.036,131.31 C1243.3,131.307 1252.356,131.999 1260.468,133.185 C1261.192,130.216 1261.925,127.056 1262.661,123.602 C1252.178,121.137 1238.68,119.566 1224.725,119.572 C1212.283,119.579 1199.157,120.602 1186.958,123.349 C1176.699,125.65 1166.576,129.1 1157.158,133.645 C1147.637,138.243 1139.218,144.736 1131.197,151.361 C1123.031,158.106 1115.929,165.764 1109.995,174.327 C1104.032,182.937 1098.479,191.971 1095.466,202.133 C1092.57,211.895 1091.905,222.443 1092.363,233.376 C1092.894,246.528 1096.885,257.344 1103.459,266.02 C1105.283,268.429 1107.286,270.691 1109.441,272.799 C1104.858,265.062 1102.109,255.87 1101.676,245.114 C1101.218,234.182 1101.884,223.634 1104.778,213.871" id="Fill-17" fill="#FFEE4D" sketch:type="MSShapeGroup"></path>
            <path d="M1180.372,177.369 C1191.499,172.695 1203.814,170.234 1215.032,170.08 C1227.858,169.843 1239.533,172.119 1248.632,175.853 C1251.926,165.181 1254.162,157.723 1256.107,150.137 C1257.492,144.73 1258.961,139.375 1260.468,133.185 C1252.356,131.999 1243.3,131.307 1234.036,131.31 C1221.595,131.317 1208.471,132.341 1196.27,135.088 C1186.013,137.388 1175.889,140.838 1166.473,145.383 C1156.951,149.981 1148.532,156.475 1140.51,163.099 C1132.345,169.843 1125.24,177.502 1119.31,186.065 C1113.345,194.676 1107.792,203.71 1104.778,213.871 C1101.884,223.634 1101.218,234.182 1101.676,245.114 C1102.109,255.87 1104.858,265.062 1109.441,272.799 C1115.592,278.811 1123.015,283.56 1131.307,286.777 C1141.94,290.903 1153.928,292.104 1165.828,291.951 C1176.534,291.837 1188.203,290.939 1198.984,287.984 C1210.747,284.76 1221.727,279.86 1229.514,274.142 C1233.283,263.394 1236.865,251.976 1240.137,241.07 C1242.399,233.529 1244.431,226.147 1246.327,219.311 C1247.458,215.225 1248.541,211.333 1249.594,207.717 C1241.447,207.717 1233.641,207.37 1226.42,207.642 C1217.924,207.962 1210.352,209.107 1203.546,209.735 C1199.58,222.33 1194.229,241.808 1192.131,249.742 C1185.599,253.705 1179.12,255.177 1169.794,255.177 C1163.24,255.083 1157.646,253.232 1153.248,250.235 C1146.849,245.875 1142.992,239.087 1142.442,231.761 C1141.361,218.586 1145.139,207.332 1152.035,198.339 C1159.042,189.206 1169.195,182.067 1180.372,177.369" id="Fill-18" fill="#FFD6DF" sketch:type="MSShapeGroup"></path>
            <path d="M1103.758,229.719 C1103.359,232.733 1103.582,235.812 1104.443,238.719 C1105.261,241.49 1108.229,243.085 1111.056,242.307 C1113.8,241.552 1115.466,238.677 1114.648,235.905 C1114.491,235.372 1114.449,234.804 1114.32,234.262 C1114.308,234.207 1114.078,232.474 1114.198,233.546 C1114.056,232.268 1114.309,231.003 1114.476,229.734 C1114.855,226.86 1111.606,224.432 1109.004,224.432 C1105.827,224.432 1103.969,226.834 1103.59,229.699 C1103.586,229.728 1103.758,229.719 1103.758,229.719" id="Fill-19" fill="#FFFFFF" sketch:type="MSShapeGroup"></path>
            <path d="M1188.467,130.024 C1179.563,132.278 1162.788,139.179 1139.647,157.983 C1122.212,172.152 1108.275,191.691 1105.772,214.404 C1105.023,221.198 1115.715,221.135 1116.457,214.413 C1118.657,194.449 1132.173,177.836 1147.102,165.41 C1167.657,148.301 1193.834,140.017 1220.298,139.138 C1227.119,138.913 1224.759,128.231 1217.916,128.458 C1203.109,128.498 1198.938,127.373 1188.467,130.024" id="Fill-20" fill="#FFFFFF" sketch:type="MSShapeGroup"></path>
            <path d="M454.525,131.308 C461.176,129.302 472.284,127.383 483.862,125.692 C493.807,124.239 504.329,122.879 513.381,123.204 C524.577,123.667 530.218,119.343 543.973,122.807 C552.985,125.075 563.81,132.993 569.448,142.784 C574.438,151.447 578.016,161.686 577.906,171.975 C577.906,181.754 575.868,192.042 571.301,201.591 C567.144,210.289 560.799,218.444 552.436,225.365 C545.24,231.322 536.148,236.089 525.565,239.687 C527.861,246.061 533.337,260.708 537.56,271.604 C541.06,280.635 544.615,290.54 547.185,299.412 C543.032,299.947 533.253,299.859 522.661,300.021 C514.721,300.145 506.081,300.833 498.488,301.33 C494.246,300.042 489.194,290.912 488.46,289.459 C482.838,275.975 482.472,263.758 478.387,251.705 C477.222,251.705 473.623,251.333 472.92,251.102 C468.936,260.85 466.132,268.771 463.345,275.768 C459.934,284.339 456.871,291.356 453.277,299.832 C441.615,299.366 422.631,299.812 409.572,300.747 C406.642,299.459 400.907,292.589 400.907,289.492 C403.892,279.169 408.001,268.332 411.575,257.505 C414.993,247.151 417.843,236.355 421.572,225.736 C425.224,215.33 429.634,205.077 433.377,194.597 C437.129,184.099 440.411,173.445 444.043,163.054 C447.764,152.409 451.15,141.648 454.525,131.308 L454.525,131.308 Z M518.974,206.071 C524.566,200.916 529.54,192.891 530.682,185.22 C531.965,176.583 528.769,168.973 518.517,167.614 C512.92,166.679 504.703,167.363 497.242,170.628 C493.044,185.321 488.512,200.068 484.083,214.761 C497.841,216.396 511.511,213.067 518.974,206.071 L518.974,206.071 Z" id="Fill-21" fill="#FF1741" sketch:type="MSShapeGroup"></path>
            <path d="M425.788,245.83 C428.364,236.712 431.525,227.71 434.151,218.513 C436.753,209.4 439.19,200.194 441.887,191.02 C444.559,181.923 447.222,172.778 450.03,163.64 C452.818,154.576 456.108,145.788 459.073,136.702 C465.721,134.695 476.195,132.042 487.773,130.35 C497.719,128.899 508.274,127.693 517.326,128.019 C528.523,128.482 544.441,128.843 557.035,135.373 C559.536,136.695 561.91,138.291 564.116,140.157 C560.18,132.587 554.388,127.159 547.723,123.635 C535.127,117.105 519.21,116.743 508.013,116.281 C498.96,115.956 488.407,117.16 478.459,118.612 C466.883,120.304 456.408,122.957 449.759,124.964 C446.795,134.05 443.504,142.838 440.716,151.902 C437.908,161.04 435.246,170.185 432.574,179.282 C429.876,188.455 427.44,197.662 424.838,206.775 C422.212,215.973 419.052,224.975 416.474,234.093 C413.874,243.302 412.074,252.688 409.478,261.795 C406.853,271 403.574,280.413 400.907,289.492 C404.907,289.208 409.429,288.935 414.112,288.711 C415.73,283.648 417.359,278.56 418.792,273.533 C421.388,264.426 423.187,255.041 425.788,245.83" id="Fill-22" fill="#FFEE4D" sketch:type="MSShapeGroup"></path>
            <path d="M564.563,140.98 C564.422,140.696 564.26,140.436 564.116,140.157 C561.91,138.291 559.536,136.695 557.035,135.373 C544.441,128.843 528.523,128.482 517.326,128.019 C508.274,127.693 497.719,128.899 487.773,130.35 C476.195,132.042 465.721,134.695 459.073,136.702 C456.108,145.788 452.818,154.576 450.03,163.64 C447.222,172.778 444.559,181.923 441.887,191.02 C439.19,200.194 436.753,209.4 434.151,218.513 C431.525,227.71 428.364,236.712 425.788,245.83 C423.187,255.041 421.388,264.426 418.792,273.533 C417.359,278.56 415.73,283.648 414.112,288.711 C424.721,288.202 436.157,287.932 444.247,288.256 C447.84,279.779 451.037,272.596 454.448,264.025 C457.234,257.027 460.634,249.425 464.618,239.677 C465.318,239.909 467.658,240.035 468.82,240.035 C470.119,243.87 471.739,248.076 473.496,252.469 C475.081,256.428 476.775,260.535 478.464,264.673 C481.962,273.259 485.455,282.175 488.46,289.459 C489.971,289.359 491.444,289.256 492.904,289.152 C500.04,288.644 506.638,288.114 513.118,287.871 C520.877,287.581 528.507,287.274 537.458,287.392 C534.017,278.525 530.123,269.235 526.836,260.326 C522.781,249.316 520.037,239.451 517.716,233.006 C528.299,229.409 536.457,223.732 543.653,217.777 C552.016,210.856 558.631,203.095 562.79,194.397 C567.356,184.849 569.259,174.602 569.259,164.82 C569.362,155.159 567.669,147.298 564.563,140.98 L564.563,140.98 Z M519.676,174.431 C518.536,182.102 514.327,190.736 508.732,195.892 C503.611,200.696 495.518,203.378 486.499,204.06 C482.378,204.372 478.063,204.267 473.748,203.754 C478.178,189.062 482.482,174.706 486.682,160.013 C494.144,156.748 502.135,155.995 507.732,156.93 C515.864,158.008 519.406,162.96 519.888,169.271 C520.012,170.915 519.94,172.646 519.676,174.431 L519.676,174.431 Z" id="Fill-23" fill="#FFD6DF" sketch:type="MSShapeGroup"></path>
            <path d="M434.931,206.54 C434.144,209.321 435.865,212.366 438.635,213.127 C441.437,213.898 444.381,212.188 445.169,209.408 C445.501,208.234 445.951,207.104 446.298,205.933 C447.127,203.164 445.423,200.211 442.683,199.457 C439.851,198.679 437.361,199.84 436.434,203.107 C435.785,204.867 435.263,205.365 434.931,206.54" id="Fill-24" fill="#FFFFFF" sketch:type="MSShapeGroup"></path>
            <path d="M528.999,126.007 C512.594,123.353 496.022,123.938 479.596,126.141 C474.198,126.866 468.824,127.747 463.489,128.843 C460.447,129.467 457.318,129.874 456.211,133.365 C450.72,150.722 445.007,168.06 440.175,185.614 C438.357,192.22 448.59,195.019 450.402,188.434 C454.951,171.904 460.282,155.566 465.472,139.224 C485.064,134.768 506.42,133.037 526.18,136.234 C532.869,137.315 535.738,127.096 528.999,126.007" id="Fill-25" fill="#FFFFFF" sketch:type="MSShapeGroup"></path>
            <path d="M814.904,132.909 C820.689,130.784 828.634,127.369 836.473,124.14 C844.12,120.992 850.799,119.184 857.475,119.07 C869.328,118.829 881.898,119.796 892.222,123.684 C902.929,127.716 912.79,133.78 919.726,143.545 C925.579,151.781 930.967,166.425 932.721,179.6 C933.91,188.589 933.671,197.852 932.146,207.194 C930.673,216.221 927.902,225.081 924.266,233.688 C920.643,242.255 916.781,250.828 911.376,258.254 C905.811,265.896 899.153,272.584 892.086,278.24 C884.777,284.101 876.396,288.479 867.547,292.159 C858.987,295.719 849.929,298.379 840.453,300.055 C831.282,301.678 821.843,302.226 812.29,302.226 C796.668,302.226 779.385,300.775 768.189,297.274 C765.364,294.84 763.31,285.779 763.595,283.832 C767.08,273.6 770.851,265.514 774.3,255.386 C777.768,245.21 780.79,234.914 784.249,224.729 C787.688,214.605 791.095,204.438 794.554,194.195 C797.957,184.116 801.677,174.053 805.132,163.748 C808.494,153.706 811.465,143.267 814.904,132.909 L814.904,132.909 Z M882.261,192.838 C882.261,176.044 874.396,172.859 865.771,172.159 C861.8,171.923 856.616,173.251 853.352,174.417 C850.219,183.739 846.392,193.051 843.45,202.869 C840.569,212.486 837.888,222.268 835.059,231.909 C832.173,241.732 829.259,251.781 826.288,261.162 C837.439,261.402 848.208,257.622 856.88,251.153 C865.271,244.894 872.419,236.089 877.179,226.138 C881.798,216.479 882.261,203.612 882.261,192.838 L882.261,192.838 Z" id="Fill-26" fill="#FF1741" sketch:type="MSShapeGroup"></path>
            <path d="M790.374,231.706 C793.319,221.063 796.137,210.432 799.26,199.708 C802.289,189.292 805.543,178.78 808.913,167.931 C812.09,157.707 815.538,147.486 819.162,136.573 C830.589,132.374 847.729,128.409 861.252,128.178 C872.794,127.942 884.06,128.727 894.323,131.407 C903.179,133.723 911.104,137.374 917.624,143.245 C916.246,140.771 914.708,138.502 913.013,136.427 C905.769,127.571 896.121,122.572 885.011,119.668 C874.747,116.987 863.481,116.204 851.938,116.439 C838.414,116.671 821.277,120.636 809.849,124.835 C806.226,135.747 802.773,145.969 799.6,156.192 C796.23,167.041 792.975,177.554 789.943,187.97 C786.822,198.692 784.005,209.325 781.06,219.968 C778.135,230.532 774.567,240.964 771.633,251.828 C768.82,262.24 766.582,272.808 763.595,283.832 C767.161,284.948 771.031,285.984 775.153,286.882 C777.122,278.946 778.878,271.213 780.946,263.565 C783.881,252.702 787.448,242.27 790.374,231.706" id="Fill-27" fill="#FFEE4D" sketch:type="MSShapeGroup"></path>
            <path d="M924.939,166.983 C923.664,157.395 921.181,149.622 917.624,143.245 C911.104,137.374 903.179,133.723 894.323,131.407 C884.06,128.727 872.794,127.942 861.252,128.178 C847.729,128.409 830.589,132.374 819.162,136.573 C815.538,147.486 812.09,157.707 808.913,167.931 C805.543,178.78 802.289,189.292 799.26,199.708 C796.137,210.432 793.319,221.063 790.374,231.706 C787.448,242.27 783.881,252.702 780.946,263.565 C778.878,271.213 777.122,278.946 775.153,286.882 C783.971,288.801 793.943,290.076 804.591,290.076 C814.142,290.076 823.575,289.022 832.745,287.4 C842.221,285.725 851.566,283.773 860.129,280.215 C868.976,276.533 876.903,271.256 884.208,265.394 C891.278,259.738 898.141,253.292 903.705,245.649 C909.112,238.223 913.562,229.89 917.185,221.323 C920.822,212.716 923.374,203.66 924.85,194.632 C926.373,185.292 926.13,175.973 924.939,166.983 L924.939,166.983 Z M818.396,248.278 C821.365,238.897 823.771,229.082 826.657,219.256 C829.484,209.617 832.431,199.911 835.311,190.295 C838.252,180.476 841.187,170.647 844.32,161.328 C847.584,160.16 853.591,159.104 857.56,159.34 C864.458,159.899 872.249,163.373 875.1,173.32 C875.813,175.817 876.224,178.713 876.224,182.083 C876.224,192.857 872.775,203.495 868.156,213.155 C863.398,223.106 856.738,231.878 848.345,238.138 C843.246,241.941 837.641,244.85 831.623,246.561 C827.406,247.762 822.991,248.378 818.396,248.278 L818.396,248.278 Z" id="Fill-28" fill="#FFD6DF" sketch:type="MSShapeGroup"></path>
            <path d="M792.946,206.776 C792.239,209.577 793.873,212.57 796.703,213.349 C799.445,214.104 802.39,212.378 803.098,209.576 C803.512,207.941 804.185,206.374 804.619,204.744 C805.366,201.955 803.725,198.878 800.925,198.106 C798.153,197.346 795.205,199.155 794.459,201.947 C793.749,204.375 793.358,205.141 792.946,206.776" id="Fill-29" fill="#FFFFFF" sketch:type="MSShapeGroup"></path>
            <path d="M891.197,130.009 C869.352,121.482 842.275,124.221 819.97,130.009 C816.512,130.906 815.828,135.028 814.859,137.942 C813.222,142.891 811.595,147.843 809.977,152.798 C806.47,163.533 802.831,174.264 799.825,185.153 C798.002,191.757 807.174,194.555 809.628,185.964 L815.017,174.068 C817.219,165.983 821.165,152.737 825.492,139.56 C845.559,134.685 869.056,132.695 888.378,140.236 C894.758,142.726 897.498,132.466 891.197,130.009" id="Fill-30" fill="#FFFFFF" sketch:type="MSShapeGroup"></path>
            <path d="M922.495,300.186 C919.971,298.725 918.524,288.888 919.411,286.938 C923.212,278.575 928.256,276.162 933.086,266.628 C937.409,258.091 941.68,248.985 946.531,239.869 C951.134,231.217 955.484,222.147 960.315,213.269 C965.088,204.499 970.323,195.913 975.08,187.204 C979.96,178.275 984.681,169.404 989.301,160.838 C994.245,151.661 998.787,142.437 1003.134,134.035 C1012.238,132.598 1022.252,131.093 1031.825,129.436 C1041.832,127.706 1051.173,120.043 1059.78,118.604 C1062.004,119.075 1065.374,126.998 1065.425,131.635 C1065.528,141.035 1066.213,150.49 1066.532,159.986 C1066.848,169.413 1067.12,178.877 1067.477,188.339 C1067.83,197.8 1067.964,207.268 1068.19,216.699 C1068.421,226.196 1068.401,235.658 1068.329,245.062 C1068.256,254.588 1068.786,264.083 1068.226,273.446 C1067.669,282.694 1068.497,291.683 1067.764,301.348 C1058.641,300.074 1048.609,299.481 1042.143,299.529 C1034,299.592 1027.136,300.509 1019.337,301.421 C1016.933,299.845 1015.819,291.19 1015.639,289.144 C1017.229,283.126 1022.303,278.585 1022.435,273.035 C1009.143,273.495 996.608,273.074 980.75,274.243 C976.318,282.637 972.095,291.407 966.967,300.032 C952.271,298.871 935.556,299.023 922.495,300.186 L922.495,300.186 Z M1029.333,233.349 C1029.451,223.61 1029.249,213.301 1028.838,202.974 C1028.432,192.777 1027.807,182.092 1027.227,172.242 C1021.335,181.946 1015.722,192.483 1010.286,202.563 C1004.753,212.832 999.791,222.795 994.492,232.565 C1006.386,232.098 1016.738,232.184 1029.333,233.349 L1029.333,233.349 Z" id="Fill-31" fill="#FF1741" sketch:type="MSShapeGroup"></path>
            <path d="M954.139,243.198 C958.368,233.971 962.84,224.8 967.158,215.539 C971.466,206.307 975.21,196.795 979.604,187.61 C984.018,178.388 988.469,169.204 992.971,160.112 C997.521,150.918 1002.381,141.961 1007.028,132.985 C1017.856,131.275 1028.045,130.19 1038.056,129.824 C1045.399,129.556 1052.553,129.745 1059.784,130.003 C1059.801,126.209 1059.812,122.418 1059.78,118.604 C1049.293,118.247 1039.216,117.705 1028.745,118.086 C1018.73,118.453 1008.544,119.536 997.714,121.247 C993.068,130.224 988.208,139.179 983.656,148.374 C979.155,157.465 974.704,166.65 970.29,175.871 C965.897,185.057 962.15,194.568 957.844,203.801 C953.526,213.06 949.055,222.232 944.826,231.459 C940.553,240.784 936.56,250.174 932.379,259.379 C928.117,268.755 923.577,277.775 919.411,286.938 C924.328,286.5 929.406,286.249 934.607,286.164 C936.982,281.2 939.378,276.213 941.692,271.117 C945.874,261.912 949.864,252.521 954.139,243.198" id="Fill-32" fill="#FFEE4D" sketch:type="MSShapeGroup"></path>
            <path d="M1060.495,175.09 C1060.405,165.634 1059.896,156.183 1059.79,146.754 C1059.729,141.119 1059.761,135.559 1059.784,130.003 C1052.553,129.745 1045.399,129.556 1038.056,129.824 C1028.045,130.19 1017.856,131.275 1007.028,132.985 C1002.381,141.961 997.521,150.918 992.971,160.112 C988.469,169.204 984.018,178.388 979.604,187.61 C975.21,196.795 971.466,206.307 967.158,215.539 C962.84,224.8 958.368,233.971 954.139,243.198 C949.864,252.521 945.874,261.912 941.692,271.117 C939.378,276.213 936.982,281.2 934.607,286.164 C943.218,286.025 952.17,286.353 961.33,287.076 C966.459,278.45 970.424,269.084 974.858,260.689 C990.715,259.522 1003.3,260.288 1016.593,259.825 C1016.499,263.776 1016.438,267.756 1016.354,271.727 C1016.231,277.594 1016.059,283.441 1015.639,289.144 C1018.854,288.767 1022.177,288.533 1025.547,288.381 C1036.828,287.873 1048.699,288.421 1059.474,288.78 C1059.91,279.452 1060.108,269.652 1060.34,260.111 C1060.568,250.745 1060.792,241.29 1060.864,231.776 C1060.938,222.374 1061.147,212.914 1061.117,203.429 C1061.086,194 1060.586,184.544 1060.495,175.09 L1060.495,175.09 Z M1004.195,189.149 C1009.627,179.073 1015.596,168.974 1021.483,159.27 C1021.953,167.207 1022.69,175.512 1023.181,183.775 C1023.296,185.767 1023.416,187.761 1023.494,189.741 C1023.902,200.066 1023.757,210.452 1023.641,220.193 C1016.706,219.551 1010.382,219.267 1004.113,219.211 C998.995,219.165 993.915,219.268 988.57,219.479 C993.871,209.71 998.659,199.42 1004.195,189.149 L1004.195,189.149 Z" id="Fill-33" fill="#FFD6DF" sketch:type="MSShapeGroup"></path>
            <path d="M954.529,235.864 C953.828,237.396 952.801,238.781 952.119,240.324 C951.519,241.686 951.386,242.942 951.796,244.437 C952.161,245.764 952.919,247.003 954.106,247.699 C956.382,249.034 960.24,248.379 961.407,245.734 C962.09,244.194 962.952,242.734 963.654,241.202 C964.271,239.853 964.519,238.543 964.111,237.063 C963.747,235.736 962.821,234.62 961.633,233.926 C959.331,232.576 955.691,233.21 954.486,235.839 C954.459,235.908 954.529,235.864 954.529,235.864" id="Fill-34" fill="#FFFFFF" sketch:type="MSShapeGroup"></path>
            <path d="M1037.837,125.738 C1037.837,125.738 1017.06,128.051 1006.734,127.846 C1004.973,127.811 1002.961,128.857 1002.155,130.473 C987.476,159.831 973.55,189.289 960.776,219.551 C958.153,225.773 967.283,231.186 969.935,224.903 C982.335,195.525 995.829,166.905 1010.036,138.398 C1019.292,137.975 1028.652,135.359 1037.837,136.344 C1044.638,137.073 1044.566,126.458 1037.837,125.738" id="Fill-35" fill="#FFFFFF" sketch:type="MSShapeGroup"></path>
            <path d="M192.408,137.545 C192.727,146.498 193.993,157.005 194.78,168.062 C195.496,178.118 196.189,188.59 197.019,198.609 C197.939,209.709 198.892,220.553 199.617,229.412 C201.823,219.099 199.695,199.373 202.404,188.91 C205.067,178.626 208.578,168.479 211.574,158.173 C214.557,147.9 217.127,137.32 220.288,127.141 C231.733,125.395 251.372,118.272 265.441,119.028 C268.872,120.056 271.939,130.691 271.939,132.934 C268.666,142.099 264.707,151.083 261.58,160.338 C258.456,169.575 256.202,179.11 253.227,188.394 C250.247,197.701 247.413,207.034 244.587,216.345 C241.743,225.716 238.421,234.911 235.74,244.242 C233.031,253.675 230.693,263.156 228.158,272.503 C225.581,281.999 222.614,291.087 220.226,300.444 C212.191,300.095 203.327,300.67 194.229,301.111 C185.106,301.555 175.998,301.876 168.057,302.929 C165.727,301.993 162.553,293.4 161.903,289.326 C163.351,277.216 163.441,272.77 162.611,260.011 C161.778,247.186 160.66,232.394 159.515,220.428 C156.648,229.554 154.413,238.414 151.923,247.188 C149.34,256.299 146.984,265.273 144.666,274.194 C142.313,283.249 141.222,292.515 138.997,301.577 C123.369,301.109 110.212,301.563 95.054,302.498 C92.269,301.575 88.551,291.857 88.551,289.157 C92.611,279.78 96.181,269.282 99.804,258.186 C103.091,248.123 105.869,237.41 108.931,226.517 C111.866,216.081 115.064,205.492 117.912,194.793 C120.756,184.106 124.096,173.549 126.969,163.085 C129.963,152.187 132.911,141.714 136.061,131.595 C144.752,130.496 152.111,128.21 159.425,126.63 C167.513,124.883 175.046,123.749 182.974,122.559 C185.639,123.499 191.408,134.439 192.408,137.545" id="Fill-36" fill="#FF1741" sketch:type="MSShapeGroup"></path>
            <path d="M110.596,245.69 C112.761,236.576 114.896,227.358 117.21,218.147 C119.506,209.001 121.331,199.694 123.765,190.576 C126.216,181.406 129.072,172.375 131.657,163.363 C134.29,154.179 136.754,144.818 139.52,135.93 C149.23,134.702 157.942,134.293 166.063,134.011 C171.993,133.805 177.661,133.894 183.497,134.05 C183.282,130.031 183.105,126.177 182.974,122.559 C173.854,122.313 165.598,121.965 156.749,122.273 C148.629,122.556 139.917,122.965 130.207,124.191 C127.439,133.079 124.977,142.439 122.344,151.624 C119.758,160.638 116.901,169.668 114.452,178.838 C112.017,187.956 110.192,197.262 107.896,206.408 C105.582,215.621 103.448,224.837 101.283,233.953 C99.072,243.258 96.111,252.286 94.062,261.354 C91.934,270.762 90.675,279.689 88.727,288.694 C92.841,288.44 96.684,288.26 100.416,288.138 C101.313,283.204 102.215,278.221 103.375,273.093 C105.423,264.024 108.386,254.995 110.596,245.69" id="Fill-37" fill="#FFEE4D" sketch:type="MSShapeGroup"></path>
            <path d="M249.451,130.235 C240.36,130.542 231.676,131.392 224.646,132.464 C221.486,142.643 217.73,152.565 214.747,162.837 C211.753,173.144 209.044,183.523 206.382,193.807 C203.675,204.269 201.522,214.942 199.319,225.256 C198.593,216.406 195.597,222.232 194.664,211.254 C194.438,208.602 194.664,211.254 194.42,208.559 C192.242,217.509 191.882,204.737 190.005,213.518 C189.279,204.667 188.247,194.023 187.314,183.045 C186.471,173.097 185.422,162.737 184.69,152.75 C184.218,146.24 183.815,139.96 183.497,134.05 C177.661,133.894 171.993,133.805 166.063,134.011 C157.942,134.293 149.23,134.702 139.52,135.93 C136.754,144.818 134.29,154.179 131.657,163.363 C129.072,172.375 126.216,181.406 123.765,190.576 C121.331,199.694 119.506,209.001 117.21,218.147 C114.896,227.358 112.761,236.576 110.596,245.69 C108.386,254.995 105.423,264.024 103.375,273.093 C102.215,278.221 101.313,283.204 100.416,288.138 C110.449,287.81 119.673,287.917 131.058,288.258 C133.285,279.196 136.065,270.475 138.418,261.42 C140.737,252.499 143.207,243.559 145.793,234.449 C148.283,225.675 150.402,216.438 153.269,207.312 C154.092,215.911 155.308,225.419 156.304,234.845 C156.479,236.515 156.656,238.187 156.834,239.859 C157.637,247.442 158.444,255.006 159.2,262.203 C160.269,272.383 161.224,281.584 161.903,289.326 C164.509,288.981 167.227,288.695 170.013,288.446 C175.719,287.934 181.742,287.585 187.881,287.27 C196.992,286.807 206.109,286.651 214.144,287 C216.533,277.641 218.795,268.16 221.371,258.663 C223.907,249.315 226.381,239.868 229.09,230.433 C231.77,221.103 234.952,211.86 237.796,202.489 C240.623,193.179 243.331,183.797 246.312,174.492 C249.29,165.207 252.098,155.851 255.222,146.613 C257.099,141.063 259.223,135.547 261.327,130.043 C257.41,130.018 253.397,130.103 249.451,130.235" id="Fill-38" fill="#FFD6DF" sketch:type="MSShapeGroup"></path>
            <path d="M199.319,225.256 C201.522,214.942 203.675,204.269 206.382,193.807 C209.044,183.523 211.753,173.144 214.747,162.837 C217.73,152.565 221.486,142.643 224.646,132.464 C231.676,131.392 240.36,130.542 249.451,130.235 C253.397,130.103 257.41,130.018 261.327,130.043 C262.734,126.367 264.129,122.697 265.441,119.028 C257.909,118.114 248.844,118.204 240.138,118.498 C231.046,118.804 222.362,119.654 215.333,120.726 C212.173,130.905 208.416,140.827 205.434,151.099 C202.44,161.407 199.73,171.785 197.068,182.068 C196.666,183.623 190.384,211.956 190.005,213.518 C190.274,216.484 190.407,216.65 190.858,220.861 C192.09,232.287 198.226,229.517 199.319,225.256" id="Fill-39" fill="#FFEE4D" sketch:type="MSShapeGroup"></path>
            <path d="M117.395,202.887 C116.939,204.487 116.73,206.145 116.345,207.762 C115.678,210.571 117.167,213.623 120.026,214.408 C122.737,215.154 126.062,213.432 126.73,210.619 C127.114,209.002 127.301,207.345 127.756,205.745 C128.552,202.967 126.748,199.994 123.983,199.232 C121.176,198.46 118.28,200.136 117.488,202.913 C117.477,202.949 117.395,202.887 117.395,202.887" id="Fill-40" fill="#FFFFFF" sketch:type="MSShapeGroup"></path>
            <path d="M167.088,131.156 C157.698,129.567 148.536,130.563 139.278,132.497 C137.448,132.878 136.119,134.506 135.574,136.201 C130.419,152.26 125.36,168.263 121.262,184.632 C119.603,191.269 129.83,194.083 131.489,187.451 C135.318,172.159 139.988,157.186 144.788,142.188 C151.213,140.977 157.774,140.285 164.268,141.383 C170.958,142.513 173.822,132.293 167.088,131.156" id="Fill-41" fill="#FFFFFF" sketch:type="MSShapeGroup"></path>
            <path d="M53.4,301.949 C45.964,301.253 37.644,300.654 29.693,300.623 C21.687,300.591 13.712,300.436 6.342,301.257 C3.345,300.358 0.865,291.535 0.865,288.898 C2.955,279.731 5.718,268.727 9.413,256.358 C12.274,246.781 16.347,236.422 20.109,224.732 C23.26,214.942 25.82,204.091 29.57,192.712 C32.838,182.785 37.265,172.542 40.967,161.333 C44.281,151.298 47.094,140.415 50.74,129.304 C57.928,127.907 66.069,126.299 74.072,124.555 C81.981,122.828 89.683,121.259 97.08,120.417 C99.915,121.471 103.004,131.005 103.004,134.042 C99.874,143.431 97.304,152.763 94.403,161.863 C91.416,171.241 88.928,180.613 86.119,189.803 C83.26,199.15 79.787,208.223 77.046,217.499 C74.298,226.805 71.559,236.099 68.855,245.458 C66.181,254.716 63.589,264.053 60.892,273.488 C58.262,282.695 56.116,292.459 53.4,301.949" id="Fill-42" fill="#FF1741" sketch:type="MSShapeGroup"></path>
            <path d="M23.577,244.62 C25.864,235.37 28.56,226.223 31.011,216.942 C33.431,207.782 35.856,198.568 38.491,189.283 C41.067,180.215 43.652,171.041 46.487,161.763 C49.229,152.786 51.735,143.502 54.771,134.247 C63.143,132.621 71.965,132.174 80.686,131.938 C84.978,131.822 89.206,131.818 93.394,131.869 C94.584,128.08 95.793,124.275 97.08,120.417 C88.66,120.186 80.143,119.963 71.372,120.201 C62.651,120.435 53.829,120.882 45.458,122.509 C42.421,131.763 39.915,141.048 37.174,150.025 C34.338,159.303 31.753,168.476 29.178,177.546 C26.542,186.83 24.117,196.044 21.698,205.204 C19.247,214.484 16.549,223.632 14.264,232.882 C11.97,242.146 9.639,251.39 7.451,260.723 C5.284,269.961 2.99,279.494 0.865,288.898 C4.836,288.456 8.94,288.174 13.099,288.01 C14.327,282.785 15.565,277.577 16.764,272.46 C18.953,263.128 21.284,253.883 23.577,244.62" id="Fill-43" fill="#FFEE4D" sketch:type="MSShapeGroup"></path>
            <path d="M46.914,289.073 C49.64,279.551 52.004,269.727 54.657,260.447 C57.367,250.975 59.994,241.586 62.69,232.262 C65.409,222.856 68.54,213.618 71.31,204.256 C74.072,194.923 76.883,185.592 79.755,176.197 C82.585,166.943 85.291,157.575 88.29,148.16 C90.016,142.743 91.681,137.33 93.394,131.869 C89.206,131.818 84.978,131.822 80.686,131.938 C71.965,132.174 63.143,132.621 54.771,134.247 C51.735,143.502 49.229,152.786 46.487,161.763 C43.652,171.041 41.067,180.215 38.491,189.283 C35.856,198.568 33.431,207.782 31.011,216.942 C28.56,226.223 25.864,235.37 23.577,244.62 C21.284,253.883 18.953,263.128 16.764,272.46 C15.565,277.577 14.327,282.785 13.099,288.01 C24.332,287.566 36.02,288.05 46.914,289.073" id="Fill-44" fill="#FFD6DF" sketch:type="MSShapeGroup"></path>
            <path d="M25.99,220.356 C25.371,222.453 24.741,224.549 24.213,226.671 C23.517,229.475 25.079,232.414 27.917,233.195 C30.649,233.946 33.744,232.294 34.439,229.491 C34.967,227.368 35.597,225.273 36.217,223.176 C37.038,220.406 35.259,217.407 32.513,216.653 C29.688,215.875 26.81,217.587 25.99,220.356" id="Fill-45" fill="#FFFFFF" sketch:type="MSShapeGroup"></path>
            <path d="M73.645,129.819 L65.16,128.758 C58.5,128.758 60.891,129.676 54.38,131.07 C52.549,131.461 51.221,133.072 50.676,134.774 C43.446,157.359 36.555,180.08 30.779,203.087 C29.114,209.723 39.343,212.537 41.006,205.906 C46.508,183.992 53.027,162.338 59.881,140.812 C64.459,140.1 68.86,140.084 73.645,140.427 C80.473,140.916 80.424,129.819 73.645,129.819" id="Fill-46" fill="#FFFFFF" sketch:type="MSShapeGroup"></path>
            <path d="M1397.523,202.638 C1394.232,214.628 1391.592,223.545 1387.357,235.54 C1380.441,235.072 1370.337,234.803 1360.164,234.857 C1349.934,234.917 1339.641,235.294 1332.799,235.768 C1330.449,243.997 1328.307,251.409 1325.718,259.639 C1333.009,259.639 1343.021,258.077 1353.592,255.533 C1363.282,253.202 1371.774,245.409 1380.087,244.57 C1382.555,245.999 1386.036,253.311 1385.908,256.815 C1383.059,264.175 1380.197,271.27 1377.049,278.301 C1373.96,285.203 1370.744,292.402 1367.016,299.508 C1359.606,299.958 1351.379,300.825 1343.213,301.023 C1335.401,301.214 1327.401,300.374 1319.607,300.418 C1311.41,300.461 1303.418,300.271 1296.028,300.239 C1287.025,300.201 1278.788,301.314 1272.317,301.314 C1270.541,300.263 1265.98,292.801 1265.98,288.503 C1267.873,280.767 1272.865,277.617 1274.948,269.979 C1277.037,262.319 1277.686,254.266 1279.938,246.652 C1282.182,239.063 1285.054,231.643 1287.436,224.044 C1289.796,216.513 1291.859,208.845 1294.329,201.25 C1296.765,193.767 1300.759,186.736 1303.272,179.138 C1305.742,171.679 1306.863,163.696 1309.387,156.081 C1311.852,148.636 1314.218,140.692 1316.715,133.053 C1325.094,131.778 1334.46,130.836 1343.837,129.515 C1352.466,128.299 1361.361,126.436 1370.544,125.347 C1379.35,124.304 1388.451,124.247 1397.52,123.466 C1406.476,122.693 1413.838,117.47 1422.812,117.09 C1424.908,118.405 1429.054,126.078 1429.054,129.338 C1425.99,136.997 1422.464,144.779 1419.399,152.725 C1416.35,160.638 1413.137,168.195 1410.203,175.941 C1402.332,175.583 1391.657,175.708 1380.593,176.017 C1369.838,176.314 1359.074,177.3 1350.848,178.112 C1348.021,186.578 1344.692,195.895 1342.104,204.595 C1349.197,203.537 1358.818,201.59 1367.995,199.848 C1377.203,198.099 1385.076,191.603 1392.109,190.482 C1394.103,191.644 1397.905,199.303 1397.523,202.638" id="Fill-47" fill="#FF1741" sketch:type="MSShapeGroup"></path>
            <path d="M1288.32,252.044 C1290.277,244.07 1292.699,236.218 1294.719,228.227 C1296.727,220.296 1297.442,212.002 1299.568,204.009 C1301.661,196.129 1303.58,188.133 1305.836,180.146 C1308.047,172.325 1310.818,164.573 1313.234,156.606 C1315.587,148.85 1317.904,140.773 1320.494,132.837 C1328.949,131.551 1338.616,130.945 1348.528,130.21 C1357.583,129.541 1367.01,128.606 1376.453,128.31 C1385.918,128.014 1395.388,128.083 1404.445,128.08 C1409.229,128.079 1413.826,128.194 1418.256,128.342 C1419.784,124.569 1421.314,120.834 1422.812,117.09 C1414.337,116.842 1405.124,116.337 1395.131,116.342 C1386.076,116.345 1376.604,116.275 1367.14,116.571 C1357.698,116.868 1348.27,117.803 1339.215,118.473 C1329.302,119.207 1319.635,119.814 1311.181,121.099 C1308.59,129.036 1306.273,137.111 1303.921,144.868 C1301.507,152.835 1298.735,160.588 1296.524,168.409 C1294.264,176.395 1292.348,184.391 1290.256,192.271 C1288.131,200.264 1287.412,208.558 1285.406,216.489 C1283.383,224.48 1280.965,232.332 1279.006,240.307 C1277.049,248.281 1275.183,256.276 1273.237,264.286 C1271.305,272.238 1267.955,280.468 1265.98,288.503 C1269.636,288.503 1274.059,288.473 1278.824,288.452 C1280.187,284.278 1281.557,280.115 1282.552,276.024 C1284.497,268.015 1286.362,260.02 1288.32,252.044" id="Fill-48" fill="#FFEE4D" sketch:type="MSShapeGroup"></path>
            <path d="M1404.445,128.08 C1395.388,128.083 1385.918,128.014 1376.453,128.31 C1367.01,128.606 1357.583,129.541 1348.528,130.21 C1338.616,130.945 1328.949,131.551 1320.494,132.837 C1317.904,140.773 1315.587,148.85 1313.234,156.606 C1310.818,164.573 1308.047,172.325 1305.836,180.146 C1303.58,188.133 1301.661,196.129 1299.568,204.009 C1297.442,212.002 1296.727,220.296 1294.719,228.227 C1292.699,236.218 1290.277,244.07 1288.32,252.044 C1286.362,260.02 1284.497,268.015 1282.552,276.024 C1281.557,280.115 1280.187,284.278 1278.824,288.452 C1282.5,288.435 1286.375,288.424 1290.293,288.44 C1297.682,288.473 1305.678,287.822 1313.874,287.778 C1321.67,287.737 1329.633,287.454 1337.446,287.263 C1345.609,287.065 1353.894,287.784 1361.303,287.336 C1365.031,280.228 1368.638,273.186 1371.729,266.283 C1372.939,263.584 1374.031,260.842 1375.08,258.07 C1376.76,253.623 1378.331,249.104 1380.087,244.57 C1371.604,245.602 1360.682,247.173 1349.928,247.674 C1343.954,247.951 1338.088,247.886 1332.729,247.765 C1327.939,247.657 1323.547,247.501 1319.853,247.501 C1322.438,239.27 1324.747,231.825 1327.098,223.594 C1333.938,223.121 1344.2,222.073 1354.428,222.015 C1364.599,221.957 1375.34,223.479 1382.258,223.947 C1385.023,216.111 1386.976,209.34 1388.913,202.249 C1389.944,198.486 1390.971,194.638 1392.109,190.482 C1384.902,190.242 1374.712,190.677 1364.402,190.874 C1359.601,190.966 1354.749,191.009 1350.141,191.16 C1345.275,191.322 1340.685,191.601 1336.727,192.191 C1339.314,183.492 1342.505,174.625 1345.327,166.159 C1353.556,165.349 1364.104,163.948 1374.858,163.65 C1385.924,163.343 1396.882,163.79 1404.752,164.148 C1407.686,156.403 1410.389,148.297 1413.471,140.347 C1415.051,136.267 1416.656,132.284 1418.256,128.342 C1413.826,128.194 1409.229,128.079 1404.445,128.08" id="Fill-49" fill="#FFD6DF" sketch:type="MSShapeGroup"></path>
            <path d="M1297.903,199.281 C1297.573,200.391 1297.366,201.536 1297.073,202.657 C1296.339,205.452 1297.899,208.462 1300.71,209.235 C1303.469,209.995 1306.576,208.274 1307.311,205.479 C1307.604,204.36 1307.822,203.218 1308.156,202.108 C1308.984,199.34 1307.226,196.409 1304.484,195.657 C1301.654,194.879 1298.867,196.556 1298.037,199.323 C1298.025,199.359 1297.903,199.281 1297.903,199.281" id="Fill-50" fill="#FFFFFF" sketch:type="MSShapeGroup"></path>
            <path d="M1397,124.267 C1370,124.267 1347.035,125.002 1322.25,127.771 C1319.703,128.056 1317.728,129.225 1316.821,131.664 C1310.64,148.345 1306.483,166.318 1302.331,183.595 C1300.734,190.242 1310.805,193.063 1312.4,186.414 C1316.264,170.351 1320.016,153.699 1325.49,138.03 C1349.049,135.549 1371.182,134.873 1397,134.873 C1404,134.873 1404,124.267 1397,124.267" id="Fill-51" fill="#FFFFFF" sketch:type="MSShapeGroup"></path>
            <path d="M425.684,132.006 C423.283,140.119 421.344,148.108 419.181,155.899 C416.932,164.007 414.885,172.242 413.219,180.209 C402.259,179.747 389.492,178.985 376.9,179.685 C374.116,189.398 370.884,199.401 367.841,209.671 C364.91,219.573 361.794,229.61 358.81,239.674 C355.82,249.76 352.752,259.817 349.896,269.715 C346.917,280.036 344.898,290.675 342.273,300.398 C335.275,299.813 326.816,299.709 318.711,299.826 C310.612,299.941 302.461,300.34 295.467,300.925 C292.683,299.317 288.523,290.548 288.986,288.475 C291.731,281.191 297.613,276.447 301.189,265.361 C304.031,256.548 307.268,246.975 310.26,237.053 C313.106,227.618 316.305,218.048 318.993,208.618 C321.854,198.581 324.169,189.014 326.519,180.135 C314.859,179.436 300.644,180.457 288.986,180.92 C286.885,180.059 281.596,171.767 281.596,168.496 C284.047,155.256 294.206,141.558 299.537,128.33 C308.854,127.578 318.571,126.427 328.899,125.803 C338.571,125.219 348.534,124.496 358.536,123.882 C368.475,123.274 378.488,123.303 388.219,122.53 C398.435,121.719 408.15,120.687 417.536,119.541 C419.298,120.516 424.938,127.965 425.684,132.006" id="Fill-52" fill="#FF1741" sketch:type="MSShapeGroup"></path>
            <path d="M303.431,133.258 C313.278,132.462 323.459,131.518 334.15,131.01 C344.252,130.527 354.631,130.026 365.113,129.852 C375.402,129.681 385.789,129.904 396.101,130.077 C402.243,130.178 408.279,130.385 414.272,130.647 C415.338,126.979 416.427,123.292 417.536,119.541 C407.41,118.965 397.244,118.512 386.787,118.337 C376.475,118.166 366.088,117.942 355.8,118.113 C345.317,118.288 334.939,118.789 324.837,119.27 C314.146,119.782 303.964,120.725 294.116,121.519 C291.024,129.189 288.324,136.706 286.361,144.52 C284.327,152.622 282.901,160.661 281.596,168.496 C285.298,168.349 289.164,168.187 293.078,168.051 C293.839,164.146 294.683,160.21 295.674,156.258 C297.638,148.443 300.336,140.929 303.431,133.258" id="Fill-53" fill="#FFEE4D" sketch:type="MSShapeGroup"></path>
            <path d="M333.605,288.042 C336.231,278.316 339.184,268.156 342.161,257.835 C345.018,247.938 348.034,237.873 351.025,227.785 C354.008,217.721 357.226,207.714 360.158,197.813 C363.198,187.543 365.642,177.157 368.423,167.444 C381.018,166.744 393.559,167.097 404.519,167.56 C406.186,159.596 408.33,151.71 410.626,143.443 C411.813,139.167 413.029,134.92 414.272,130.647 C408.279,130.385 402.243,130.178 396.101,130.077 C385.789,129.904 375.402,129.681 365.113,129.852 C354.631,130.026 344.252,130.527 334.15,131.01 C323.459,131.518 313.278,132.462 303.431,133.258 C300.336,140.929 297.638,148.443 295.674,156.258 C294.683,160.21 293.839,164.146 293.078,168.051 C301.5,167.762 310.177,167.609 318.135,168.086 C317.13,171.888 319.102,164.26 318.135,168.086 C322.32,168.073 323.5,179.586 327.449,179.824 C324.854,189.629 322.428,199.445 319.955,209.633 C317.52,219.66 315.771,229.932 313.415,239.97 C311.016,250.185 308.034,260.167 305.671,270.021 C304.235,276.011 302.84,281.91 301.437,287.679 C312.224,287.191 323.59,287.205 333.605,288.042" id="Fill-54" fill="#FFD6DF" sketch:type="MSShapeGroup"></path>
            <path d="M313.415,239.97 C315.771,229.932 317.52,219.66 319.955,209.633 C322.428,199.445 324.854,189.629 327.449,179.824 C323.5,179.586 322.32,168.073 318.135,168.086 C316.606,174.127 312.155,191.657 310.64,197.894 C308.207,207.921 306.458,218.193 304.102,228.232 C301.702,238.446 298.72,248.429 296.357,258.284 C293.862,268.699 291.488,278.892 288.986,288.475 C292.962,288.142 297.155,287.873 301.437,287.679 C302.84,281.91 304.235,276.011 305.671,270.021 C308.034,260.167 311.016,250.185 313.415,239.97" id="Fill-55" fill="#FFEE4D" sketch:type="MSShapeGroup"></path>
            <path d="M318.669,203.117 C318.237,204.62 317.774,206.108 317.368,207.617 C316.616,210.406 318.319,213.451 321.116,214.22 C323.89,214.983 326.822,213.221 327.574,210.432 C327.98,208.922 328.452,207.437 328.885,205.932 C329.686,203.157 327.87,200.033 325.108,199.274 C322.297,198.5 319.5,200.344 318.7,203.119 C318.685,203.177 318.669,203.117 318.669,203.117" id="Fill-56" fill="#FFFFFF" sketch:type="MSShapeGroup"></path>
            <path d="M388.561,127.578 C371.204,126.623 353.795,125.805 336.415,126.478 C325.25,126.908 314.133,128.108 302.984,128.791 C300.419,128.948 298.777,130.341 297.871,132.684 C295.244,139.473 293.006,146.159 291.911,153.383 C290.898,160.072 302,162.946 302,156.202 L302,150.899 C303.622,145.7 304.644,143.693 306.503,139.159 C316.459,138.47 326.419,137.501 336.385,137.084 C353.759,136.354 371.207,137.231 388.553,138.184 C395.389,138.559 395.363,127.952 388.561,127.578" id="Fill-57" fill="#FFFFFF" sketch:type="MSShapeGroup"></path>
            <path d="M326.031,170.8 C324.54,175.808 323.09,180.796 321.895,185.885 C320.332,192.539 330.159,195.268 331.721,188.61 C332.916,183.521 334.522,178.554 336.014,173.547 C337.974,166.977 327.569,164.146 325.62,170.685 C325.596,170.776 326.031,170.8 326.031,170.8" id="Fill-58" fill="#FFFFFF" sketch:type="MSShapeGroup"></path>
            <path d="M536.399,394.645 L562.438,395.439 L588.124,395.215 L583.968,421.44 L580.271,448.03 L575.574,474.466 L571.472,500.766 L545.721,501.096 L519.728,501.075 C519.729,501.075 522.775,495.058 525.221,489.1 C527.67,483.144 528.333,480.706 529.308,474.128 C530.107,468.743 529.642,461.332 529.642,461.332 L528.631,447.927 C528.631,447.927 527.419,438.937 527.173,431.384 C526.779,419.355 526.916,417.998 528.279,414.061 C529.196,411.412 530.418,408.156 531.718,404.558 C533.211,400.414 536.399,394.645 536.399,394.645" id="Fill-59" fill="#FFD6DF" sketch:type="MSShapeGroup"></path>
            <path d="M828.534,345.104 L854.537,345.348 L880.492,345.256 C880.492,345.256 876.74,350.85 875.253,357.458 C873.492,365.275 873.492,365.275 871.802,372.798 C871.802,372.798 870.349,380.976 869.938,387.576 C869.529,394.175 871.962,403.099 871.962,403.099 C871.962,403.099 873.585,412.297 873.313,415 C873.045,417.701 873.205,421.101 872.369,424.461 C871.535,427.821 870.243,434.767 868.292,439.656 C866.339,444.546 863.769,450.982 863.769,450.982 L837.822,450.69 L811.66,451.328 L816.03,424.674 L820.338,398.18 L824.809,371.708 L828.534,345.104" id="Fill-60" fill="#FFEE4D" sketch:type="MSShapeGroup"></path>
            <path d="M590.082,382.68 L556.408,382.116 L553.034,405.882 L549.63,429.527 L545.348,454.672 L541.038,477.231 C541.038,477.231 556.843,488.779 562.079,493.07 C567.317,497.36 571.472,500.766 571.472,500.766 L575.779,477.661 L578.964,453.736 L582.757,429.903 L587.193,406.163 L590.082,382.68" id="Fill-61" fill="#3E2BE7" sketch:type="MSShapeGroup"></path>
            <path d="M810.096,463.578 L843.833,464.013 L847.269,440.822 L851.553,417.86 L855.085,394.772 L858.184,371.778 L843.216,358.624 L828.534,345.104 L824.574,368.842 L821.482,392.701 L816.735,416.298 L813.665,440.164 L810.096,463.578" id="Fill-62" fill="#3E2BE7" sketch:type="MSShapeGroup"></path>
            <path d="M842.104,477.101 L804.25,476.748 C804.25,476.748 778.491,476.631 766.737,476.605 C754.983,476.58 743.235,476.726 729.219,476.527 C715.201,476.326 691.699,477.051 691.699,477.051 C691.699,477.051 664.223,476.436 654.179,476.264 C644.134,476.088 623.912,475.68 616.659,475.89 C609.407,476.101 579.137,476.977 579.137,476.977 L541.038,477.231 C541.038,477.231 543.616,451.393 547.37,424.138 C551.368,395.102 557.999,371.398 557.999,371.398 L595.673,372.289 C595.673,372.289 622.254,371.96 633.186,372.374 C644.118,372.789 670.705,372.736 670.705,372.736 C670.705,372.736 702.298,372.406 708.224,372.376 C714.151,372.346 738.886,372.031 745.744,372.188 C752.606,372.346 773.894,372.876 783.264,372.786 C792.636,372.697 814.994,372.532 820.79,372.43 C826.581,372.329 858.184,371.778 858.184,371.778 C858.184,371.778 856.492,402.179 853.729,423.765 C850.97,445.35 842.104,477.101 842.104,477.101" id="Fill-63" fill="#FFFFFF" sketch:type="MSShapeGroup"></path>
            <path d="M625.269,453.793 C624.585,453.793 623.543,453.676 622.142,453.444 C620.74,453.212 619.726,453.096 619.095,453.096 L607.031,453.054 C605.989,453.054 604.394,453.184 602.246,453.444 C600.098,453.704 598.489,453.833 597.422,453.833 C597.119,453.833 596.69,453.779 596.133,453.67 C595.576,453.562 595.145,453.505 594.844,453.505 C592.381,453.505 590.869,452.506 590.308,450.507 C589.958,449.25 589.991,447.305 590.405,444.677 C591.21,439.558 593.021,435.273 595.839,431.825 C598.007,429.169 601.262,426.514 605.596,423.857 C609.675,421.421 613.738,418.999 617.786,416.59 C622.608,413.441 625.333,409.869 625.964,405.872 C626.129,404.831 625.428,403.797 623.866,402.772 C622.304,401.746 620.699,401.231 619.056,401.231 C616.153,401.231 612.879,402.525 609.227,405.111 C605.575,407.698 603.147,408.992 601.943,408.992 C600.491,408.992 599.273,408.638 598.291,407.923 C597.06,407.049 596.567,405.83 596.814,404.27 C597.078,402.6 597.989,401.163 599.547,399.958 C603.321,397.028 606.545,394.893 609.221,393.553 C613.085,391.608 616.922,390.636 620.727,390.636 C625.463,390.636 629.538,391.882 632.95,394.374 C636.855,397.221 638.443,400.943 637.718,405.543 C636.985,410.198 635.294,414.153 632.647,417.411 C630.565,420.011 627.527,422.543 623.522,425.007 C619.759,427.171 615.998,429.319 612.241,431.455 C606.503,434.849 603.101,438.723 602.032,443.075 C603.567,442.885 605.819,442.666 608.788,442.419 C614.666,442.117 618.866,441.967 621.385,441.967 C623.737,441.967 625.985,442.474 628.125,443.486 C630.774,444.746 631.943,446.361 631.631,448.332 C631.409,449.754 630.705,451 629.523,452.068 C628.274,453.218 626.854,453.793 625.269,453.793" id="Fill-64" fill="#3E2BE7" sketch:type="MSShapeGroup"></path>
            <path d="M668.275,457.961 C659.212,457.961 653.259,454.048 650.415,446.217 C648.318,440.413 647.993,432.926 649.436,423.754 C650.671,415.926 653.74,409.053 658.64,403.142 C664.521,396.05 671.596,392.505 679.866,392.505 C687.693,392.505 693.272,395.667 696.601,401.99 C699.4,407.328 700.205,413.776 699.013,421.331 C697.09,433.542 693.566,442.699 688.443,448.804 C683.32,454.907 676.596,457.961 668.275,457.961 L668.275,457.961 Z M678.139,403.182 C673.705,403.182 669.797,405.387 666.42,409.792 C663.462,413.626 661.584,418.074 660.787,423.14 C659.734,429.818 659.552,434.965 660.242,438.579 C661.347,444.409 664.585,447.326 669.951,447.326 C674.439,447.326 678.128,445.28 681.019,441.186 C683.907,437.095 686,430.954 687.292,422.77 C688.319,416.226 688.072,411.325 686.549,408.068 C685.02,404.811 682.219,403.182 678.139,403.182 L678.139,403.182 Z" id="Fill-65" fill="#3E2BE7" sketch:type="MSShapeGroup"></path>
            <path d="M733.753,454.942 L717.457,454.902 C712.284,454.902 709.954,453.273 710.466,450.015 C711.045,446.347 714.223,444.513 719.997,444.513 C720.547,444.513 721.145,444.527 721.798,444.553 L727.54,408.129 C724.898,409.772 723.223,410.593 722.512,410.593 C720.977,410.593 719.727,410.047 718.766,408.952 C717.802,407.857 717.434,406.583 717.664,405.132 C717.899,403.625 719.061,402.08 721.145,400.492 L726.317,397.124 L731.962,393.101 C734.249,391.622 736.348,390.883 738.265,390.883 C740.729,390.883 741.728,392.36 741.263,395.318 C740.749,398.577 739.889,403.16 738.684,409.074 C737.478,414.989 736.01,423.433 734.278,434.411 L732.713,444.348 L735.425,444.348 C737.011,444.348 738.265,444.856 739.188,445.868 C740.108,446.879 740.451,448.14 740.214,449.646 C739.977,451.152 739.238,452.412 737.997,453.423 C736.757,454.437 735.341,454.942 733.753,454.942" id="Fill-66" fill="#3E2BE7" sketch:type="MSShapeGroup"></path>
            <path d="M776.567,456.893 C768.189,456.893 762.485,453.91 759.459,447.941 C758.937,446.901 758.752,445.903 758.902,444.942 C759.137,443.466 759.923,442.206 761.265,441.165 C762.604,440.125 764.031,439.606 765.537,439.606 C767.069,439.606 768.29,440.181 769.205,441.331 C770.806,443.329 771.679,444.396 771.821,444.531 C773.253,445.684 775.394,446.259 778.244,446.259 C782.458,446.259 786.22,444.71 789.527,441.617 C792.708,438.634 794.631,435.02 795.302,430.777 C795.943,426.698 795.749,423.646 794.713,421.619 C793.677,419.594 791.788,418.58 789.051,418.58 C784.233,418.58 780.113,420.141 776.692,423.262 C775.335,424.576 773.966,425.876 772.588,427.163 C770.889,428.558 769.205,429.257 767.534,429.257 C765.976,429.257 764.737,428.725 763.825,427.655 C762.911,426.588 762.569,425.328 762.799,423.877 C762.896,423.247 763.503,420.867 764.621,416.732 C766.789,408.712 768.083,403.373 768.499,400.717 C768.603,400.061 768.508,399.157 768.211,398.008 C767.912,396.859 767.815,395.954 767.917,395.297 C768.134,393.929 768.995,392.887 770.506,392.176 C771.687,391.63 773.017,391.355 774.495,391.355 C775.043,391.355 775.861,391.404 776.956,391.499 C778.05,391.596 778.87,391.643 779.417,391.643 L799.164,391.684 C799.655,391.684 800.722,391.602 802.363,391.437 C804.006,391.273 805.086,391.191 805.604,391.191 C807.084,391.191 808.229,391.664 809.037,392.608 C809.849,393.553 810.135,394.764 809.901,396.242 C809.259,400.322 804.787,402.359 796.494,402.359 C795.839,402.359 795.012,402.347 794.017,402.319 C793.021,402.291 792.359,402.278 792.033,402.278 L779.795,402.278 C779.45,403.947 778.671,406.714 777.462,410.573 C781.325,408.821 785.745,407.945 790.727,407.945 C797.381,407.945 802.043,410.424 804.711,415.377 C806.94,419.458 807.569,424.589 806.595,430.777 C805.421,438.223 802.151,444.383 796.782,449.256 C791.19,454.347 784.451,456.893 776.567,456.893" id="Fill-67" fill="#3E2BE7" sketch:type="MSShapeGroup"></path>
            <path d="M609.291,57.733 C608.137,57.714 607.227,57.316 606.566,56.542 C605.905,55.767 605.658,54.83 605.831,53.731 C606.143,51.77 606.697,48.828 607.504,44.904 C608.308,40.981 608.864,38.039 609.174,36.076 C609.516,33.899 609.988,30.634 610.583,26.279 C611.183,21.923 611.652,18.658 611.999,16.479 C612.166,15.402 612.856,14.329 614.065,13.258 C615.271,12.19 616.464,11.655 617.641,11.655 C618.288,11.655 619.821,12.264 622.238,13.478 C625.049,14.93 626.726,15.746 627.268,15.923 C632.722,17.785 637.17,20.67 640.616,24.573 C644.73,29.221 646.342,34.361 645.455,39.991 C644.919,43.386 643.577,46.612 641.429,49.672 C639.268,52.791 636.587,55.291 633.389,57.173 C629.8,59.293 625.052,60.353 619.148,60.353 C617.716,60.353 616.101,60.145 614.301,59.733 C612.124,59.224 610.456,58.556 609.291,57.733 L609.291,57.733 Z M630.594,27.486 C628.881,26.29 625.096,24.406 619.245,21.835 L614.653,50.966 C615.342,51.458 616.162,51.824 617.113,52.07 C618.066,52.315 619.148,52.438 620.365,52.438 C624.603,52.438 627.734,51.85 629.766,50.672 C631.685,49.554 633.315,48.034 634.648,46.11 C635.98,44.187 636.811,42.187 637.139,40.107 C637.904,35.244 635.724,31.036 630.594,27.486 L630.594,27.486 Z" id="Fill-68" fill="#FFFFFF" sketch:type="MSShapeGroup"></path>
            <path d="M609.291,57.733 C608.137,57.714 607.227,57.316 606.566,56.542 C605.905,55.767 605.658,54.83 605.831,53.731 C606.143,51.77 606.697,48.828 607.504,44.904 C608.308,40.981 608.864,38.039 609.174,36.076 C609.516,33.899 609.988,30.634 610.583,26.279 C611.183,21.923 611.652,18.658 611.999,16.479 C612.166,15.402 612.856,14.329 614.065,13.258 C615.271,12.19 616.464,11.655 617.641,11.655 C618.288,11.655 619.821,12.264 622.238,13.478 C625.049,14.93 626.726,15.746 627.268,15.923 C632.722,17.785 637.17,20.67 640.616,24.573 C644.73,29.221 646.342,34.361 645.455,39.991 C644.919,43.386 643.577,46.612 641.429,49.672 C639.268,52.791 636.587,55.291 633.389,57.173 C629.8,59.293 625.052,60.353 619.148,60.353 C617.716,60.353 616.101,60.145 614.301,59.733 C612.124,59.224 610.456,58.556 609.291,57.733 L609.291,57.733 Z M630.594,27.486 C628.881,26.29 625.096,24.406 619.245,21.835 L614.653,50.966 C615.342,51.458 616.162,51.824 617.113,52.07 C618.066,52.315 619.148,52.438 620.365,52.438 C624.603,52.438 627.734,51.85 629.766,50.672 C631.685,49.554 633.315,48.034 634.648,46.11 C635.98,44.187 636.811,42.187 637.139,40.107 C637.904,35.244 635.724,31.036 630.594,27.486 L630.594,27.486 Z" id="Stroke-69" stroke="#FFFFFF" stroke-width="3" sketch:type="MSShapeGroup"></path>
            <path d="M668.307,34.643 C666.925,37.823 664.933,42.618 662.332,49.032 C661.61,51.25 660.901,53.457 660.2,55.653 C658.958,58.439 657.258,59.833 655.1,59.833 C653.744,59.833 652.75,59.369 652.109,58.448 C651.566,57.664 651.381,56.733 651.551,55.653 C652.05,52.476 653.338,48.602 655.412,44.031 C658.511,37.185 660.198,33.389 660.472,32.642 C661.519,29.624 662.573,26.603 663.639,23.581 C665.175,19.422 666.569,16.651 667.816,15.269 C669.062,13.886 670.472,13.195 672.042,13.195 C673.827,13.195 674.998,14.097 675.558,15.901 C676.074,17.609 676.366,21.101 676.438,26.377 C676.494,31.496 676.91,37.008 677.685,42.914 C680.839,37.086 683.926,30.692 686.948,23.727 L689.662,16.961 C691.164,14.155 693.021,12.752 695.238,12.752 C697.378,12.752 698.709,14.382 699.237,17.638 C699.459,18.952 699.533,21.405 699.458,24.993 C699.279,33.351 699.583,40.51 700.37,46.474 C701.16,52.533 701.514,55.831 701.432,56.358 C701.248,57.518 700.632,58.488 699.587,59.273 C698.616,59.979 697.589,60.332 696.508,60.332 C694.37,60.332 693.024,58.801 692.465,55.741 L691.939,48.62 C691.556,45.091 691.334,40.02 691.276,33.41 C689.982,36.039 687.867,40.166 684.94,45.797 L682.321,51.211 C681.258,53.349 680.226,55.105 679.227,56.478 C677.899,58.303 676.303,59.214 674.44,59.214 C672.598,59.214 671.354,58.126 670.717,55.948 L669.932,50.475 C669.195,45.454 668.652,40.176 668.307,34.643 L668.307,34.643 Z" id="Fill-70" fill="#FFFFFF" sketch:type="MSShapeGroup"></path>
            <path d="M668.307,34.643 C666.925,37.823 664.933,42.618 662.332,49.032 C661.61,51.25 660.901,53.457 660.2,55.653 C658.958,58.439 657.258,59.833 655.1,59.833 C653.744,59.833 652.75,59.369 652.109,58.448 C651.566,57.664 651.381,56.733 651.551,55.653 C652.05,52.476 653.338,48.602 655.412,44.031 C658.511,37.185 660.198,33.389 660.472,32.642 C661.519,29.624 662.573,26.603 663.639,23.581 C665.175,19.422 666.569,16.651 667.816,15.269 C669.062,13.886 670.472,13.195 672.042,13.195 C673.827,13.195 674.998,14.097 675.558,15.901 C676.074,17.609 676.366,21.101 676.438,26.377 C676.494,31.496 676.91,37.008 677.685,42.914 C680.839,37.086 683.926,30.692 686.948,23.727 L689.662,16.961 C691.164,14.155 693.021,12.752 695.238,12.752 C697.378,12.752 698.709,14.382 699.237,17.638 C699.459,18.952 699.533,21.405 699.458,24.993 C699.279,33.351 699.583,40.51 700.37,46.474 C701.16,52.533 701.514,55.831 701.432,56.358 C701.248,57.518 700.632,58.488 699.587,59.273 C698.616,59.979 697.589,60.332 696.508,60.332 C694.37,60.332 693.024,58.801 692.465,55.741 L691.939,48.62 C691.556,45.091 691.334,40.02 691.276,33.41 C689.982,36.039 687.867,40.166 684.94,45.797 L682.321,51.211 C681.258,53.349 680.226,55.105 679.227,56.478 C677.899,58.303 676.303,59.214 674.44,59.214 C672.598,59.214 671.354,58.126 670.717,55.948 L669.932,50.475 C669.195,45.454 668.652,40.176 668.307,34.643 L668.307,34.643 Z" id="Stroke-71" stroke="#FFFFFF" stroke-width="3" sketch:type="MSShapeGroup"></path>
            <path d="M745.97,21.576 C745.614,21.576 745.058,21.542 744.297,21.474 C743.533,21.405 742.915,21.371 742.442,21.371 L740.147,21.371 C740.141,21.038 740.107,21.733 740.036,23.46 C739.479,37.505 738.079,47.733 735.84,54.149 C734.202,58.875 731.469,61.239 727.643,61.239 C723.992,61.239 720.435,59.985 716.963,57.473 C713.037,54.669 711.148,51.372 711.298,47.588 C711.421,44.527 712.863,42.998 715.632,42.998 C718.396,42.998 719.716,44.508 719.598,47.528 C719.551,48.687 720.496,49.927 722.436,51.251 C724.373,52.575 726.216,53.237 727.962,53.237 C728.669,53.237 729.23,51.932 729.649,49.324 C729.751,48.696 730.09,45.646 730.659,40.173 C731.135,35.7 731.5,30.129 731.769,23.46 C731.779,23.184 731.777,22.548 731.758,21.548 L731.08,21.576 C730.214,21.617 729.057,21.606 727.61,21.548 C725.864,21.469 724.711,21.429 724.141,21.429 C722.984,21.429 722.018,21.077 721.241,20.369 C720.405,19.605 720.015,18.616 720.064,17.398 C720.169,14.731 721.979,13.396 725.491,13.396 C726.156,13.396 727.145,13.421 728.461,13.471 C729.773,13.519 730.754,13.546 731.399,13.546 C732.635,13.546 734.487,13.475 736.953,13.337 C739.42,13.201 741.275,13.133 742.507,13.133 C747.766,13.133 750.335,14.593 750.22,17.516 C750.178,18.537 749.789,19.449 749.049,20.252 C748.21,21.135 747.185,21.576 745.97,21.576 L745.97,21.576 Z" id="Fill-72" fill="#FFFFFF" sketch:type="MSShapeGroup"></path>
            <path d="M745.97,21.576 C745.614,21.576 745.058,21.542 744.297,21.474 C743.533,21.405 742.915,21.371 742.442,21.371 L740.147,21.371 C740.141,21.038 740.107,21.733 740.036,23.46 C739.479,37.505 738.079,47.733 735.84,54.149 C734.202,58.875 731.469,61.239 727.643,61.239 C723.992,61.239 720.435,59.985 716.963,57.473 C713.037,54.669 711.148,51.372 711.298,47.588 C711.421,44.527 712.863,42.998 715.632,42.998 C718.396,42.998 719.716,44.508 719.598,47.528 C719.551,48.687 720.496,49.927 722.436,51.251 C724.373,52.575 726.216,53.237 727.962,53.237 C728.669,53.237 729.23,51.932 729.649,49.324 C729.751,48.696 730.09,45.646 730.659,40.173 C731.135,35.7 731.5,30.129 731.769,23.46 C731.779,23.184 731.777,22.548 731.758,21.548 L731.08,21.576 C730.214,21.617 729.057,21.606 727.61,21.548 C725.864,21.469 724.711,21.429 724.141,21.429 C722.984,21.429 722.018,21.077 721.241,20.369 C720.405,19.605 720.015,18.616 720.064,17.398 C720.169,14.731 721.979,13.396 725.491,13.396 C726.156,13.396 727.145,13.421 728.461,13.471 C729.773,13.519 730.754,13.546 731.399,13.546 C732.635,13.546 734.487,13.475 736.953,13.337 C739.42,13.201 741.275,13.133 742.507,13.133 C747.766,13.133 750.335,14.593 750.22,17.516 C750.178,18.537 749.789,19.449 749.049,20.252 C748.21,21.135 747.185,21.576 745.97,21.576 L745.97,21.576 Z" id="Stroke-73" stroke="#FFFFFF" stroke-width="3" sketch:type="MSShapeGroup"></path>
            <path d="M799.077,19.605 C796.022,22.566 793.633,25.039 791.909,27.019 C790.073,29.197 787.182,32.366 783.231,36.523 C784.839,39.389 786.445,42.262 788.053,45.145 C789.953,48.499 791.705,51.276 793.299,53.473 C793.894,54.297 794.117,55.179 793.971,56.121 C793.798,57.22 793.231,58.172 792.271,58.974 C791.31,59.778 790.262,60.18 789.124,60.18 C787.183,60.18 784.992,57.946 782.56,53.473 C781.92,52.177 780.918,50.255 779.557,47.707 C778.91,46.567 777.932,44.871 776.619,42.615 C773.778,45.341 770.19,48.696 765.854,52.677 C764.468,54.012 762.347,55.954 759.491,58.504 C758.501,59.329 757.445,59.741 756.325,59.741 C755.187,59.741 754.258,59.342 753.541,58.548 C752.824,57.754 752.552,56.807 752.724,55.707 C752.873,54.767 753.352,53.904 754.161,53.12 C755.558,51.865 757.639,49.971 760.414,47.44 C763.441,44.656 767.506,40.83 772.607,35.966 C771.022,33.455 769.328,30.944 767.529,28.432 C767.383,28.237 766.487,26.805 764.852,24.136 C763.773,22.39 762.739,21.072 761.75,20.178 C760.766,19.286 760.366,18.232 760.558,17.016 C760.722,15.975 761.267,15.04 762.193,14.207 C763.118,13.372 764.18,12.955 765.378,12.955 C766.435,12.955 767.71,13.7 769.204,15.192 C770.283,16.29 771.15,17.393 771.798,18.501 C772.449,19.61 773.424,21.203 774.724,23.283 C776.269,25.422 777.74,27.59 779.142,29.786 C782.127,26.529 785.103,23.273 788.067,20.018 C792.615,15.309 795.586,12.955 796.979,12.955 C798.118,12.955 799.045,13.352 799.763,14.148 C800.482,14.941 800.753,15.889 800.581,16.988 C800.434,17.907 799.935,18.782 799.077,19.605 L799.077,19.605 Z" id="Fill-74" fill="#FFFFFF" sketch:type="MSShapeGroup"></path>
            <path d="M799.077,19.605 C796.022,22.566 793.633,25.039 791.909,27.019 C790.073,29.197 787.182,32.366 783.231,36.523 C784.839,39.389 786.445,42.262 788.053,45.145 C789.953,48.499 791.705,51.276 793.299,53.473 C793.894,54.297 794.117,55.179 793.971,56.121 C793.798,57.22 793.231,58.172 792.271,58.974 C791.31,59.778 790.262,60.18 789.124,60.18 C787.183,60.18 784.992,57.946 782.56,53.473 C781.92,52.177 780.918,50.255 779.557,47.707 C778.91,46.567 777.932,44.871 776.619,42.615 C773.778,45.341 770.19,48.696 765.854,52.677 C764.468,54.012 762.347,55.954 759.491,58.504 C758.501,59.329 757.445,59.741 756.325,59.741 C755.187,59.741 754.258,59.342 753.541,58.548 C752.824,57.754 752.552,56.807 752.724,55.707 C752.873,54.767 753.352,53.904 754.161,53.12 C755.558,51.865 757.639,49.971 760.414,47.44 C763.441,44.656 767.506,40.83 772.607,35.966 C771.022,33.455 769.328,30.944 767.529,28.432 C767.383,28.237 766.487,26.805 764.852,24.136 C763.773,22.39 762.739,21.072 761.75,20.178 C760.766,19.286 760.366,18.232 760.558,17.016 C760.722,15.975 761.267,15.04 762.193,14.207 C763.118,13.372 764.18,12.955 765.378,12.955 C766.435,12.955 767.71,13.7 769.204,15.192 C770.283,16.29 771.15,17.393 771.798,18.501 C772.449,19.61 773.424,21.203 774.724,23.283 C776.269,25.422 777.74,27.59 779.142,29.786 C782.127,26.529 785.103,23.273 788.067,20.018 C792.615,15.309 795.586,12.955 796.979,12.955 C798.118,12.955 799.045,13.352 799.763,14.148 C800.482,14.941 800.753,15.889 800.581,16.988 C800.434,17.907 799.935,18.782 799.077,19.605 L799.077,19.605 Z" id="Stroke-75" stroke="#FFFFFF" stroke-width="3" sketch:type="MSShapeGroup"></path>
            <path d="M605.168,55.043 C604.014,55.023 603.103,54.626 602.443,53.852 C601.78,53.077 601.534,52.14 601.708,51.042 C602.019,49.08 602.574,46.138 603.38,42.214 C604.183,38.292 604.741,35.349 605.05,33.387 C605.393,31.211 605.864,27.944 606.461,23.589 C607.06,19.233 607.529,15.969 607.876,13.79 C608.043,12.711 608.732,11.639 609.941,10.567 C611.148,9.499 612.341,8.964 613.517,8.964 C614.165,8.964 615.698,9.574 618.115,10.788 C620.925,12.24 622.602,13.055 623.144,13.232 C628.599,15.095 633.049,17.978 636.493,21.882 C640.607,26.531 642.219,31.671 641.332,37.301 C640.796,40.695 639.452,43.92 637.305,46.982 C635.144,50.1 632.464,52.601 629.265,54.484 C625.677,56.603 620.928,57.662 615.025,57.662 C613.593,57.662 611.977,57.455 610.178,57.043 C608.001,56.534 606.333,55.867 605.168,55.043 L605.168,55.043 Z M626.471,24.795 C624.758,23.599 620.973,21.716 615.122,19.144 L610.529,48.276 C611.219,48.767 612.038,49.135 612.989,49.379 C613.942,49.625 615.025,49.748 616.242,49.748 C620.48,49.748 623.611,49.159 625.642,47.981 C627.563,46.863 629.193,45.342 630.525,43.421 C631.857,41.498 632.688,39.497 633.015,37.417 C633.781,32.554 631.601,28.345 626.471,24.795 L626.471,24.795 Z" id="Fill-76" fill="#3E2BE7" sketch:type="MSShapeGroup"></path>
            <path d="M605.168,55.043 C604.014,55.023 603.103,54.626 602.443,53.852 C601.78,53.077 601.534,52.14 601.708,51.042 C602.019,49.08 602.574,46.138 603.38,42.214 C604.183,38.292 604.741,35.349 605.05,33.387 C605.393,31.211 605.864,27.944 606.461,23.589 C607.06,19.233 607.529,15.969 607.876,13.79 C608.043,12.711 608.732,11.639 609.941,10.567 C611.148,9.499 612.341,8.964 613.517,8.964 C614.165,8.964 615.698,9.574 618.115,10.788 C620.925,12.24 622.602,13.055 623.144,13.232 C628.599,15.095 633.049,17.978 636.493,21.882 C640.607,26.531 642.219,31.671 641.332,37.301 C640.796,40.695 639.452,43.92 637.305,46.982 C635.144,50.1 632.464,52.601 629.265,54.484 C625.677,56.603 620.928,57.662 615.025,57.662 C613.593,57.662 611.977,57.455 610.178,57.043 C608.001,56.534 606.333,55.867 605.168,55.043 L605.168,55.043 Z M626.471,24.795 C624.758,23.599 620.973,21.716 615.122,19.144 L610.529,48.276 C611.219,48.767 612.038,49.135 612.989,49.379 C613.942,49.625 615.025,49.748 616.242,49.748 C620.48,49.748 623.611,49.159 625.642,47.981 C627.563,46.863 629.193,45.342 630.525,43.421 C631.857,41.498 632.688,39.497 633.015,37.417 C633.781,32.554 631.601,28.345 626.471,24.795 L626.471,24.795 Z" id="Stroke-77" stroke="#3E2BE7" stroke-width="3" sketch:type="MSShapeGroup"></path>
            <path d="M664.184,31.954 C662.802,35.132 660.809,39.929 658.209,46.344 C657.486,48.561 656.779,50.767 656.077,52.964 C654.835,55.75 653.134,57.143 650.976,57.143 C649.622,57.143 648.626,56.679 647.986,55.758 C647.443,54.973 647.257,54.043 647.427,52.964 C647.927,49.786 649.215,45.912 651.288,41.342 C654.388,34.495 656.075,30.7 656.35,29.954 C657.395,26.934 658.451,23.913 659.515,20.892 C661.051,16.733 662.446,13.962 663.692,12.579 C664.939,11.197 666.349,10.504 667.918,10.504 C669.703,10.504 670.874,11.408 671.434,13.212 C671.95,14.919 672.243,18.411 672.315,23.687 C672.37,28.806 672.787,34.317 673.561,40.224 C676.716,34.396 679.804,28.003 682.824,21.038 L685.538,14.271 C687.04,11.464 688.897,10.062 691.115,10.062 C693.254,10.062 694.586,11.691 695.113,14.949 C695.337,16.262 695.41,18.714 695.334,22.303 C695.154,30.661 695.459,37.821 696.246,43.783 C697.039,49.844 697.39,53.141 697.309,53.67 C697.125,54.828 696.508,55.798 695.467,56.583 C694.492,57.289 693.465,57.641 692.386,57.641 C690.248,57.641 688.898,56.112 688.342,53.051 L687.817,45.931 C687.433,42.402 687.212,37.33 687.153,30.719 C685.857,33.348 683.745,37.478 680.817,43.107 L678.198,48.521 C677.136,50.659 676.103,52.414 675.103,53.789 C673.776,55.613 672.179,56.523 670.318,56.523 C668.474,56.523 667.23,55.437 666.594,53.259 L665.809,47.784 C665.072,42.763 664.528,37.487 664.184,31.954 L664.184,31.954 Z" id="Fill-78" fill="#3E2BE7" sketch:type="MSShapeGroup"></path>
            <path d="M664.184,31.954 C662.802,35.132 660.809,39.929 658.209,46.344 C657.486,48.561 656.779,50.767 656.077,52.964 C654.835,55.75 653.134,57.143 650.976,57.143 C649.622,57.143 648.626,56.679 647.986,55.758 C647.443,54.973 647.257,54.043 647.427,52.964 C647.927,49.786 649.215,45.912 651.288,41.342 C654.388,34.495 656.075,30.7 656.35,29.954 C657.395,26.934 658.451,23.913 659.515,20.892 C661.051,16.733 662.446,13.962 663.692,12.579 C664.939,11.197 666.349,10.504 667.918,10.504 C669.703,10.504 670.874,11.408 671.434,13.212 C671.95,14.919 672.243,18.411 672.315,23.687 C672.37,28.806 672.787,34.317 673.561,40.224 C676.716,34.396 679.804,28.003 682.824,21.038 L685.538,14.271 C687.04,11.464 688.897,10.062 691.115,10.062 C693.254,10.062 694.586,11.691 695.113,14.949 C695.337,16.262 695.41,18.714 695.334,22.303 C695.154,30.661 695.459,37.821 696.246,43.783 C697.039,49.844 697.39,53.141 697.309,53.67 C697.125,54.828 696.508,55.798 695.467,56.583 C694.492,57.289 693.465,57.641 692.386,57.641 C690.248,57.641 688.898,56.112 688.342,53.051 L687.817,45.931 C687.433,42.402 687.212,37.33 687.153,30.719 C685.857,33.348 683.745,37.478 680.817,43.107 L678.198,48.521 C677.136,50.659 676.103,52.414 675.103,53.789 C673.776,55.613 672.179,56.523 670.318,56.523 C668.474,56.523 667.23,55.437 666.594,53.259 L665.809,47.784 C665.072,42.763 664.528,37.487 664.184,31.954 L664.184,31.954 Z" id="Stroke-79" stroke="#3E2BE7" stroke-width="3" sketch:type="MSShapeGroup"></path>
            <path d="M741.846,18.887 C741.491,18.887 740.935,18.854 740.171,18.783 C739.408,18.715 738.793,18.682 738.321,18.682 L736.024,18.682 C736.019,18.348 735.983,19.043 735.913,20.77 C735.356,34.815 733.954,45.045 731.716,51.46 C730.078,56.185 727.345,58.551 723.519,58.551 C719.873,58.551 716.312,57.295 712.84,54.783 C708.911,51.979 707.024,48.683 707.175,44.897 C707.298,41.837 708.741,40.307 711.508,40.307 C714.272,40.307 715.593,41.817 715.475,44.838 C715.428,45.997 716.372,47.237 718.312,48.561 C720.249,49.885 722.091,50.548 723.839,50.548 C724.546,50.548 725.107,49.243 725.526,46.634 C725.627,46.007 725.965,42.957 726.537,37.483 C727.012,33.01 727.378,27.438 727.644,20.77 C727.656,20.494 727.651,19.857 727.633,18.858 L726.956,18.887 C726.09,18.927 724.933,18.916 723.486,18.858 C721.742,18.78 720.587,18.739 720.019,18.739 C718.86,18.739 717.894,18.387 717.118,17.679 C716.283,16.915 715.891,15.926 715.941,14.708 C716.046,12.041 717.856,10.706 721.368,10.706 C722.035,10.706 723.023,10.731 724.337,10.78 C725.646,10.829 726.63,10.854 727.275,10.854 C728.513,10.854 730.362,10.787 732.83,10.648 C735.297,10.511 737.15,10.443 738.387,10.443 C743.642,10.443 746.214,11.904 746.097,14.827 C746.055,15.848 745.666,16.758 744.925,17.564 C744.087,18.444 743.061,18.887 741.846,18.887 L741.846,18.887 Z" id="Fill-80" fill="#3E2BE7" sketch:type="MSShapeGroup"></path>
            <path d="M741.846,18.887 C741.491,18.887 740.935,18.854 740.171,18.783 C739.408,18.715 738.793,18.682 738.321,18.682 L736.024,18.682 C736.019,18.348 735.983,19.043 735.913,20.77 C735.356,34.815 733.954,45.045 731.716,51.46 C730.078,56.185 727.345,58.551 723.519,58.551 C719.873,58.551 716.312,57.295 712.84,54.783 C708.911,51.979 707.024,48.683 707.175,44.897 C707.298,41.837 708.741,40.307 711.508,40.307 C714.272,40.307 715.593,41.817 715.475,44.838 C715.428,45.997 716.372,47.237 718.312,48.561 C720.249,49.885 722.091,50.548 723.839,50.548 C724.546,50.548 725.107,49.243 725.526,46.634 C725.627,46.007 725.965,42.957 726.537,37.483 C727.012,33.01 727.378,27.438 727.644,20.77 C727.656,20.494 727.651,19.857 727.633,18.858 L726.956,18.887 C726.09,18.927 724.933,18.916 723.486,18.858 C721.742,18.78 720.587,18.739 720.019,18.739 C718.86,18.739 717.894,18.387 717.118,17.679 C716.283,16.915 715.891,15.926 715.941,14.708 C716.046,12.041 717.856,10.706 721.368,10.706 C722.035,10.706 723.023,10.731 724.337,10.78 C725.646,10.829 726.63,10.854 727.275,10.854 C728.513,10.854 730.362,10.787 732.83,10.648 C735.297,10.511 737.15,10.443 738.387,10.443 C743.642,10.443 746.214,11.904 746.097,14.827 C746.055,15.848 745.666,16.758 744.925,17.564 C744.087,18.444 743.061,18.887 741.846,18.887 L741.846,18.887 Z" id="Stroke-81" stroke="#3E2BE7" stroke-width="3" sketch:type="MSShapeGroup"></path>
            <path d="M794.953,16.915 C791.899,19.877 789.51,22.349 787.785,24.329 C785.95,26.507 783.06,29.675 779.107,33.833 C780.715,36.699 782.322,39.572 783.93,42.456 C785.829,45.81 787.582,48.587 789.176,50.782 C789.77,51.606 789.995,52.489 789.849,53.432 C789.675,54.53 789.107,55.481 788.147,56.284 C787.186,57.089 786.139,57.491 785.001,57.491 C783.06,57.491 780.872,55.255 778.435,50.782 C777.796,49.487 776.795,47.566 775.434,45.017 C774.787,43.878 773.808,42.182 772.496,39.926 C769.655,42.652 766.065,46.007 761.729,49.987 C760.345,51.323 758.224,53.264 755.369,55.813 C754.377,56.638 753.322,57.051 752.203,57.051 C751.065,57.051 750.136,56.653 749.418,55.859 C748.703,55.064 748.429,54.116 748.602,53.017 C748.748,52.077 749.229,51.214 750.039,50.43 C751.435,49.176 753.516,47.281 756.29,44.75 C759.318,41.966 763.383,38.14 768.484,33.275 C766.897,30.764 765.204,28.255 763.406,25.741 C763.258,25.547 762.363,24.115 760.729,21.447 C759.648,19.7 758.616,18.381 757.629,17.489 C756.643,16.597 756.244,15.543 756.434,14.328 C756.602,13.286 757.144,12.349 758.07,11.517 C758.995,10.683 760.055,10.267 761.254,10.267 C762.312,10.267 763.586,11.01 765.081,12.502 C766.159,13.601 767.027,14.703 767.675,15.812 C768.325,16.92 769.301,18.515 770.602,20.593 C772.148,22.732 773.619,24.899 775.019,27.097 C778.004,23.841 780.979,20.584 783.943,17.328 C788.493,12.62 791.462,10.267 792.855,10.267 C793.993,10.267 794.92,10.663 795.64,11.457 C796.358,12.251 796.629,13.199 796.457,14.296 C796.31,15.217 795.81,16.092 794.953,16.915 L794.953,16.915 Z" id="Fill-82" fill="#3E2BE7" sketch:type="MSShapeGroup"></path>
            <path d="M794.953,16.915 C791.899,19.877 789.51,22.349 787.785,24.329 C785.95,26.507 783.06,29.675 779.107,33.833 C780.715,36.699 782.322,39.572 783.93,42.456 C785.829,45.81 787.582,48.587 789.176,50.782 C789.77,51.606 789.995,52.489 789.849,53.432 C789.675,54.53 789.107,55.481 788.147,56.284 C787.186,57.089 786.139,57.491 785.001,57.491 C783.06,57.491 780.872,55.255 778.435,50.782 C777.796,49.487 776.795,47.566 775.434,45.017 C774.787,43.878 773.808,42.182 772.496,39.926 C769.655,42.652 766.065,46.007 761.729,49.987 C760.345,51.323 758.224,53.264 755.369,55.813 C754.377,56.638 753.322,57.051 752.203,57.051 C751.065,57.051 750.136,56.653 749.418,55.859 C748.703,55.064 748.429,54.116 748.602,53.017 C748.748,52.077 749.229,51.214 750.039,50.43 C751.435,49.176 753.516,47.281 756.29,44.75 C759.318,41.966 763.383,38.14 768.484,33.275 C766.897,30.764 765.204,28.255 763.406,25.741 C763.258,25.547 762.363,24.115 760.729,21.447 C759.648,19.7 758.616,18.381 757.629,17.489 C756.643,16.597 756.244,15.543 756.434,14.328 C756.602,13.286 757.144,12.349 758.07,11.517 C758.995,10.683 760.055,10.267 761.254,10.267 C762.312,10.267 763.586,11.01 765.081,12.502 C766.159,13.601 767.027,14.703 767.675,15.812 C768.325,16.92 769.301,18.515 770.602,20.593 C772.148,22.732 773.619,24.899 775.019,27.097 C778.004,23.841 780.979,20.584 783.943,17.328 C788.493,12.62 791.462,10.267 792.855,10.267 C793.993,10.267 794.92,10.663 795.64,11.457 C796.358,12.251 796.629,13.199 796.457,14.296 C796.31,15.217 795.81,16.092 794.953,16.915 L794.953,16.915 Z" id="Stroke-83" stroke="#3E2BE7" stroke-width="3" sketch:type="MSShapeGroup"></path>
        </g>
    </g>
</svg>