<?xml version="1.0" encoding="utf-8"?>
<!-- Generator: Adobe Illustrator 19.0.1, SVG Export Plug-In . SVG Version: 6.00 Build 0)  -->
<svg version="1.1" xmlns="http://www.w3.org/2000/svg" xmlns:xlink="http://www.w3.org/1999/xlink" x="0px" y="0px" width="680px"
	 height="315px" viewBox="0 0 680 315" enable-background="new 0 0 680 315" xml:space="preserve">
<g id="Frame">
</g>
<g id="Art">
	<g>
		<defs>
			<rect id="SVGID_7_" x="0" y="0" width="680" height="315"/>
		</defs>
		<clipPath id="SVGID_2_">
			<use xlink:href="#SVGID_7_"  overflow="visible"/>
		</clipPath>
		<g clip-path="url(#SVGID_2_)">
			<rect x="0" y="0" fill-rule="evenodd" clip-rule="evenodd" fill="#FF3452" width="680" height="315"/>
			<g>
				<g>
					<path fill="#5049EA" d="M670,10v295H10V10H670 M680,0H0v315h680V0L680,0z"/>
				</g>
			</g>
			<g>
				<g>
					<path fill="#FFFFFF" d="M432.3,94c1.8-0.2,3.6-0.5,5.4-0.7c10.1-1.4,18.8-5.9,21.7-16.5c2.9-10.7-2.2-19.2-10.3-25.4
						c-3.8-2.9-7.7-5.9-11.5-8.8C431.8,56.3,426,70,420.2,83.7c7.6,1.9,14.7,4,22.6,3.5c11.3-0.6,23.7-9.8,22.5-22.5
						c-0.7-7.2-1.6-14-7.2-19.3c-1.9-1.8-3.9-3.6-5.8-5.5c-4.1-3.9-8.3-7.8-12.4-11.7C434.6,41,429.3,53.8,424,66.6
						c5.1-0.7,10.2-1.2,15.2-2.7c-5.8-0.8-11.6-1.5-17.3-2.3c3.6,2.3,7.2,4.5,10.8,6.8c12.7,8,28.8,0,33.1-13.4
						c0.3-1.1,0.7-2.2,1-3.2c-11,4.5-22,9-33.1,13.4c1.9,1,3.7,1.9,5.6,2.9c7.2,3.7,15.5,4.2,22.7,0c7.9-4.6,14.1-16.2,10.3-25.4
						c-1.7-4.1-3.3-8.2-5-12.2c-0.3-0.7-0.5-1.3-0.8-2c-0.3-0.8,1,8.8,0.5,3.9c-0.3-2.4-0.5-4.8-0.8-7.2
						c-12.8,5.3-25.6,10.6-38.4,15.9c4.9,6.3,9.9,12.6,14.8,18.9c6.1,7.8,19.3,8.2,27.3,3.5c11.1-6.5,13.6-19.8,8.1-30.8
						c-3.3-6.6-6.6-13.2-10-19.8c-11.8,9.1-23.6,18.2-35.3,27.3c6.3,5,12.6,10,19,14.9c4.9,3.9,9.4,6.6,15.9,6.6
						c8.2,0,15.1-4.4,19.4-11.1c1.2-1.9,2.4-3.7,3.5-5.6c6.4-10,2.5-25.2-8.1-30.8c-9.2-4.9-17.8-10-28-12.3c0,14.5,0,28.9,0,43.4
						c3.2-1,6.5-2.1,9.7-3.1c12.2-3.9,18.3-15.3,15.7-27.7c-0.2-0.9-0.4-1.7-0.5-2.6c0,4,0,8,0,12c1.1-3,2.2-6,3.2-8.9
						c2.1-5.8-0.3-14.2-1.2-20.5c-1-7.5-8.9-13.8-15.7-15.7c-9.5-2.6-20.6,1.5-25.4,10.3c-3.6,6.7-7.3,13.5-10.9,20.2
						c13,0,25.9,0,38.9,0c-2.6-3.5-5.1-7-7.7-10.5c-2.7,10.3-5.4,20.5-8.1,30.8c3.1-1.4,6.2-2.8,9.3-4.2c4-1.8,7.2-4.7,10.5-7.5
						c-11.8-1.5-23.6-3-35.3-4.6c0.7,1.3,1.4,2.7,2.1,4c2.6,5,8.1,8.9,13.4,10.3c8.3,2.3,15.5-0.5,21.9-5.8c1.1-0.9,2.1-1.8,3.2-2.6
						c-12.8-5.3-25.6-10.6-38.4-15.9c0.3,7.9,0.7,15.8,1,23.6c0.4,10.1,6.6,19,16.5,21.7c12.6,3.5,23.4-4.2,27.7-15.7
						c1.4-3.6,2.7-7.2,4.1-10.8c-3.4,4.5-6.9,9-10.3,13.4c4.5-2.7,8.2-5.6,11.3-10c1-1.4,2-2.8,3-4.2c5.8-8.2,3.2-20.6-3.5-27.3
						c-7.1-7.1-18.6-8.7-27.3-3.5c-2.7,1.6-5.4,3.2-8,4.7c-9.7,5.7-15.4,20.9-8.1,30.8c2.9,4,5.9,8,8.8,11.9
						c3.6,4.9,7.3,8.7,13.4,10.3c7.8,2.1,16.2-0.1,21.9-5.8c3.6-3.6,7.3-7.2,10.9-10.8C489.9,21.3,479.3,10.6,468.7,0
						c-3.5,4-7,8-10.5,12c12.5,3.3,25.1,6.6,37.6,9.9c-1.3-8.5-2.6-17.1-3.9-25.6c-12.5,7.3-25.1,14.6-37.6,21.9
						c5.5,6.4,10.9,12.8,16.4,19.1c6.5,7.6,19.1,8.3,27.3,3.5c9.5-5.5,11.9-15.3,10.3-25.4c-1.4-9.1-3.8-17.2-6.9-25.9
						C488.8-3,476.3,4.3,463.7,11.6c3.3,3.7,6.6,7.3,9.9,11c4.5,5-4.3-6.6-0.7-0.8c1.2,2,2.4,4,3.7,6c5.3,8.6,15.5,13.1,25.4,10.3
						c9.3-2.6,17-11.8,16.5-21.7c-0.4-7.6-0.7-15.2-1.1-22.8c-14.7,2-29.5,4-44.2,6c2.4,7.9,4.9,15.8,7.3,23.8
						c2.9,9.6,11.5,16.5,21.7,16.5c12.1,0,22.8-10.2,22.5-22.5c-0.2-9.3-0.4-18.5-0.6-27.8c-14,3.8-28,7.6-41.9,11.4
						c1.3,2,2.7,3.9,4,5.9c1.7,2.5-2.8-7.6-1.7-4c0.3,1,0.6,2.1,0.9,3.1c1.4,4.9,2.9,9.8,4.3,14.7c5.3,17.9,31.8,23.2,41.1,5.4
						c3.4-6.6,5.6-12.9,7.4-20.1c-11,4.5-22,9-33.1,13.4c1.2,0.8,2.4,1.7,3.6,2.5c11,7.6,31,0.5,33.1-13.4c0.7-5,1.5-9.9,2.2-14.9
						c-14.5,0-28.9,0-43.4,0c2.1,5.9,3.9,12.4,6.8,18c2.6,4.8,4.9,9.6,7.3,14.5c4.3,9,16.3,12.8,25.4,10.3
						c10.2-2.8,15.7-11.6,16.5-21.7c0.8-9.2,1.5-18.4,2.3-27.6c1-12.2-11-22.5-22.5-22.5c-13,0-21.5,10.3-22.5,22.5
						c-0.8,9.2-1.5,18.4-2.3,27.6c14-3.8,28-7.6,41.9-11.4c-2.1-4.5-4.3-8.9-6.6-13.3c-2.4-4.4,1.7,4.5,1.3,3.4
						c-0.5-1.3-0.9-2.6-1.4-3.9c-0.9-2.6-1.9-5.3-2.8-7.9c-3.4-9.5-11.1-16.5-21.7-16.5c-9.1,0-20.3,6.8-21.7,16.5
						c-0.7,5-1.5,9.9-2.2,14.9c11-4.5,22-9,33.1-13.4c-1.2-0.8-2.4-1.7-3.6-2.5c-12-8.3-29.6,0.1-33.1,13.4c-0.7,2.6-1.3,5.2-2,7.8
						c-1.3,5.2,3.4-6.8,1.1-2.4c-0.7,1.3-1.3,2.6-2,3.9c13.7,1.8,27.4,3.6,41.1,5.4c-1.4-4.9-2.9-9.8-4.3-14.7
						c-1.7-5.9-4.4-10.7-7.8-15.8c-5.7-8.4-15.2-13.2-25.4-10.3c-9.5,2.6-16.7,11.7-16.5,21.7c0.2,9.3,0.4,18.5,0.6,27.8
						c14.7-2,29.5-4,44.2-6c-2.4-7.9-4.9-15.8-7.3-23.8c-2.9-9.6-11.5-16.5-21.7-16.5c-11.8,0-23.1,10.2-22.5,22.5
						c0.4,7.6,0.7,15.2,1.1,22.8c14-3.8,28-7.6,41.9-11.4c-5.8-9.4-12.6-17.2-20-25.3c-14.8-16.3-45.1,0.6-37.6,21.9
						c3.1,8.7,5.5,16.8,6.9,25.9c12.5-7.3,25.1-14.6,37.6-21.9C497-0.7,491.5-7.1,486-13.5c-6.5-7.6-19.1-8.3-27.3-3.5
						c-9.5,5.5-11.9,15.3-10.3,25.4c1.3,8.5,2.6,17.1,3.9,25.6c2.5,16.5,27.2,21.9,37.6,9.9c3.5-4,7-8,10.5-12
						c8.1-9.2,9.1-22.7,0-31.8c-8.7-8.7-23.1-8.6-31.8,0c-3.6,3.6-7.3,7.2-10.9,10.8c11.8,1.5,23.6,3,35.3,4.6
						c-2.9-4-5.9-8-8.8-11.9c-2.7,10.3-5.4,20.5-8.1,30.8c2.7-1.6,5.4-3.2,8-4.7C474,19.2,463.7,8.9,453.5-1.3c-1,1.4-2,2.8-3,4.2
						c2.7-2.7,5.4-5.4,8.1-8.1c-1.1,0.7-2.2,1.3-3.2,2c-5.9,3.5-8.5,8.7-10.9,14.8c-1.2,3.1-2.4,6.3-3.5,9.4c14.7,2,29.5,4,44.2,6
						c-0.3-7.9-0.7-15.8-1-23.6c-0.3-8-4.1-15.3-11.1-19.4c-9.4-5.5-19.4-3-27.3,3.5c-1.1,0.9-2.1,1.8-3.2,2.6
						c11.8,1.5,23.6,3,35.3,4.6c-0.7-1.3-1.4-2.7-2.1-4c-2.6-5-8.1-8.9-13.4-10.3c-8.3-2.3-15.6,0.5-21.9,5.8
						c-1.1,0.9-2.1,1.8-3.2,2.7c6.9-5.7,4.1-3.2,1-1.8c-2.8,1.3-5.7,2.6-8.5,3.9c-10.4,4.7-14.8,21.6-8.1,30.8
						c2.6,3.5,5.1,7,7.7,10.5c4.8,6.6,10.9,11.1,19.4,11.1c7.7,0,15.7-4.2,19.4-11.1c3.6-6.7,7.3-13.5,10.9-20.2
						c-13.7-1.8-27.4-3.6-41.1-5.4c0.4,2.8,0.8,5.7,1.2,8.5c0-4,0-8,0-12c-0.8,2.2-1.6,4.4-2.4,6.6c-2,5.6-1.5,11.1-0.3,16.8
						c5.2-9.2,10.5-18.5,15.7-27.7c-3.2,1-6.5,2.1-9.7,3.1C432.9,5,426,13.3,426,23.7c0,9.7,6.8,19.5,16.5,21.7
						c2.1,0.5,4.2,1,6.3,1.4c-5.4-1.2-6.7-3.1-4.3-1.8c1,0.5,2,1.1,3,1.6c4.1,2.2,8.2,4.3,12.2,6.5c-2.7-10.3-5.4-20.5-8.1-30.8
						c-1.2,1.9-2.4,3.7-3.5,5.6c11.8-1.5,23.6-3,35.3-4.6c-6.3-5-12.6-10-19-14.9c-8.1-6.4-17.8-9.1-27.3-3.5
						c-11.1,6.5-13.6,19.8-8.1,30.8c3.3,6.6,6.6,13.2,10,19.8c11.8-9.1,23.6-18.2,35.3-27.3c-4.9-6.3-9.9-12.6-14.8-18.9
						c-11.8-15.1-40.4-2.8-38.4,15.9c0.5,5,0.3,11.5,2.2,16.1c1.8,4.5,3.6,9,5.5,13.4c11-8.5,22-16.9,33.1-25.4
						c-1.9-1-3.7-1.9-5.6-2.9c-13.2-6.8-28.5-0.9-33.1,13.4c-0.3,1.1-0.7,2.2-1,3.2c11-4.5,22-9,33.1-13.4c-3.5-2.2-7-4.4-10.5-6.6
						c-6.2-3.9-13.3-3.7-20.1-1.7c-5,1.5,7.9-0.8,2.8-0.1c-1.2,0.1-2.4,0.3-3.5,0.4c-8.2,1-15,3.6-19.4,11.1
						c-5,8.5-3.8,20.4,3.5,27.3c6.2,5.8,12.3,11.6,18.5,17.5c-2.2-5.3-4.4-10.6-6.6-15.9c0.1,1,0.2,2.1,0.3,3.1
						c7.5-7.5,15-15,22.5-22.5c-1.5,0.1-2.9,0.2-4.4,0.2c7-0.4,6.8,1.1,2.9,0.1c-3-0.8-6.1-1.5-9.1-2.3c-9.8-2.5-20.2,1.5-25.4,10.3
						c-3,5.2-3.9,11.5-2.3,17.3c1.7,6.2,5.5,9.7,10.3,13.4c3.8,2.9,7.7,5.9,11.5,8.8c3.8-14,7.6-28,11.4-41.9
						c-1.8,0.2-3.6,0.5-5.4,0.7c-6.2,0.8-11.3,1.9-15.9,6.6c-4.2,4.2-6.6,10-6.6,15.9C409.8,82.6,420.2,95.7,432.3,94L432.3,94z"/>
				</g>
			</g>
			<g>
				<g>
					<path fill="#FFFFFF" d="M283.8,73.7c0.2-2.6,0.3-5.1,0.5-7.7c-1,3.8-2,7.6-3.1,11.4c1.7-2.9,3.4-5.9,5.1-8.8
						c4-7,4.1-15.8,0-22.7c-4.3-7.4-11.3-10.3-19.4-11.1c-6.6-0.7-13.1-1.3-19.7-2c0,15,0,30,0,45c7.8-0.9,15.5-1.9,23.3-2.8
						c10.1-1.2,18.8-6,21.7-16.5c3.2-11.5-3.8-24.8-15.7-27.7c-5.3-1.3-10.6-2.5-15.8-3.8c5.2,9.2,10.5,18.5,15.7,27.7
						c1.4-4.5,2.8-8.9,4.2-13.4c3-9.6-1.9-20.5-10.3-25.4c-10.3-6-25-2.7-30.8,8.1c-1.9,3.4-3.7,6.9-5.6,10.3c13,0,25.9,0,38.9,0
						c-1.9-2.9-3.7-5.9-5.6-8.8c-5.4-8.6-15.4-13.1-25.4-10.3c-11.1,3-20,16.2-15.7,27.7c1.3,3.5,2.5,6.9,3.8,10.4
						c3.5,9.5,11,16.5,21.7,16.5c12.7,0,22-10.3,22.5-22.5c0.1-2.1,0.2-4.3,0.3-6.4c0.6-12.9-10.7-21.7-22.5-22.5
						c-2.6-0.2-5.3-0.4-7.9-0.5c6.5,3.7,13,7.4,19.4,11.1c-1.6-3.3-3.2-6.6-4.8-9.9c-6.5-13.2-25.6-14.2-35.3-4.6
						c-4.8,4.7-9.6,9.5-14.4,14.2c-8.7,8.6-8.6,23.2,0,31.8c9,9,22.7,8.2,31.8,0c3.4-3.1,6.9-6.2,10.3-9.3
						c-5.3,2.2-10.6,4.4-15.9,6.6c2.8-0.3,5.5-0.7,8.3-1c10.1-1.3,18.8-6,21.7-16.5c2.9-10.6-2.1-19.3-10.3-25.4
						c-2.9-2.2-5.8-4.3-8.7-6.5c-7.6-5.7-17.5-2.3-25.7-0.2c7.3,12.5,14.6,25.1,21.9,37.6c3.1-3,6.1-6,9.2-9c5-4.9,7.5-14,10.2-20.6
						c3-7.2-0.7-16.8-5.8-21.9c-5.7-5.7-14.1-7.8-21.9-5.8c-3.5,0.9-7,1.8-10.4,2.7c9.2,5.2,18.5,10.5,27.7,15.7
						c-1.3-4.5-2.6-9-3.8-13.5c-3.4-12.1-15.7-18.5-27.7-15.7c-6.6,1.6-13.3,3.1-19.9,4.7c-7.5,1.8-13.7,8.4-15.7,15.7
						c-2.5,8.9,1.3,21.4,10.3,25.4c6.5,2.9,12.9,5.8,19.4,8.6c8.5,3.8,20.6,4.9,27.3-3.5c1.8-2.3,3.7-4.6,5.5-7
						c-3.3,1.9-6.6,3.9-9.9,5.8c1.8-0.5,3.5-1,5.3-1.5c-9.2-5.2-18.5-10.5-27.7-15.7c2.1,5.1,4.2,10.3,6.3,15.4
						c3.9,9.5,10.2,15,20.1,16.4c3,0.4,6,0.9,9,1.3c10.2,1.5,19.9-0.9,25.4-10.3c4.7-8.1,4.2-20.9-3.5-27.3
						c-4.5-3.7-9-7.4-13.5-11.1c1.9,3.3,3.9,6.6,5.8,9.9c-0.8-4.1-1.5-8.2-2.3-12.3c-1.2-6.6-6.2-11.4-10.4-16.3
						c-5.4-6.2-14.3-7.4-21.9-5.8c-1.4,0.3-2.7,0.6-4.1,0.9c-8.7,1.8-14.2,7.9-17.1,16c-0.8,2.2-1.6,4.5-2.5,6.7
						c-2.3,6.4-4.7,12.8-7,19.2C211,9.4,223.5,6.1,236,2.8c-4.1-4.3-8.5-7.9-13.5-11.2c3.4,4.5,6.9,9,10.3,13.4
						c-1-4.6-1.9-9.3-2.9-13.9c-2.6-12.5-16.3-18.1-27.7-15.7c-1.8,0.4-3.5,0.8-5.3,1.1c8.5,3.4,16.9,6.9,25.4,10.3
						c-1.3-2.3-2.7-4.5-4-6.8c-8.2-13.7-31.2-15.5-38.9,0c-2.2,4.5-4.4,8.9-6.6,13.4c-3,6,5.2-5.8,1-0.6c-1.7,2-3.3,4.1-5,6.1
						c12.8,5.3,25.6,10.6,38.4,15.9c-0.3-8.7-0.6-17.3-0.8-26c-0.3-10-6.6-19-16.5-21.7c-12.8-3.5-23.1,4.3-27.7,15.7
						c-3,7.5-6,14.9-9,22.4c14.7,2,29.5,4,44.2,6c-0.2-8.7-0.4-17.5-0.5-26.2c-0.2-9.5-6.7-19.7-16.5-21.7c-1.6-0.3-3.3-0.7-4.9-1
						c-9.3-1.9-20.9,0.9-25.4,10.3c-2.3,4.7-4.5,9.4-6.8,14.1c-0.5,1-1,2-1.4,3c-1.7,3.5,5.3-5.6,2.3-3c-1.9,1.7-3.9,3.4-5.8,5
						c12.5,3.3,25.1,6.6,37.6,9.9c-0.8-3.5-1.6-7.1-2.3-10.6c-1.9-8.7-8.1-13.5-15.5-17.3c-10.9-5.6-24.3-2.9-30.8,8.1
						c-5.9,10.1-2.8,25.2,8.1,30.8c1.6,0.8,3.2,1.6,4.8,2.5c-3.4-4.5-6.9-9-10.3-13.4c0.9,4,1.8,8,2.6,12
						c1.7,7.5,8.5,13.7,15.7,15.7c8.2,2.3,15.7-0.4,21.9-5.8c4.5-3.9,8.7-7.3,11.3-12.7c2.5-5.2,5-10.4,7.5-15.5
						c-8.5,3.4-16.9,6.9-25.4,10.3c1.6,0.3,3.3,0.7,4.9,1c-5.5-7.2-11-14.5-16.5-21.7c0.2,8.7,0.4,17.5,0.5,26.2
						c0.2,10,6.7,19,16.5,21.7c12.8,3.5,23.1-4.3,27.7-15.7c3-7.5,6-14.9,9-22.4c-14.7-2-29.5-4-44.2-6c0.3,8.7,0.6,17.3,0.8,26
						c0.3,8,4.1,15.3,11.1,19.4c8.1,4.7,21,4.2,27.3-3.5c3.4-4.2,8.1-8.7,10.5-13.5c2.4-4.8,4.8-9.6,7.1-14.5c-13,0-25.9,0-38.9,0
						c1.3,2.3,2.7,4.5,4,6.8c5.4,9.1,15.4,12.5,25.4,10.3c1.8-0.4,3.5-0.8,5.3-1.1c-9.2-5.2-18.5-10.5-27.7-15.7
						c1,4.6,1.9,9.2,2.9,13.8c1.7,7.9,8.3,12.1,14.4,16.2c1.8,1.2-6.4-5.7-2.4-1.5c0.9,1,1.9,2,2.8,3c5.5,5.8,14.3,7.9,21.9,5.8
						c8.1-2.2,12.9-8.2,15.7-15.7c3.2-8.6,6.3-17.2,9.5-25.9c-5.2,5.2-10.5,10.5-15.7,15.7c1.8-0.4,3.6-0.8,5.5-1.2
						c-7.3-1.9-14.6-3.9-21.9-5.8c1.5,1.7,2.9,3.4,4.4,5c-1.9-3.3-3.9-6.6-5.8-9.9c1.5,7.8,1.9,18.2,8.5,23.7
						c4.4,3.6,8.9,7.3,13.3,10.9c7.3-12.5,14.6-25.1,21.9-37.6c-4.5-0.7-8.9-1.3-13.4-2c5.2,5.2,10.5,10.5,15.7,15.7
						c-2.1-5.1-4.2-10.3-6.4-15.5c-4.6-11.3-14.8-19.3-27.7-15.7c-5.4,1.5-11.7,2.8-15.3,7.4c-1.8,2.3-3.6,4.6-5.5,6.8
						c9.1-1.2,18.2-2.3,27.3-3.5c-6.5-2.9-12.9-5.8-19.4-8.6c-1.8,13.7-3.6,27.4-5.4,41.1c6.6-1.6,13.3-3.1,19.9-4.7
						c-9.2-5.2-18.5-10.5-27.7-15.7c1.3,4.5,2.6,9,3.8,13.5c3.4,11.9,15.7,18.8,27.7,15.7c3.5-0.9,7-1.8,10.4-2.7
						c-9.2-9.2-18.5-18.5-27.7-27.7c-1.5,3.5-2.9,7.1-4.4,10.6c1.9-3.3,3.9-6.6,5.8-9.9c-3.1,3-6.1,6-9.2,9
						c-16.4,16.1,0.3,43.1,21.9,37.6c2.8-0.7,5.5-1.4,8.3-2.1c-5.8-0.8-11.6-1.5-17.3-2.3c2.9,2.2,5.8,4.4,8.7,6.6
						c3.8-14,7.6-28,11.4-41.9c-8.9,1.1-17.4,1.5-24.5,7.9c-3.4,3-6.7,6-10.1,9.1c10.6,10.6,21.2,21.2,31.8,31.8
						c4.8-4.7,9.6-9.5,14.4-14.2c-11.8-1.5-23.6-3-35.3-4.6c1.6,3.3,3.2,6.6,4.8,9.9c3.6,7.3,11.8,10.6,19.4,11.1
						c2.6,0.2,5.3,0.4,7.9,0.5c-7.5-7.5-15-15-22.5-22.5c-0.1,2.1-0.2,4.3-0.3,6.4c14.7-2,29.5-4,44.2-6c-1.3-3.5-2.5-6.9-3.8-10.4
						c-13.7,5.8-27.4,11.6-41.1,17.3c1.9,2.9,3.7,5.9,5.6,8.8c8.7,13.7,30.6,15.4,38.9,0c1.9-3.4,3.7-6.9,5.6-10.3
						c-13.7-5.8-27.4-11.6-41.1-17.3c-1.4,4.5-2.8,8.9-4.2,13.4c-3.6,11.4,4.1,24.9,15.7,27.7c5.3,1.3,10.6,2.5,15.8,3.8
						c2-14.7,4-29.5,6-44.2c-7.8,0.9-15.5,1.9-23.3,2.8c-12.2,1.5-22.5,9.1-22.5,22.5c0,13.2,10.3,21.3,22.5,22.5
						c6.6,0.7,13.1,1.3,19.7,2c-6.5-11.3-13-22.6-19.4-33.9c-1.7,2.9-3.4,5.8-5.1,8.7c-3.4,5.8-3.2,12.7-3.6,19.2
						c-0.8,12.3,10.8,22.5,22.5,22.5C274.1,96.2,283,85.9,283.8,73.7L283.8,73.7z"/>
				</g>
			</g>
			<path fill="#44E2A3" d="M547.2,429.5c45.4-34.5,23.9-56.8,23.9-56.8S446.9,211.2,438.4,200.1c-8.4-11.1-22.7-14.8-37.5-21.6
				c-14.7-6.8-103.1-103.1-112-116.8c-0.2-0.3,0.6-6.1,0.4-6.3c-1-1.3-1.9-3.6-3.4-4.1c-14.7-5.2-48.7,19.5-47.2,35.7
				c0.2,2,1.8,3.1,3,4.8c0.2,0.2,6,1.1,6.2,1.3c10.8,12.3,80,123.2,82.6,139.2c2.7,16,2.4,30.8,10.8,41.9
				c8.4,11.1,130.8,174,130.8,174s15.7,26.6,61.1-7.9L547.2,429.5z"/>
			<path fill="#44E2A3" d="M140.9,430.9c-45.4-34.5-23.9-56.8-23.9-56.8s124.3-161.4,132.7-172.5c8.4-11.1,22.7-14.8,37.5-21.6
				c14.7-6.8,103.1-103.1,112-116.8c0.2-0.3-0.6-6.1-0.4-6.3c1-1.3,1.9-3.6,3.4-4.1c14.7-5.2,48.7,19.5,47.2,35.7
				c-0.2,2-1.8,3.1-3,4.8c-0.2,0.2-6,1.1-6.2,1.3c-10.8,12.3-80,123.2-82.6,139.2c-2.7,16-2.4,30.8-10.8,41.9
				c-8.4,11.1-130.8,174-130.8,174s-15.7,26.6-61.1-7.9L140.9,430.9z"/>
			<g>
				<g>
					<path fill="#FFFFFF" d="M269.2,201c4.2-2.7,9.1-4.1,13.7-5.7c6.1-2.2,11.9-4.8,17.3-8.3c4.2-2.7,7.7-6.3,11.2-9.8
						c9.8-9.9,19.3-20.3,28.7-30.6c20.5-22.3,40.8-44.8,61.1-67.4c1.6-1.8,3.2-3.6,4.8-5.3c2.1-2.4-1.4-5.9-3.5-3.5
						c-15.3,17.1-30.6,34.1-46,51c-11.3,12.5-22.7,24.9-34.2,37.2c-7.3,7.8-14.5,16.6-23.1,23.1c-9.8,7.4-22.3,8.6-32.4,15
						C263.9,198.4,266.4,202.7,269.2,201L269.2,201z"/>
				</g>
			</g>
			<g>
				<g>
					<path fill="#FFFFFF" d="M259.2,205.8c3.2,0,3.2-5,0-5C255.9,200.8,255.9,205.8,259.2,205.8L259.2,205.8z"/>
				</g>
			</g>
			<g>
				<g>
					<path fill="#FFFFFF" d="M276.1,60.6C266,65.3,253,73.1,250.4,84.8c-0.3,1.4,0.4,2.6,1.7,3.1c8.1,3,12.2,11.6,16.6,18.5
						c5.1,7.9,10.1,15.9,15.4,23.6c1.8,2.6,6.2,0.1,4.3-2.5c-5.9-8.5-11.3-17.2-16.9-25.9c-4.9-7.6-9.3-15.3-18.1-18.5
						c0.6,1,1.2,2.1,1.7,3.1c2.3-10.4,14.5-17.1,23.4-21.3C281.5,63.5,279,59.2,276.1,60.6L276.1,60.6z"/>
				</g>
			</g>
			<g>
				<g>
					<path fill="#FFFFFF" d="M290,138.1c3.2,0,3.2-5,0-5C286.8,133.1,286.8,138.1,290,138.1L290,138.1z"/>
				</g>
			</g>
			<g>
				
					<path fill="none" stroke="#FFFFFF" stroke-width="8" stroke-linecap="round" stroke-linejoin="round" stroke-miterlimit="10" d="
					M206.3,217.6c-9.4,5.9-9.6,5.5-19,11.4c-9.4,5.9-9,6.5-18.4,12.4c-9.4,5.9-9.1,6.4-18.5,12.3"/>
			</g>
			<g>
				
					<path fill="none" stroke="#FFFFFF" stroke-width="8" stroke-linecap="round" stroke-linejoin="round" stroke-miterlimit="10" d="
					M209.1,159.9c-12.7,0.6-12.7,1.3-25.4,1.9c-12.7,0.6-12.8,0-25.5,0.6"/>
			</g>
			<g>
				
					<path fill="none" stroke="#5049EA" stroke-width="8" stroke-linecap="round" stroke-linejoin="round" stroke-miterlimit="10" d="
					M231,132.5c-10.1-6-9.5-6.9-19.6-12.9c-10.1-6-10.2-5.7-20.3-11.6"/>
			</g>
			<path fill="#5049EA" d="M436.2,66.3c4.7,2.2,17.2,13.5,16.3,23.2c-0.2,2-1.8,3.1-3,4.8c-0.2,0.2-6,1.1-6.2,1.3
				c-10.8,12.3-80,123.2-82.6,139.2c-2.7,16-2.4,30.8-10.8,41.9c-8.4,11.1-130.8,174-130.8,174s-15.7,26.6-61.1-7.9l-16.2-15.9
				c90-109.5,167.2-124.2,162.8-150C294.8,220.2,395.4,157.6,436.2,66.3z"/>
			<g>
				<g>
					<path fill="#FFED5E" d="M448.3,377.8c4.7-18.7-13.6-36.3-23.1-50.4c-2.6-3.9-4.7-8.2-7.2-12.1c-3.3-5.1-7-9.8-10.4-14.8
						c-6-8.8-11.6-19.3-9.6-30.2c1.6-8.5,6.9-16.2,15.6-18.2c9.6-2.2,22,3.6,29.3,9.4c8.3,6.5,15,15.9,21.7,23.9
						c6.7,8.1,14.2,17.4,16.9,27.8c2.4,9.4,16.9,5.4,14.5-4c-3-11.6-10.6-21.6-17.9-30.9c-7.1-9.1-14.7-18.9-23.4-26.5
						c-17.7-15.6-48.5-22.9-64.3-1c-6.7,9.3-8.8,20.8-7,32c2.1,12.8,10,23.5,17.3,33.8c6.3,8.8,11.3,18.3,17.7,27
						c5.9,8,13.1,16.6,15.4,26.5c0.3,1.4,0.2,2.6-0.1,3.7C431.4,383.2,445.9,387.2,448.3,377.8L448.3,377.8z"/>
				</g>
				<g>
					<path fill="#FFED5E" d="M410.2,252.4c-5.6,5.1-11.7,12.8-10.1,20.8c2.4,11.7,19.2,7.6,24.6,1.3c2.3-2.7,4.1-6.8,7.7-8
						c3.9-1.2,5.8,2.1,7.6,4.9c3.5,5.2,7.2,10.1,11.5,14.7c4.6,4.8,9.7,9.2,13.7,14.5c3.4-3.4,6.8-6.8,10.3-10.3
						c-0.8-0.4-1.5-0.8-2.2-1.3c-1.4-1,1.3,1.1-0.2-0.1c-0.5-0.4-0.9-0.8-1.4-1.2c-2.5-2.2-4.8-4.5-7.2-6.8
						c-5.7-5.6-11.3-11.2-17.3-16.4c-10.6-9.3-26-21.5-41-14.9c-7.6,3.4-12.5,12.2-13.8,20.1c-2.2,13.3,4.1,26.4,10.4,37.7
						c10.8,19.4,21.9,41.7,39.9,55.3c2.1,1.6,4.3,3,6.7,4.1c5.3,2.5,10.8-0.5,11.3-6.5c1.3-17-8.2-30.4-19.1-42.5
						c-5.5-6.1-11-11.9-15.1-19c-5-8.6-8.5-18-14.1-26.3c-0.9,3.4-1.8,6.8-2.7,10.3c10.4-5.7,23.4,3.8,31.6,9.6
						c10.7,7.5,20,17,31.1,23.8c2.5-4.3,5-8.6,7.6-13c-0.6-0.3-1.2-0.7-1.8-1.1c-0.5-0.3-0.9-0.6-1.4-1c1.4,1-0.4-0.4-0.6-0.5
						c-2.7-2.2-5.3-4.5-7.8-6.8c-6.5-5.8-13.1-11.7-20-17c-9.3-7.1-29.9-19.7-36.1-2.1c-2.1,5.9,0.8,13,3.1,18.3
						c3.1,7.3,7.3,14.1,11.7,20.8c4.5,6.9,9.5,13.5,14.7,19.9c3,3.7,6.2,8,10.4,10.6c5.5,3.5,12.9-2.3,11-8.5
						c-2.9-9.3-7.9-17.5-13.5-25.4c-5.4-7.7-11.5-15.4-14.4-24.4c-2.4,3.2-4.8,6.3-7.2,9.5c8.5,0.7,15.1,3.6,20.8,10
						c5.6,6.2,10,13.3,15.9,19.2c2.4-4.2,4.9-8.4,7.3-12.5c-9.9-1.8-21.6-6.8-26.9-15.9c-2.2,3.8-4.3,7.5-6.5,11.3
						c7.7-0.4,17.4,12.5,19.3,19.9c2.4,9.4,16.9,5.4,14.5-4c-3.4-13.4-18.6-31.6-33.7-30.9c-5.6,0.3-9.4,6.2-6.5,11.3
						c7.2,12.3,22.2,20.3,35.9,22.7c7,1.2,13-6.9,7.3-12.5c-6.7-6.6-11.5-14.8-18.1-21.6c-7.9-8-18.3-11.2-29.2-12.1
						c-4.8-0.4-8.7,5.1-7.2,9.5c6,18.5,22.2,31.4,27.9,49.8c3.7-2.8,7.3-5.6,11-8.5c0,0,1.5,1.3,0,0c-0.6-0.6-1.2-1.1-1.7-1.7
						c-1.6-1.7-3.1-3.4-4.6-5.2c-4.1-5-7.9-10.2-11.6-15.5c-4.1-5.9-7.9-12.1-11.2-18.5c-1.4-2.7-2-4.2-2.9-6.9
						c-0.4-1.1-0.7-2.2-0.9-3.4c-0.4-2.1,0.1,1.5-0.1-0.4c0-0.5,0-1.1,0-1.6c-0.1,1.8-1.2,2.5-2.4,2.6c1.6-0.2,2.5,0.2,3.9,0.9
						c5.9,2.7,11.1,6.9,16.1,11c5.6,4.6,10.9,9.5,16.4,14.3c3.6,3.2,7.4,7.1,11.8,9.2c8.6,4,16-7.8,7.6-13
						c-12.6-7.7-23-18.6-35.4-26.7c-12.5-8.3-28.3-14.5-42.5-6.7c-3.4,1.9-4.9,6.9-2.7,10.3c5.2,7.8,8.8,16.4,13.2,24.7
						c3.9,7.3,9.1,13.4,14.6,19.5c9.4,10.5,19.5,20.9,18.4,36c3.8-2.2,7.5-4.3,11.3-6.5c-8.2-3.8-14.3-11.3-19.5-18.4
						c-6.2-8.4-11.5-17.5-16.6-26.6c-5.5-9.7-11.6-19.1-13.8-30.2c-0.8-4.1,0-8.1,2-11.7c1-1.8,1.1-1.8,2.2-2.9
						c-0.1,0.1,2.1-1.2,1.2-0.9c2-0.8,2.6-0.6,4.5-0.2c3.2,0.7,4.5,1.5,7.6,3.3c6,3.5,11.2,8.1,16.4,12.9
						c5.2,4.8,10.2,9.8,15.2,14.8c3.5,3.4,7.2,7.3,11.6,9.5c6,2.9,15.2-3.7,10.3-10.3c-7-9.2-16.5-16.4-23.1-25.9
						c-5.7-8.2-10.7-16-21.9-15.7c-5.1,0.1-9.4,2.2-13.3,5.3c-2.9,2.3-4.6,5.9-7.2,8.6c-0.6,0.6-1.2,0.3-2.2,0.3
						c2.3,0,4.6,2.9,4,5.1c-0.3,1.1,0.6-1.2,0.7-1.2c1.4-2.4,3.3-4.6,5.4-6.4C428,256.5,417.3,245.9,410.2,252.4L410.2,252.4z"/>
				</g>
				<g>
					<path fill="#FFED5E" d="M178.2,341c19.7-1.7,30.4-24.6,40.8-38.6c2.6-3.4,5.7-6.4,8.3-9.8c3.7-4.7,7.1-9.7,10.6-14.6
						c6.1-8.5,13.8-16.7,24.3-19.2c7.5-1.8,16.1,0,21.7,5.4c7.7,7.6,6.1,22.9,3.4,32.2c-3,10.4-10.2,20.3-15.8,29.5
						c-5.5,8.9-11.6,19.3-20.5,25.2c-8,5.3-0.5,18.3,7.6,13c10-6.6,17.1-16.8,23.5-26.8c6.6-10.2,13.3-21,18-32.2
						c5.3-12.7,5.6-27.6,1.1-40.5c-3.5-10.3-15.2-17.5-25.5-20.4c-10.3-2.9-18.8-0.8-28.1,4.2c-11.2,6.1-18.9,16.6-26.1,26.8
						c-6.2,8.7-13.4,16.5-19.6,25.3c-5.5,7.9-10.9,17.3-18.8,23.1c-1.5,1.1-3.9,2.4-5.1,2.5C168.6,326.8,168.5,341.8,178.2,341
						L178.2,341z"/>
				</g>
				<g>
					<path fill="#FFED5E" d="M285.3,264.4c-5.8-3.2-13.9-6.5-20.5-4.4c-12,3.7-6.6,18.9,1.2,23.9c3.5,2.2,7.9,2.5,11.4,4.5
						c4.7,2.8,1,7.7-1.1,10.5c-3.9,5.3-7.5,10.5-10.4,16.4c-3,6-5.8,12.2-9.5,17.8c4.7,1.3,9.3,2.5,14,3.8c-0.3,2.8,0.2-0.2,0.4-1
						c0.3-1.1,0.8-2.2,1.2-3.3c0.8-2-0.6,1.4,0.3-0.7c0.3-0.7,0.6-1.4,0.9-2c0.8-1.8,1.6-3.5,2.4-5.2c3.6-7.5,7.1-15,10.3-22.7
						c5.2-12.8,11-30.8,0.3-42.4c-6.1-6.6-16.4-7.5-24.7-6.2c-12.1,1.9-22.2,12.2-30,20.8c-15,16.6-31.6,34-39.8,55.2
						c-1.3,3.5-2,7.1-2.4,10.8c-0.5,5,5.1,8.4,9.5,7.2c16.5-4.3,26.2-17.2,34.1-31.4c3.9-7,7.5-14.3,12.8-20.4
						c7-8.1,15.1-15,21.6-23.6c-3.9,0.5-7.9,1-11.8,1.5c9,8.2,4.7,22.8,1.8,32.8c-3.6,12.5-9.6,24.4-12.4,37.2
						c4.9,0.7,9.8,1.3,14.7,2c-0.3,2.8,0.1,0.1,0.3-0.6c0.3-1.2,0.8-2.4,1.2-3.6c1.2-3.2,2.5-6.4,3.9-9.6c3.3-7.8,6.6-15.6,9.2-23.7
						c3.5-10.5,8.5-34.3-9.5-34.4c-6.3,0-11.9,4.6-16.4,8.5c-6.2,5.4-11.4,12-16.3,18.5c-4.9,6.3-9.4,12.9-13.6,19.6
						c-2.5,4-5.7,8.6-6.8,13.2c-1.4,5.8,5.3,12.6,11,8.5c8.3-6.1,14.5-13.7,20.5-21.9c5.3-7.2,10.3-15.3,17.5-20.8
						c-3.7-1.5-7.3-3-11-4.5c2.1,8.2,1.9,15.5-2.3,22.9c-4.1,7.3-9.3,13.7-12.9,21.3c4.6,0.6,9.1,1.2,13.7,1.8
						c-1.4-9-0.1-21.6,6.1-28.7c-4.2-1.1-8.4-2.2-12.5-3.3c2.9,7.3-5.5,20.6-11.9,24.9c-8,5.3-0.5,18.3,7.6,13
						c6.7-4.4,11.5-11.1,15.1-18.1c3.5-6.9,6.7-16.1,3.7-23.7c-1.9-4.8-8.5-8-12.5-3.3c-10,11.6-12.3,28.6-9.9,43.3
						c1,6.3,11,7.4,13.7,1.8c4.1-8.6,10.3-15.8,14.5-24.2c5-10.1,5-20.8,2.2-31.5c-1.1-4.3-7.1-7.4-11-4.5
						c-15.5,11.7-22.4,31.3-38,42.7c3.7,2.8,7.3,5.6,11,8.5c0.1-0.6,0.8-2.2-0.1,0c0.3-0.8,0.7-1.5,1.1-2.2c1.1-2.1,2.2-4.1,3.4-6
						c3.5-5.8,7.3-11.3,11.3-16.8c4.1-5.6,8.5-11,13.3-16c2-2.1,4.1-4,6.4-5.9c-0.7,0.6,1.6-1,2-1.3c0.5-0.3,1.1-0.6,1.6-0.9
						c-1.7,0.8-0.2,0.1,0.2,0c0.9-0.2-1.5-0.1-0.9,0c-0.6-0.1-1.2-0.4-1.6-0.9c1.3,1.1-0.8-1.3,0.1,0.1c-1.2-2,0.2,2.2,0,0.2
						c0.2,1.5,0,2.9-0.1,4.4c-0.5,4.9-3.4,12.9-5.5,18.6c-2.5,6.8-5.4,13.4-8.2,20.1c-1.9,4.7-3.9,9.3-4.5,14.4
						c-0.9,8.5,13,10.2,14.7,2c3.1-14.4,10-27.8,13.7-42.1c3.7-14.3,4.9-31.7-7-42.5c-3.9-3.5-8.8-2.4-11.8,1.5
						c-5.3,7.1-12.2,12.9-18.1,19.3c-5.6,6.1-9.8,12.9-13.7,20.1c-6.7,12.1-13.3,25.3-27.6,29.1c3.2,2.4,6.3,4.8,9.5,7.2
						c0.9-9.2,7.4-18,12.6-25.3c5.8-8.2,12.5-15.8,19.2-23.3c7.1-8,13.8-16.5,23.3-21.8c3.4-1.8,7.5-2.5,10.9-1.9
						c1.6,0.3,3,0.8,3.5,1c1.6,0.8,0.7,0.1,2.2,1.7c-1.4-1.5,1.1,2.4,0.3,0.5c0.3,0.7,0.9,3.9,0.8,2.6c0.4,3.3,0,5.6-0.5,8.2
						c-1.3,6.8-3.9,13.4-6.7,19.7c-2.8,6.5-6,12.8-9,19.2c-2.4,5.2-4.9,10.3-5.6,16c-1,8,10.3,9.3,14,3.8
						c6.2-9.3,9.8-20.2,16.3-29.3c2.8-4,6.1-7.5,7.9-12.2c2.1-5.5,1-10.6-1.3-15.9c-2.1-4.7-6.5-7.8-11.1-9.7
						c-1.7-0.7-6.8-1.3-7.9-2.8c-0.4-0.4-0.5-0.8-0.6-1.3c0.6,1.8-1.5,4.2-3.3,4.8c-1.1,0.3,0.8,0.3,1.3,0.4
						c3.1,0.7,4.8,1.4,7.2,2.7C286.2,282,293.8,269,285.3,264.4L285.3,264.4z"/>
				</g>
			</g>
			<g>
				<g>
					<path fill="#FFFFFF" d="M427.9,32.7c-9.6-1.3-17.5,5.5-16.5,15.6c0.5,5.4,3.2,9.1,7.7,12c2.1,1.4,5.2,1.8,7.6,1.2
						c1.1-0.3,2.1-0.7,3.1-1.3c0,0,2-1.2,0.9-0.8c4.2-1.4,5.9-5,5.2-9.2c-1.6-9.6-14.3-11.4-17.1-1.4c-2.6,9.2,5.2,15,13.8,13
						c7-1.6,7.4-13.2,0-14.5c-2.6-0.4-5.1-0.6-7.7-0.5c-8.7,0.2-9.9,11.9-2,14.7c4.4,1.5,8.5,0.4,12.9,0.2c-2.4-3.2-4.8-6.3-7.2-9.5
						c-1.9,6.5,0.1,12.1,5.6,15.9c4.5,3,11,3.1,16.2,3.5c9.7,0.7,9.6-14.3,0-15c-2.3-0.2-4.5-0.3-6.8-0.8c-0.2,0-1.9-0.6-1.9-0.6
						c1.3,0.7,0.5,3.7,1.3,1.1c1.3-4.5-2.4-9.7-7.2-9.5c-2.9,0.1-6.2,1.3-8.9,0.3c-0.7,4.9-1.3,9.8-2,14.7c1.2,0,2.5-0.3,3.7-0.1
						c0-4.8,0-9.6,0-14.5c1.3-0.3,3,1.2,3.4,2c0.3,1.3,0.7,2.5,1,3.8c-0.3,0.5-0.6,1-0.9,1.6c-1.8,0.7-3.5,1.5-5.3,2.2
						c0.2,0,0.3,0,0.5-0.1c-1.3-0.3-2.5-0.7-3.8-1c-2-3.2-2.7-3.8-2.2-1.6c1.7-3.1,3.5-6.2,5.2-9.2c-1.1,0.4-2.2,0.8-3.3,1.4
						c-3.3,1.9,2-0.4,2.8,0.8c0.4,0.6,0.2-1.1,0.1-0.6c-0.2,0.8-1.9,0.7-2.4,0.6c4,0.5,8-0.9,9.2-5.2
						C434.1,38.3,432,33.2,427.9,32.7L427.9,32.7z"/>
				</g>
			</g>
			<g>
				<g>
					<path fill="#FFFFFF" d="M262.2,57.8c2.7,1.8,5.7,2.9,9,2.1c3.9-0.9,5.8-4.6,6.9-8.2c1.1-3.9-1.3-8.2-5.2-9.2
						c-4-1.1-8.1,1.3-9.2,5.2c-0.2,0.6-0.3,1.1-0.6,1.6c0.3-0.6,0.5-1.2,0.8-1.8c-0.1,0.3-0.2,0.5-0.4,0.8c0.4-0.5,0.8-1,1.2-1.5
						c-0.1,0.1-0.2,0.3-0.4,0.4c0.5-0.4,1-0.8,1.5-1.2c-0.1,0-0.1,0.1-0.2,0.1c0.6-0.3,1.2-0.5,1.8-0.8c-0.1,0-0.1,0.1-0.2,0.1
						c0.7-0.1,1.3-0.2,2-0.3c-0.1,0-0.2,0-0.4,0c0.7,0.1,1.3,0.2,2,0.3c-0.3,0-0.5-0.1-0.7-0.2c0.6,0.3,1.2,0.5,1.8,0.8
						c-0.7-0.3-1.4-0.7-2-1.2c-3.4-2.3-8.3-0.7-10.3,2.7C257.4,51.3,258.8,55.6,262.2,57.8L262.2,57.8z"/>
				</g>
			</g>
			<path fill="#FFFFFF" d="M287.2,249c0,0-41.1-10.2-67.7,44.5c-15.5,31.9-31.8,28.8-46,42.2c-4.2,3.9,7.7-11.2,7.7-11.2
				S239.9,216.3,287.2,249z"/>
			<path fill="#FFFFFF" d="M410.2,237.9c-16.5,1.8-39,17.2-24.8,54.5c4.8,16.5,22.8,32.8,26.6,38c-1-34.5-21.4-29.5-23.3-67.5
				C387.7,243.6,410.2,237.9,410.2,237.9z"/>
			<path fill="#FFDDE3" d="M551.2-1.7c0,0-8,34-26,27.5s-13.5,3-20,5.5s-14.5-1-23.5,7.5s-13.5,19-20,22.5s-3.8,12.2-5.5,14
				s-7.1,3.4-6.1,5.1c1.8,3,2.3,7.3,2.3,7.3s11.8-9.2,13.6-13.6c1.8-4.4-2.7-5.9,3.3-9.4s16.2-7.9,17.7-12.9s10.8-12.5,22.8-12.5
				c10.7,0,10.5,1,13-2.5S558.2,53.7,559.2,0C560.2-53.7,551.2-1.7,551.2-1.7z"/>
			<path fill-rule="evenodd" clip-rule="evenodd" fill="#FFDDE3" d="M288.8,61.7c0,0,0.6-4.6,0.5-6.4c-0.2-0.4-2-3.2-2.8-3.7
				c-1.8-1.1-5.1-1.2-8.2-0.8c0.5-2.9,4.3-7.4-5.2-11.8c-8.5-4,3.1-4.1-1.2-9.8c-4.3-5.7,0.1-0.3-6-12.8c-5.2-10.5-14.5-13-38.1-9.8
				c-22.2,3.1-22.3-1.8-27.3-4.3s-15.7-4.3-15.7-4.3h79.3c0,0,17.2,10.9,13.8,25.2c3.8,2.2,3.4,6.5,3.3,9
				c9.7,0.3,15.4,22.3,8.8,30.9C289.3,62.7,288.8,61.7,288.8,61.7z"/>
			<g>
				
					<path fill="none" stroke="#FFED5E" stroke-width="8" stroke-linecap="round" stroke-linejoin="round" stroke-miterlimit="10" d="
					M217.5,186.3c-15.8,5.2-15.9,5-31.7,10.2c-15.8,5.2-15.8,5.3-31.7,10.4c-15.8,5.2-15.9,4.9-31.8,10
					c-15.8,5.2-15.7,5.5-31.6,10.7"/>
			</g>
			<g>
				
					<path fill="none" stroke="#FFFFFF" stroke-width="8" stroke-linecap="round" stroke-linejoin="round" stroke-miterlimit="10" d="
					M74.1,232.6c-17.4,5.9-17.1,6.8-34.5,12.7"/>
			</g>
			<g>
				
					<path fill="none" stroke="#FFED5E" stroke-width="8" stroke-linecap="round" stroke-linejoin="round" stroke-miterlimit="10" d="
					M54,167.7c-7.4,0.3-7.4-0.1-14.8,0.1"/>
			</g>
			<g>
				
					<path fill="none" stroke="#5049EA" stroke-width="8" stroke-linecap="round" stroke-linejoin="round" stroke-miterlimit="10" d="
					M133,264.8c-16.6,11.1-17.1,10.4-33.6,21.5"/>
			</g>
			<g>
				
					<path fill="none" stroke="#5049EA" stroke-width="8" stroke-linecap="round" stroke-linejoin="round" stroke-miterlimit="10" d="
					M140.2,163.8c-18,0.6-18,0.7-36,1.3c-18,0.6-18,0.6-36,1.2"/>
			</g>
			<g>
				
					<path fill="none" stroke="#FFED5E" stroke-width="8" stroke-linecap="round" stroke-linejoin="round" stroke-miterlimit="10" d="
					M168.9,133.7c-14.6-3.8-14.6-3.8-29.2-7.6c-14.6-3.8-14.6-4.1-29.2-7.9c-14.6-3.8-14.6-4-29.2-7.8"/>
			</g>
			<g>
				
					<path fill="none" stroke="#5049EA" stroke-width="8" stroke-linecap="round" stroke-linejoin="round" stroke-miterlimit="10" d="
					M67.2,106.5c-17.9-5-18.1-4.3-36-9.3"/>
			</g>
			<g>
				
					<path fill="none" stroke="#FFFFFF" stroke-width="8" stroke-linecap="round" stroke-linejoin="round" stroke-miterlimit="10" d="
					M173.3,97.3c-14-7.9-14.2-7.6-28.2-15.5c-14-7.9-13.8-8.2-27.9-16.1c-14-7.9-14-8-28-15.9C75.2,42,75,42.4,60.9,34.5"/>
			</g>
			<g>
				<g>
					
						<path fill="none" stroke="#FFED5E" stroke-width="8" stroke-linecap="round" stroke-linejoin="round" stroke-miterlimit="10" d="
						M446.1,132c11-7,11.2-6.6,22.2-13.6c11-7,10.6-7.6,21.6-14.6c11-7,10.7-7.5,21.7-14.5c11-7,11.4-6.3,22.4-13.3"/>
				</g>
				<g>
					
						<path fill="none" stroke="#5049EA" stroke-width="8" stroke-linecap="round" stroke-linejoin="round" stroke-miterlimit="10" d="
						M466.2,156.8c12.8-0.2,12.7-0.9,25.5-1.2s12.8,0.3,25.5,0.1"/>
				</g>
				<g>
					
						<path fill="none" stroke="#FFFFFF" stroke-width="8" stroke-linecap="round" stroke-linejoin="round" stroke-miterlimit="10" d="
						M502.6,126.9c20.3-6.2,20.4-5.8,40.7-12c20.3-6.2,20.4-5.8,40.7-12"/>
				</g>
				<g>
					
						<path fill="none" stroke="#FFED5E" stroke-width="8" stroke-linecap="round" stroke-linejoin="round" stroke-miterlimit="10" d="
						M600.4,96.6c17.8-5.5,17.8-5.5,35.7-11"/>
				</g>
				<g>
					
						<path fill="none" stroke="#FFFFFF" stroke-width="8" stroke-linecap="round" stroke-linejoin="round" stroke-miterlimit="10" d="
						M621.4,153.6c7.4-0.1,7.4,0,14.8-0.1"/>
				</g>
				<g>
					
						<path fill="none" stroke="#5049EA" stroke-width="8" stroke-linecap="round" stroke-linejoin="round" stroke-miterlimit="10" d="
						M549.9,64c19.8-12.8,19.7-12.8,39.5-25.6"/>
				</g>
				<g>
					
						<path fill="none" stroke="#FFED5E" stroke-width="8" stroke-linecap="round" stroke-linejoin="round" stroke-miterlimit="10" d="
						M535.2,155.2c18-0.1,18-0.8,36-0.9s18,1,36,0.9"/>
				</g>
				<g>
					
						<path fill="none" stroke="#FFFFFF" stroke-width="8" stroke-linecap="round" stroke-linejoin="round" stroke-miterlimit="10" d="
						M460.1,184.2c16.2,2.9,16.3,2.5,32.6,5.4c16.2,2.9,16.2,3.1,32.5,6c16.3,2.9,16.3,2.4,32.6,5.3c16.3,2.9,16.1,3.5,32.4,6.4"/>
				</g>
				<g>
					
						<path fill="none" stroke="#5049EA" stroke-width="8" stroke-linecap="round" stroke-linejoin="round" stroke-miterlimit="10" d="
						M607.2,211.3c18,3.7,18,3.7,36,7.3"/>
				</g>
				
					<line fill="none" stroke="#5049EA" stroke-width="8" stroke-linecap="round" stroke-linejoin="round" stroke-miterlimit="10" x1="484.7" y1="215.8" x2="514.5" y2="236.5"/>
				<g>
					
						<path fill="none" stroke="#FFED5E" stroke-width="8" stroke-linecap="round" stroke-linejoin="round" stroke-miterlimit="10" d="
						M529.1,247.5c14.3,9.8,14.5,9.4,28.8,19.1s14.5,9.5,28.8,19.2"/>
				</g>
			</g>
		</g>
	</g>
</g>
</svg>
