<?xml version="1.0" encoding="utf-8"?>
<!-- Generator: Adobe Illustrator 19.0.1, SVG Export Plug-In . SVG Version: 6.00 Build 0)  -->
<svg version="1.1" xmlns="http://www.w3.org/2000/svg" xmlns:xlink="http://www.w3.org/1999/xlink" x="0px" y="0px" width="680px"
	 height="315px" viewBox="0 0 680 315" enable-background="new 0 0 680 315" xml:space="preserve">
<g id="Frame">
</g>
<g id="Art">
	<g>
		<defs>
			<rect id="SVGID_5_" x="0" y="0" width="680" height="315"/>
		</defs>
		<clipPath id="SVGID_2_">
			<use xlink:href="#SVGID_5_"  overflow="visible"/>
		</clipPath>
		<g clip-path="url(#SVGID_2_)">
			<rect x="0" y="0" fill="#5049EA" width="680" height="316.5"/>
			<rect x="10" y="10" fill="#44E2A3" width="660" height="295"/>
			<g>
				<path fill-rule="evenodd" clip-rule="evenodd" fill="#FF3452" d="M88.5,79.8c0.3,1.9-1.2-24.5,11.6-40.6
					c4.4-8,13.7-17.7,21.2-20.3c9.9-3.4,21.1-2.9,31.1-0.6c19.7,4.5,31.9,16.7,39.3,36.1c7.9,20.5,5.9,39.2-3.9,57.4
					c-9.4,17.3-19.9,31.3-38.6,39.2c-0.4,0.2-1.7,0.9-3.6,1.7c-1.1,0.4-2.3,1.3-4.4,1.3c-1.5,0-3.2-1-9.5-5.1
					C104,130.7,89.8,112.1,88.5,79.8z"/>
				<g>
					<g>
						<path fill="#FFFFFF" d="M122.8,29.6c-19,15.6-25.9,41.4-17.6,64.5c1.9,5.4,10.6,3.1,8.7-2.4c-7.3-20.4-1.5-42,15.3-55.7
							C133.7,32.3,127.3,26,122.8,29.6L122.8,29.6z"/>
					</g>
				</g>
				<g>
					<g>
						<path fill="#FFFFFF" d="M115.9,116.3c5.8,0,5.8-9,0-9C110.2,107.3,110.1,116.3,115.9,116.3L115.9,116.3z"/>
					</g>
				</g>
			</g>
			<g>
				<g>
					<path fill="#FFFFFF" d="M562.7,157.2c5.8,0,5.8-9,0-9C556.9,148.2,556.9,157.2,562.7,157.2L562.7,157.2z"/>
				</g>
			</g>
			<g>
				<path fill-rule="evenodd" clip-rule="evenodd" fill="#FF3452" d="M571.2,95.1c0.7,2.2-6.2-29.3,6.1-51.2
					c3.8-10.5,13.1-24,21.6-28.6c11.2-6,24.8-7.7,37.4-6.8C661,10,678,22.4,690.8,44.2c13.5,23.1,14.8,46.1,6.5,69.9
					c-7.9,22.7-17.8,41.6-38.9,54.9c-0.4,0.3-1.8,1.5-4,2.8c-1.2,0.7-2.5,2-5,2.4c-1.8,0.3-4.1-0.6-12.5-4.3
					C599.9,153.3,579.1,133.8,571.2,95.1z"/>
				<g>
					<g>
						<path fill="#FFFFFF" d="M599.5,33.8c-20.1,22.6-23.5,54.7-8.7,81.1c2.8,5.1,10.6,0.5,7.8-4.5c-12.7-22.7-10.1-50.7,7.3-70.2
							C609.7,35.9,603.4,29.5,599.5,33.8L599.5,33.8z"/>
					</g>
				</g>
			</g>
			<path fill="none" stroke="#FFFFFF" stroke-width="9" stroke-miterlimit="10" d="M-18.2,46c0,0,291.8,104.3,608.4-45"/>
			<path fill-rule="evenodd" clip-rule="evenodd" fill="#5049EA" d="M487.7,35.1c-1.2-1.2-0.3-2.5,1-2.8c13.5-4.2,27.5-8.2,41-12.5
				c17.1-5.5,31.1-15.6,48-22c2-1.4,3.2-2.2,5.9-1.6c2.1,0.4,2,2.8,1.8,4.5c-1.9,17.5-10.3,105.7-10.7,108.5c0,0.1-0.1,0.2-0.1,0.4
				c-1.1,4.6,0,16.2-2,15.2c-2.1-1-10-9.4-14.7-14.4C550.8,102.9,489,36.4,487.7,35.1z"/>
			<path fill-rule="evenodd" clip-rule="evenodd" fill="#5049EA" d="M73.4,64.6c1.2-1.3,0.5-3.3-0.9-3.5c-13.8-3.3-28.7-5-41.9-8.9
				C13.1,47.8-3,40.4-20.4,35.8c-2.8-0.7-3.2-1.1-5.9-1.6c-3.5-0.6,0,4.2,0.3,5.9c3,17.3,15.2,104.3,15.7,107.1
				c0,0.1,0.1,0.2,0.1,0.4c1.4,4.6,1,16.2,3,15c2-1.1,9.4-10,13.8-15.3C13.2,139.4,72.1,66,73.4,64.6z"/>
			<rect x="579" y="0" fill-rule="evenodd" clip-rule="evenodd" fill="#5049EA" width="27.4" height="10"/>
			<rect x="33.5" y="305" fill-rule="evenodd" clip-rule="evenodd" fill="#5049EA" width="26" height="10"/>
			<g>
				<g>
					<g>
						<path fill="#5049EA" d="M500.9,113.4c-1.4-5.3-5.4-7.8-9.7-10.6c-1.9-1.3-1.2-2.4,0.3-4.1c2.5-2.8,5.7-4.9,7.2-8.5
							c1.3-3.1,0.8-6-0.8-8.8c-1.5-2.7-6.2-4.6-7.1-7.2c-0.8-2.3,1.6-6.4,1.8-8.8c0.3-3.5-0.8-6.5-3.4-8.9
							c-4.3-3.8-10.7,2.5-6.4,6.4c1.9,1.7,0.1,4.8-0.5,6.9c-0.7,2.8-0.9,6.4,0.6,9c1.8,3,5.1,4.5,7.2,7.2c1.3,1.7-4.7,6.1-5.8,7.4
							c-3.3,3.6-4.7,9.6-1.6,13.7c2.5,3.3,8.4,4.7,9.5,8.8C493.7,121.4,502.4,119,500.9,113.4L500.9,113.4z"/>
					</g>
				</g>
				<g>
					<g>
						<path fill="#5049EA" d="M52.6,26.8c0.6,1.4-5,4.5-6.2,5.6c-2.7,2.5-4,6.7-2.9,10.3c1.1,3.4,4.3,5.4,7.2,7.1
							c1.3,0.7,2.6,1.4,3.6,2.4c0.4,0.3-0.1-0.2-0.1-0.3c-0.4,0.9-1.6,1.5-2.3,2c-4,2.9-7.2,5.5-7.8,10.6c-0.5,4.2,4.4,7.1,7.3,8.9
							c1.4,0.8,2.8,1.1,1.8,2.4c-1,1.2-2.6,1.8-3.8,2.7c-3.7,2.5-5.1,5.8-4.4,10.1c1,5.7,9.6,3.3,8.7-2.4c0.1,0.6-0.4,0.5,0.3,0
							c0.7-0.5,1.4-0.9,2.1-1.3c1.5-0.9,3-2,4.1-3.4c2.6-3.1,3.4-7.7,1.3-11.3c-1-1.7-2.9-2.9-4.5-4c-0.9-0.6-1.8-1.1-2.8-1.7
							c-0.2-0.2-0.5-0.3-0.7-0.5c-0.9-0.8-0.9-0.8,0.2,0c3.3-3.8,7.9-4.8,9.5-10.2c1-3.4-0.8-6.8-3.4-8.9c-1.7-1.4-6.9-3.2-7.6-5.2
							c-0.3-0.9,6.2-4.9,7-5.7c3.5-3.2,3.1-7.7,1.4-11.7C58,17,50.2,21.5,52.6,26.8L52.6,26.8z"/>
					</g>
				</g>
				<g>
					<g>
						<path fill="#5049EA" d="M98.8,171.4c-0.5-3-2.9-4.9-5.3-6.6c-2.1-1.5-5.3-1.9-3-4.1c1.7-1.7,4.1-2.4,5.8-4.3
							c2.1-2.3,2.3-5,1.8-8c-1-6-6.6-7.8-10.6-11.3c-1.7-1.5,3.1-5.2,4-6.1c3-2.8,5.3-6.1,5.1-10.3c-0.3-5.8-9.3-5.8-9,0
							c0.2,3.1-5,6.1-6.8,8.5c-1.9,2.6-3.1,6-2.5,9.2c1.1,6.2,7.4,6.6,10.5,11c0.7,1,0.4,1.3,0.5,1.2c-0.8,0.9-2.1,1.4-3,2
							c-2.8,1.8-4.7,4.1-5.6,7.3c-0.9,3.2,0.1,6.1,2.2,8.4c1.5,1.7,6.9,3.6,7.2,5.4C91,179.6,99.7,177.1,98.8,171.4L98.8,171.4z"/>
					</g>
				</g>
				<g>
					<g>
						<path fill="#5049EA" d="M241.6,204.3c0.1,3.1-3.7,4-5.8,5.8c-2.8,2.4-3.5,5.4-2.9,9c0.6,3.6,3.3,6.2,6.1,8.3
							c1.5,1.1,5.2,2.2,4.6,4.4c-0.5,1.9-2.8,3.4-4.2,4.7c-1.8,1.7-3.4,3.6-4.4,5.8c-1.8,4.4,0,8.3,3.1,11.6
							c1.5,1.6,3.3,2.9,4.8,4.4c0.7,0.7-0.9,4.7-1.2,5.5c-1.3,4.6-0.9,9,2.8,12.2c4.3,3.8,10.7-2.5,6.4-6.4c-2.1-1.9,0.7-7.7,1-10.3
							c0.5-4.4-2.4-7.4-5.5-10.1c-1.4-1.2-4-2.7-2.5-4.6c1.3-1.7,3.1-3.1,4.6-4.6c2.8-2.8,4.7-7,4-11c-0.5-2.9-2.5-5.1-4.9-6.8
							c-1.8-1.3-5.1-2.5-6-4.8c-0.4-1-0.7-0.4,0.7-1.3c1.3-0.8,2.5-1.6,3.7-2.5c3-2.4,4.4-5.6,4.3-9.4
							C250.5,198.5,241.5,198.5,241.6,204.3L241.6,204.3z"/>
					</g>
				</g>
				<g>
					<g>
						<path fill="#5049EA" d="M361,221.6c0.6,1.4-5,4.5-6.2,5.6c-2.7,2.5-4,6.7-2.9,10.3c1.1,3.4,4.3,5.4,7.2,7.1
							c1.3,0.7,2.6,1.4,3.6,2.4c0.4,0.3-0.1-0.2-0.1-0.3c-0.4,0.9-1.6,1.5-2.3,2c-4,2.9-7.2,5.5-7.8,10.6c-0.5,4.2,4.4,7.1,7.3,8.9
							c1.4,0.8,2.8,1.1,1.8,2.4c-1,1.2-2.6,1.8-3.8,2.7c-3.7,2.5-5.1,5.8-4.4,10.1c1,5.7,9.6,3.3,8.7-2.4c0.1,0.6-0.4,0.5,0.3,0
							c0.7-0.5,1.4-0.9,2.1-1.3c1.5-0.9,3-2,4.1-3.4c2.6-3.1,3.4-7.7,1.3-11.3c-1-1.7-2.9-2.9-4.5-4c-0.9-0.6-1.8-1.1-2.8-1.7
							c-0.2-0.2-0.5-0.3-0.7-0.5c-0.9-0.8-0.9-0.8,0.2,0c3.3-3.8,7.9-4.8,9.5-10.2c1-3.4-0.8-6.8-3.4-8.9c-1.7-1.4-6.9-3.2-7.6-5.2
							c-0.3-0.9,6.2-4.9,7-5.7c3.5-3.2,3.1-7.7,1.4-11.7C366.4,211.7,358.7,216.3,361,221.6L361,221.6z"/>
					</g>
				</g>
				<g>
					<g>
						<path fill="#5049EA" d="M385.7,1.6c-5.5,2.3-14.9,6.5-11.2,14.1c1.1,2.4,3.3,4,5.4,5.5c1.5,1,3,1.9,4.5,2.9
							c1,0.6,1.9,1.2,2.7,2c2.3,1.9,0.5,1.8,2-0.2c-1.7,2.1-5.3,3.3-7.5,4.8c-3.1,2.1-6.2,4.8-7.2,8.6c-2.1,7.4,7.1,9.7,10.1,14.5
							c3,4.9,10.8,0.4,7.8-4.5c-1.3-2.1-2.9-3.6-4.7-5.1c-1-0.8-2.1-1.6-3.1-2.4c-1.1-0.9-0.8-1.4-1.2-0.6
							c2.6-5.1,10.7-5.2,13.4-10.3c3.2-6.1-2.3-10.6-6.7-13.9c-2.2-1.6-4.7-2.7-6.8-4.5c-1.6-1.4-0.7,0.8-0.5,0.6
							c1.3-1.3,3.8-2.2,5.4-2.9C393.4,8.1,391.1-0.6,385.7,1.6L385.7,1.6z"/>
					</g>
				</g>
				<g>
					<g>
						<path fill="#5049EA" d="M407.2,155c1.4,5.3,5.4,7.8,9.7,10.6c1.9,1.3,1.2,2.4-0.3,4.1c-2.5,2.8-5.7,4.9-7.2,8.5
							c-1.3,3.1-0.8,6,0.8,8.8c1.5,2.7,6.2,4.6,7.1,7.2c0.8,2.3-1.6,6.4-1.8,8.8c-0.3,3.5,0.8,6.5,3.4,8.9c4.3,3.8,10.7-2.5,6.4-6.4
							c-1.9-1.7-0.1-4.8,0.5-6.9c0.7-2.8,0.9-6.4-0.6-9c-1.8-3-5.1-4.5-7.2-7.2c-1.3-1.7,4.7-6.1,5.8-7.4c3.3-3.6,4.7-9.6,1.6-13.7
							c-2.5-3.3-8.4-4.7-9.5-8.8C414.5,147,405.8,149.4,407.2,155L407.2,155z"/>
					</g>
				</g>
				<g>
					<g>
						<path fill="#5049EA" d="M491.8,230.9c-4.2,4.2-13.2,8.1-9.6,15.7c1.3,2.8,4.1,4.4,6.6,5.9c3.1,1.9,2.2,2.3-0.7,4.2
							c-5.6,3.5-7.6,8.5-4.3,14.6c1.3,2.4,3.8,4.2,6.1,5.6c2.3,1.5,4.1,1.7,2.6,4.5c-2.6,5.2,5.2,9.7,7.8,4.5
							c2.9-5.7,2.4-11.2-3.1-15c-1.9-1.3-4.3-2.3-5.7-4.2c-0.7-1-0.4-1.3-0.5-1.2c0.8-0.9,2.1-1.4,3-2c4.8-3.1,8.5-10.1,4-15.1
							c-2-2.3-4.9-3.4-7.3-5.3c-0.9-0.8-0.9-0.8,0.2,0c0.8-0.9,1.9-1.6,2.9-2.3c1.5-1.1,3-2.2,4.3-3.5
							C502.2,233.2,495.8,226.8,491.8,230.9L491.8,230.9z"/>
					</g>
				</g>
				<g>
					<g>
						<path fill="#5049EA" d="M72,269c-1-0.7-1.9-1.5-2.8-2.3c-1.5-1.4-1.7,1.7-0.5,0.6c1.3-1.2,3.4-2,5-3c3.4-2,7.9-5.1,9-9.2
							c1-3.5-0.3-6.5-2.8-9c-1.8-1.8-7-4-7.3-6.8c-0.1-0.8,5.6-4.2,6.4-5c2.7-2.5,3.6-6.1,3.1-9.6c-0.4-3.1-3.6-5.3-5.9-6.9
							c-1.4-0.9-2.9-1.7-4.2-2.6c-1.3-0.9-0.9-0.2-0.2-1.3c3-5-4.8-9.5-7.8-4.5c-5.1,8.3,2.1,12.6,8.3,16.6c2.5,1.6-1.4,3.4-3,4.5
							c-3.3,2.3-6.1,5.4-5.6,9.7c0.5,4.5,3.6,7.5,7,10.1c0.8,0.6,3.2,2,3.5,2.7c-0.4-0.9-1.3,0.8-1.9,1.4c-1.2,1.1-2.6,1.9-4,2.8
							c-3.3,2-7.3,3.8-8.3,7.9c-1.3,5.2,4.1,9.1,7.6,11.8C72.1,280.3,76.6,272.4,72,269L72,269z"/>
					</g>
				</g>
				<g>
					<g>
						<path fill="#5049EA" d="M301.7,136.2c0.1,2.6-2.3,3.3-4.2,4.6c-2.2,1.5-4,3.4-4.5,6.1c-1.3,6.2,3.7,10.8,8.4,13.8
							c2.2,1.4,3.2,1.5,1.9,4.1c-1.6,3.1-5.6,5.3-7.5,8.4c-4.8,7.8,4,13,8.2,18c3.7,4.5,10.1-1.9,6.4-6.4c-1.1-1.3-7.1-5.4-6.8-7.2
							c0.5-2.6,5.3-5.3,6.8-7.4c3.5-4.7,3.6-10.8-0.9-14.8c-1.7-1.6-3.9-2.7-5.8-4c-0.7-0.5-1.4-1.2-1.7-2c-0.5-1.2-0.6-0.4,0-0.9
							c4.7-3.5,8.8-5.8,8.7-12.4C310.6,130.4,301.6,130.4,301.7,136.2L301.7,136.2z"/>
					</g>
				</g>
				<g>
					<g>
						<path fill="#5049EA" d="M248.7,31.6c-7.2,3-17,9.3-8.8,17.3c3.4,3.3,7.9,5,11.3,8.2c1.5,1.4,1.7-1.7,0.5-0.6
							c-0.6,0.5-1.5,0.9-2.1,1.3c-2,1.2-4,2.4-5.9,3.8c-3.5,2.6-7.1,6.2-6.2,10.9c0.7,3.8,4,6,6.9,8.2c1.1,0.8,3.3,2.2,3.4,3.8
							c0,0.4-2.2,1.8-2.7,2.1c-3.2,2.2-6.1,4.8-6.9,8.8c-1.1,5.7,7.6,8.1,8.7,2.4c0.6-2.9,4.3-4.4,6.5-6.2c2.6-2.1,4.1-5.9,3.2-9.2
							c-1.1-3.9-3.7-6.5-6.8-8.9c-1.2-0.9-2.4-1.8-3.5-2.8c0.5,0.5-0.9,1.6,0.8-0.3c0.9-1,2.1-1.8,3.1-2.5
							c5.3-3.6,14.4-7.5,8.8-15.4c-2.7-3.8-6.9-6-10.7-8.4c-1-0.6-2.1-1.3-2.8-2.3c1,1.5-1,2.2,1,0.8c1.4-1,3.1-1.7,4.6-2.3
							C256.4,38.1,254,29.4,248.7,31.6L248.7,31.6z"/>
					</g>
				</g>
				<g>
					<g>
						<path fill="#5049EA" d="M132.2,264.1c-0.2,6.1,5.2,8.8,9.7,11.6c2.3,1.4,1.4,1.2-1,2.9c-3.3,2.3-6,4.5-7.5,8.4
							c-1.1,2.9,0.6,6.1,2.6,8.1c1.3,1.2,6.9,4,6.4,5c-0.9,2-4.6,3.3-6.2,4.8c-2.5,2.2-2.8,5.4-2.3,8.5c1,5.7,9.6,3.3,8.7-2.4
							c0.1,0.6,0,0.2,0.9-0.4c1.3-0.8,2.5-1.6,3.7-2.5c2.3-1.9,3.8-4.3,4.2-7.3c0.4-3.2-0.6-5.7-3-7.9c-1.3-1.2-2.9-2.1-4.4-3
							c-0.6-0.3-1.1-0.7-1.6-1.1c-1.2-0.9-0.1,0.2,1-0.8c2.6-2.4,5.7-3.6,7.6-6.8c1.7-2.8,1.5-5.8,0.2-8.7c-1-2.2-3.5-3.7-5.5-4.9
							c-1-0.6-4.6-2-4.6-3.4C141.3,258.3,132.3,258.4,132.2,264.1L132.2,264.1z"/>
					</g>
				</g>
				<g>
					<g>
						<path fill="#5049EA" d="M658.1,279.4c-1.4-5.3-5.4-7.8-9.7-10.6c-1.9-1.3-1.2-2.4,0.3-4.1c2.5-2.8,5.7-4.9,7.2-8.5
							c1.3-3.1,0.8-6-0.8-8.8c-1.5-2.7-6.2-4.6-7.1-7.2c-0.8-2.3,1.6-6.4,1.8-8.8c0.3-3.5-0.8-6.5-3.4-8.9
							c-4.3-3.8-10.7,2.5-6.4,6.4c1.9,1.7,0.1,4.8-0.5,6.9c-0.7,2.8-0.9,6.4,0.6,9c1.8,3,5.1,4.5,7.2,7.2c1.3,1.7-4.7,6.1-5.8,7.4
							c-3.3,3.6-4.7,9.6-1.6,13.7c2.5,3.3,8.4,4.7,9.5,8.8C650.9,287.4,659.6,285,658.1,279.4L658.1,279.4z"/>
					</g>
				</g>
			</g>
			<g>
				<g>
					<g>
						<path fill="#FFFFFF" d="M508.5,202.6c-10.3,15.9,4.2,34.2,10.5,48.6c4.3,9.9,3.3,19.6-0.4,29.6c-4,11.2-13.1,21.7-11.5,34.2
							c0.5,3.8,6.5,3.8,6,0c-1.5-11.9,8.1-23,11.8-33.9c2.9-8.5,4.5-18.2,1.7-26.9c-2.7-8.2-7.4-15.7-11.1-23.5
							c-3.7-7.9-7.1-17.1-1.9-25.1C515.8,202.4,510.6,199.3,508.5,202.6L508.5,202.6z"/>
					</g>
				</g>
				<path fill-rule="evenodd" clip-rule="evenodd" fill="#FFDDE3" d="M453.8,152c0.4,1.7-3.2-21.6,6.8-37c3.2-7.4,10.6-16.9,17-19.8
					c8.4-3.9,18.4-4.4,27.5-3.3c17.8,2.3,29.7,12,37.9,28.5c8.7,17.4,8.6,34.2,1.5,51.1c-6.8,16.1-14.9,29.4-30.8,38.1
					c-0.3,0.2-1.4,1-3,1.8c-0.9,0.5-1.9,1.4-3.8,1.5c-1.3,0.1-3-0.6-8.9-3.7C472,195.6,457.8,180.5,453.8,152z"/>
				<g>
					<g>
						<path fill="#FFFFFF" d="M479.1,101.9c-14.2,16.1-16.6,38.6-6.2,57.4c1.9,3.4,7.1,0.4,5.2-3c-9-16.3-7.2-36,5.2-50.1
							C485.9,103.2,481.7,99,479.1,101.9L479.1,101.9z"/>
					</g>
				</g>
				<g>
					<g>
						<path fill="#FFFFFF" d="M484,173.6c3.9,0,3.9-6,0-6C480.2,167.6,480.2,173.6,484,173.6L484,173.6z"/>
					</g>
				</g>
			</g>
			<g>
				<path fill-rule="evenodd" clip-rule="evenodd" fill="#FFED5E" d="M514,219.1c0.3,2.6,0.4-33.1,18.8-53.8
					c6.6-10.4,19.9-22.7,30.2-25.6c13.5-3.8,28.6-2.3,42,1.6c26.2,7.7,41.6,25,50.1,51.7c9,28.1,4.9,53.3-9.8,76.9
					c-14,22.6-29.2,40.6-55,49.8c-0.5,0.2-2.3,1.1-5,2c-1.5,0.5-3.2,1.6-6,1.4c-2-0.1-4.3-1.6-12.4-7.6
					C530.9,288.8,513.1,262.7,514,219.1z"/>
				<g>
					<g>
						<path fill="#FFFFFF" d="M561.3,164.9c-23.2,18.9-31.5,50.5-21.4,78.5c2.3,6.3,12.4,3.6,10.1-2.8c-9-24.9-1.9-51.6,18.7-68.3
							C574,168.1,566.5,160.7,561.3,164.9L561.3,164.9z"/>
					</g>
				</g>
				<g>
					<g>
						<path fill="#FFFFFF" d="M552.6,272.4c7.7,0,7.7-12,0-12C544.9,260.4,544.9,272.4,552.6,272.4L552.6,272.4z"/>
					</g>
				</g>
			</g>
			<path fill-rule="evenodd" clip-rule="evenodd" fill="#FFED5E" d="M341.7,71c-1.1-1.3-0.5-2.5,1.3-2.8c13.9-2.6,27.7-5.5,41.6-8.2
				c17.7-3.5,35.3-7.1,52.9-10.7c5-1.1,8.1-0.7,7.2,3.4c-4,17.2-23.8,100.7-24.4,103.5c0,0.1-0.1,0.2-0.1,0.4
				c-1.7,4.5-1.9,16.1-3.8,14.8c-1.9-1.2-8.8-10.5-12.9-16.1C397.3,147.1,342.9,72.5,341.7,71z"/>
			<g>
				<g>
					<g>
						<path fill="#FFFFFF" d="M30.6,268.2c-5.4,8.2-4.2,16,1.4,23.6c2.6,3.5,5.6,6.8,7.6,10.7c3.3,6.5,1.6,12.8-2.7,18.4
							c-2.3,3,1.9,7.3,4.2,4.2c7.2-9.3,8.3-19.3,1.6-29.1c-5.6-8.2-13.6-14.6-6.9-24.8C37.9,268,32.7,265,30.6,268.2L30.6,268.2z"/>
					</g>
				</g>
				<g>
					<path fill-rule="evenodd" clip-rule="evenodd" fill="#FF3452" d="M100.2,212.9c-0.7,1.7,6.9-22.7-1.3-40.8
						c-2.2-8.5-8.7-19.8-15.1-24c-8.4-5.5-19-7.7-29-7.9c-19.5-0.4-33.8,8.1-45.3,24.5C-2.7,182-5.3,200-0.4,219.3
						c4.7,18.4,11.2,34,26.9,45.9c0.3,0.2,1.3,1.3,3,2.5c0.9,0.7,1.8,1.8,3.8,2.3c1.4,0.3,3.3-0.2,10.1-2.5
						C73.7,256.8,91.4,242.8,100.2,212.9z"/>
				</g>
				<g>
					<g>
						<path fill="#FFFFFF" d="M32.5,155.2c-19.3,13.7-27.6,37.4-21.1,60.2c1.1,3.7,6.8,2.1,5.8-1.6c-5.7-20.1,1.3-41.3,18.4-53.4
							C38.6,158.2,35.6,153,32.5,155.2L32.5,155.2z"/>
					</g>
				</g>
				<g>
					<g>
						<path fill="#FFFFFF" d="M18.5,233.2c5.8,0,5.8-9,0-9C12.7,224.2,12.7,233.2,18.5,233.2L18.5,233.2z"/>
					</g>
				</g>
			</g>
			<path fill-rule="evenodd" clip-rule="evenodd" fill="#FFDDE3" d="M270.5,76.2c0.8-1.5-0.2-2.4-2-2.3c-14.1,0.2-28.3,0.5-42.4,0.6
				c-18,0.1-39.1-0.3-57.1-0.4c-4.7,0-5,2.4-3.9,4.9c7.3,16,43.7,94.2,44.9,96.8c0.1,0.1,0.1,0.2,0.2,0.3c2.5,4.1,5,15.4,6.7,13.8
				c1.6-1.6,6.6-12.1,9.5-18.3C230.7,162.4,269.6,77.9,270.5,76.2z"/>
			<g>
				<g>
					<g>
						<path fill="#FFFFFF" d="M183.6,288.2c-5.4,8.2-4.2,16,1.4,23.6c2.6,3.5,5.6,6.8,7.6,10.7c3.3,6.5,1.6,12.8-2.7,18.4
							c-2.3,3,1.9,7.3,4.2,4.2c7.2-9.3,8.3-19.3,1.6-29.1c-5.6-8.2-13.6-14.6-6.9-24.8C190.9,288,185.7,285,183.6,288.2L183.6,288.2
							z"/>
					</g>
				</g>
				<g>
					<path fill-rule="evenodd" clip-rule="evenodd" fill="#FFED5E" d="M113.4,203c0.4,2.5-1.6-32.5,15.4-53.9
						c5.8-10.6,18.2-23.5,28.1-26.9c13.1-4.5,27.9-3.9,41.3-0.8c26.1,6,42.3,22.2,52.1,47.8c10.4,27.1,7.9,52-5.1,76.1
						c-12.4,23-26.3,41.5-51.1,52.1c-0.5,0.2-2.2,1.3-4.8,2.3c-1.4,0.6-3,1.7-5.8,1.7c-1.9,0-4.3-1.3-12.6-6.8
						C134,270.4,115.1,245.8,113.4,203z"/>
					<g>
						<g>
							<path fill="#FFFFFF" d="M161.3,137.9c-23.2,18.9-31.5,50.5-21.4,78.5c2.3,6.3,12.4,3.6,10.1-2.8c-9-24.9-1.9-51.6,18.7-68.3
								C174,141.1,166.5,133.7,161.3,137.9L161.3,137.9z"/>
						</g>
					</g>
					<g>
						<g>
							<path fill="#FFFFFF" d="M149.6,243.4c7.7,0,7.7-12,0-12C141.9,231.4,141.9,243.4,149.6,243.4L149.6,243.4z"/>
						</g>
					</g>
				</g>
			</g>
		</g>
	</g>
</g>
</svg>
