<?xml version="1.0" encoding="utf-8"?>
<!-- Generator: Adobe Illustrator 19.0.1, SVG Export Plug-In . SVG Version: 6.00 Build 0)  -->
<svg version="1.1" xmlns="http://www.w3.org/2000/svg" xmlns:xlink="http://www.w3.org/1999/xlink" x="0px" y="0px" width="680px"
	 height="315px" viewBox="0 0 680 315" enable-background="new 0 0 680 315" xml:space="preserve">
<g id="Frame">
</g>
<g id="Art">
	<g>
		<defs>
			<rect id="SVGID_7_" x="0" y="-388.2" width="680" height="315"/>
		</defs>
		<clipPath id="SVGID_2_">
			<use xlink:href="#SVGID_7_"  overflow="visible"/>
		</clipPath>
		<g clip-path="url(#SVGID_2_)">
			<path fill="#44E2A3" d="M547.2,41.2c45.4-34.5,23.9-56.8,23.9-56.8S446.9-177,438.4-188.1c-8.4-11.1-22.7-14.8-37.5-21.6
				c-14.7-6.8-103.1-103.1-112-116.8c-0.2-0.3,0.6-6.1,0.4-6.3c-1-1.3-1.9-3.6-3.4-4.1c-14.7-5.2-48.7,19.5-47.2,35.7
				c0.2,2,1.8,3.1,3,4.8c0.2,0.2,6,1.1,6.2,1.3c10.8,12.3,80,123.2,82.6,139.2c2.7,16,2.4,30.8,10.8,41.9
				c8.4,11.1,130.8,174,130.8,174s15.7,26.6,61.1-7.9L547.2,41.2z"/>
			<path fill="#44E2A3" d="M140.9,42.7c-45.4-34.5-23.9-56.8-23.9-56.8s124.3-161.4,132.7-172.5c8.4-11.1,22.7-14.8,37.5-21.6
				c14.7-6.8,103.1-103.1,112-116.8c0.2-0.3-0.6-6.1-0.4-6.3c1-1.3,1.9-3.6,3.4-4.1c14.7-5.2,48.7,19.5,47.2,35.7
				c-0.2,2-1.8,3.1-3,4.8c-0.2,0.2-6,1.1-6.2,1.3c-10.8,12.3-80,123.2-82.6,139.2c-2.7,16-2.4,30.8-10.8,41.9
				c-8.4,11.1-130.8,174-130.8,174s-15.7,26.6-61.1-7.9L140.9,42.7z"/>
			<path fill="#5049EA" d="M436.2-321.9c4.7,2.2,17.2,13.5,16.3,23.2c-0.2,2-1.8,3.1-3,4.8c-0.2,0.2-6,1.1-6.2,1.3
				c-10.8,12.3-80,123.2-82.6,139.2c-2.7,16-2.4,30.8-10.8,41.9c-8.4,11.1-130.8,174-130.8,174s-15.7,26.6-61.1-7.9l-16.2-15.9
				c90-109.5,167.2-124.2,162.8-150C294.8-168.1,395.4-230.7,436.2-321.9z"/>
		</g>
	</g>
	<g>
		<defs>
			<rect id="SVGID_9_" x="0" y="0" width="680" height="315"/>
		</defs>
		<clipPath id="SVGID_4_">
			<use xlink:href="#SVGID_9_"  overflow="visible"/>
		</clipPath>
		<g clip-path="url(#SVGID_4_)">
			<rect fill-rule="evenodd" clip-rule="evenodd" fill="#44E2A3" width="680" height="315"/>
			<g>
				<polygon fill-rule="evenodd" clip-rule="evenodd" fill="#FFED5E" points="382.5,273.4 342.6,282.7 303.9,294.1 264.6,303.5 
					225.8,314.7 186.9,325.3 176.7,286.2 165.5,247.4 156.3,207.9 144.3,169.3 135.1,129.9 123.9,91 113.5,52 152.5,42.1 
					191.1,30.4 230.4,21.2 269.3,10.2 308.4,-0.9 317.9,38.8 329.8,77.5 339.7,116.7 349.3,156 359.7,195.1 372.3,233.6 				"/>
			</g>
			<g>
				<g>
					<polygon fill-rule="evenodd" clip-rule="evenodd" fill="#FFFFFF" points="369.7,266.2 328.3,275.8 288.1,287.6 247.4,297.4 
						207.2,309 166.9,319.9 156.8,281.3 145.6,242.8 136.6,203.7 124.6,165.5 115.6,126.4 104.4,87.9 94.2,49.4 134.6,39.1 
						174.7,27 215.4,17.3 255.7,6 296.3,-5.5 305.6,33.8 317.5,72.1 327.2,110.9 336.7,149.9 347,188.6 359.6,226.7 					"/>
				</g>
				<g>
					<polygon fill-rule="evenodd" clip-rule="evenodd" fill="#FFDDE3" points="334.8,200.7 292.9,213.4 249.8,222.9 207.7,236.3 
						165.2,246.3 152.3,202 140.8,156.8 129.3,111.6 116.3,66.7 158.7,54.4 201.8,44.6 244.2,32.3 286.3,21.8 298.7,66 310.3,111.2 
						322.5,156.2 					"/>
				</g>
				<g>
					<path fill-rule="evenodd" clip-rule="evenodd" fill="#5049EA" d="M209.1,90.5c33.2,3.1,44.4,28.4,35.8,54.7
						c-8.5,26.3-12.6,42.8-47.4,41.2c-36.1-1.7-41-28.9-33.9-49.9C170.6,115.6,183.1,88.1,209.1,90.5z"/>
					<path fill-rule="evenodd" clip-rule="evenodd" fill="#44E2A3" d="M203.9,90.2c33.4-1,44.5,22.4,36,48.7
						c-8.5,26.3-11.2,44.4-46,42.3c-34.8-2.1-38.4-27.9-31.3-48.8C169.6,111.5,177.8,91,203.9,90.2z"/>
					<g>
						<g>
							<path fill="#FFFFFF" d="M198.5,131.9c-1.4-2.7-3.1-5.3-6.2-6.3c-1-0.3-2,0.2-2.5,1c-1.5,2.3-1.7,5,0.2,7.2
								c1.7,1.9,4.7,2.2,7,1.4c2.7-0.9,1.5-5.2-1.2-4.3c-1.1,0.4-1.9,0.3-2.6-0.2c0.1,0.1,0,0-0.1-0.1c-0.1-0.1-0.1-0.3-0.1-0.1
								c0-0.4,0.3-1,0.6-1.6c-0.8,0.3-1.7,0.7-2.5,1c1.8,0.5,2.7,2.7,3.5,4.2C196,136.7,199.8,134.4,198.5,131.9L198.5,131.9z"/>
						</g>
					</g>
					<g>
						<g>
							<path fill="#FFFFFF" d="M206,131.7c1.3-1.7,4.6-6.5,7.1-4.8c-0.3-1-0.5-2-0.8-3c-1.2,2.2-3.7,3.8-6.1,4.3
								c-2.8,0.5-1.6,4.8,1.2,4.3c3.4-0.6,7.1-3.2,8.7-6.3c0.6-1.1,0.2-2.3-0.8-3c-4.9-3.3-9.7,2-12.5,5.5
								C201.1,130.7,204.3,133.9,206,131.7L206,131.7z"/>
						</g>
					</g>
					<g>
						<g>
							<path fill="#FFFFFF" d="M206.9,142.5C207.3,142.6,206.4,142.3,206.9,142.5c0.3,0.1,0.5,0.3,0.7,0.5c0.3,0.2,0.8,0.7,1.2,1.1
								c0.2,0.2,0.2,0.2,0.4,0.5c0.1,0.2,0.1,0.3,0.1,0c0-0.2,0.5-0.8,0.1-0.4c0.1-0.1,0.2-0.1,0.3-0.2c-0.2,0.1-0.2,0.1,0.1,0
								c0.5,0-0.1-0.2,0.3,0c-0.1-0.1-0.2-0.1-0.3-0.2c0.2,0.1,0.2,0.1,0-0.1c-0.5-0.5-0.6-0.7-1-1.2c-0.6-0.9-1.1-1.8-1.5-2.7
								c-0.5-1.1-2.1-1.4-3-0.8c-1.1,0.7-1.3,1.9-0.8,3c1.3,3,4.4,8,8.3,5.8c4.9-2.8-0.3-8.6-3.7-9.7
								C205.3,137.4,204.2,141.6,206.9,142.5L206.9,142.5z"/>
						</g>
					</g>
					<g>
						<g>
							<path fill="#FFFFFF" d="M193.3,141c-1.3,0.6-2.5,1.9-3.5,2.9c-1.3,1.4-2.7,3.6-1.6,5.5c1.3,2.3,4.3,2,6,0.4
								c1.4-1.3,2.2-3.5,2.7-5.3c0.8-2.8-3.5-3.9-4.3-1.2c-0.3,1.1-0.6,1.9-1.1,2.8c-0.2,0.3-0.2,0.3-0.4,0.5c-0.3,0.3,0,0,0.3,0
								c0.2,0.1,0.2,0,0,0c0.2,0,0.3,0.1,0.4,0.3c0.3,0.3,0.4,0.6,0.4,1c-0.1,0.4-0.1,0.4,0,0.2c0.1-0.5-0.2,0.4,0-0.1
								c0.1-0.2,0.3-0.5,0.4-0.7c-0.2,0.3,0.3-0.3,0.4-0.4c0.2-0.2,0.4-0.4,0.6-0.7c0.4-0.4,0.8-0.8,1.3-1.1
								c-0.4,0.3,0.3-0.2,0.5-0.3c1.1-0.5,1.4-2.1,0.8-3C195.7,140.7,194.4,140.5,193.3,141L193.3,141z"/>
						</g>
					</g>
					<g>
						<g>
							<path fill="#FFFFFF" d="M186.1,100.5c-8.8,9.9-15.6,21.2-17.5,34.6c-0.5,3.4,4.6,4.8,5.1,1.4c1.8-12.4,7.9-22.9,16.1-32.2
								C192.2,101.7,188.4,97.9,186.1,100.5L186.1,100.5z"/>
						</g>
					</g>
					<g>
						<g>
							<path fill="#FFFFFF" d="M167.9,149.7c3.4,0,3.4-5.3,0-5.3C164.5,144.4,164.5,149.7,167.9,149.7L167.9,149.7z"/>
						</g>
					</g>
				</g>
				<g>
					<path fill-rule="evenodd" clip-rule="evenodd" fill="#5049EA" d="M241,88.6c-28.1,19.5-29.3,45.4-12.9,62
						c16.3,16.6,25.3,27.7,55,8.5c30.8-19.8,26.2-44.1,13.2-57.2C283.2,88.8,263,73.3,241,88.6z"/>
					<path fill-rule="evenodd" clip-rule="evenodd" fill="#44E2A3" d="M244.6,85.4c-29.7,16.3-31.5,40.7-15.1,57.3
						c16.3,16.6,24.6,29.7,54.2,10.2c29.6-19.5,24.3-41.9,11.3-55C281.8,84.8,267.8,72.6,244.6,85.4z"/>
					<g>
						<path fill="#FFFFFF" d="M267.3,115.4c0.2-1.8,0.4-3.7,1.9-5.2c-0.8,0.2-1.6,0.5-2.4,0.7c0.5,0.3,1.2,0.7,0.8,1.3
							c-0.4,0.7-1.2,1.2-1.9,1.4c-1.1,0.3-2,1.1-2.1,2.3c-0.1,1,0.8,2,1.9,1.7c2.4-0.6,4.8-2.2,5.8-4.7c1.1-2.7-0.4-4.7-2.4-5.8
							c-0.8-0.4-1.7,0.1-2.4,0.7c-2.4,2.3-2.8,5.3-3.1,8.1C263,118.6,267,118,267.3,115.4L267.3,115.4z"/>
					</g>
					<g>
						<path fill="#FFFFFF" d="M258.5,115.6c-3.8-1.4-9.8-3.3-13.1,2.1c-0.5,0.8-0.4,1.9,0.2,2.4c2.7,1.7,6.7,2,10.1,0.6
							c2.5-1,1.7-4.7-0.9-3.7c-2,0.8-4.8,0.8-6.4-0.2c0.1,0.8,0.1,1.6,0.2,2.4c1.5-2.5,6-0.3,7.6,0.2
							C258.5,120.2,260.7,116.4,258.5,115.6L258.5,115.6z"/>
					</g>
					<g>
						<path fill="#FFFFFF" d="M256.9,126c-2.8,2.8-4.6,9.6,0.3,9.3c4-0.2,4.9-6.3,5-9c0.1-2.6-3.9-1.9-4,0.6c0,0.3,0,0.7-0.1,1
							c-0.1,0.5-0.1,1.1-0.2,1.3c-0.1,0.6-0.3,1.2-0.5,1.8c-0.1,0.3,0,0.1-0.2,0.5c-0.1,0.2-0.1,0.2,0,0c-0.2,0.2-0.2,0.2,0,0
							c0.1-0.1,0.3-0.2,0.5-0.2c-0.2,0-0.2,0,0,0c0.1,0.1,0.1,0-0.1,0c0.1,0,0.2,0.1,0.2,0.2c0.2,0.3,0.1,0.4,0.1-0.1
							c0,0.2,0.1-0.5,0.2-0.6c0.2-0.6,0.4-1,0.7-1.6c0.3-0.6,0.2-0.5,0.7-0.9C261.6,126.3,258.9,124,256.9,126L256.9,126z"/>
					</g>
					<g>
						<path fill="#FFFFFF" d="M270.4,124.5C270.8,124.4,269.9,124.5,270.4,124.5c0.1,0,0.3,0,0.5,0c0.4,0,0.9,0.1,1.3,0.2
							c0.6,0.1,0.5,0.1,1.1,0.3c0.2,0.1,0.4,0.2,0.6,0.3c0.2,0.1,0.2,0.1,0,0c0.1,0.1,0.2,0.2,0.3,0.2c-0.2-0.2-0.2-0.2-0.2-0.7
							c0-0.2,0.4-0.9,0.2-0.7c0.2-0.2,0.4-0.2,0.6-0.3c-0.4,0-0.3,0-0.7-0.2c-0.8-0.4-1.6-1.2-2.2-1.9c-0.6-0.7-2.1-0.4-2.8,0.5
							c-0.9,1-0.8,2.1-0.1,2.8c1.1,1.3,2.4,2.3,4.2,2.8c2,0.5,4.5-1.4,4.8-3.7c0.2-1.8-1.7-2.7-3-3.2c-1.3-0.4-2.8-0.8-4.3-0.6
							C268,120.8,267.8,124.8,270.4,124.5L270.4,124.5z"/>
					</g>
					<g>
						<g>
							<path fill="#FFFFFF" d="M239.3,94c-10.1,7.7-18,20.6-13.5,33.4c1.1,3.2,6.3,1.8,5.1-1.4c-2.5-7-0.6-13.4,3.5-19.3
								c1.4-2.1,3.2-4,5-5.8c0.6-0.6,1.2-1.1,1.9-1.7c0.2-0.2,1.7-1.3,0.7-0.6C244.7,96.5,242,91.9,239.3,94L239.3,94z"/>
						</g>
					</g>
				</g>
			</g>
			<g>
				<g>
					
						<path fill="none" stroke="#5049EA" stroke-width="12" stroke-linecap="round" stroke-linejoin="round" stroke-miterlimit="10" d="
						M84.1,35.2c1.4,18.3-1,18.5,0.4,36.9c1.4,18.3,3,18.2,4.5,36.5"/>
				</g>
				<g>
					
						<path fill="none" stroke="#5049EA" stroke-width="12" stroke-linecap="round" stroke-linejoin="round" stroke-miterlimit="10" d="
						M51.8,38c1.8,18.3,3.9,18.1,5.7,36.4c1.8,18.3-0.1,18.5,1.7,36.8"/>
				</g>
				<g>
					
						<path fill="none" stroke="#5049EA" stroke-width="12" stroke-linecap="round" stroke-linejoin="round" stroke-miterlimit="10" d="
						M109.6,85.8c-18.3,1.4-18.5-1-36.9,0.4c-18.3,1.4-18.2,3-36.5,4.5"/>
				</g>
				<g>
					
						<path fill="none" stroke="#5049EA" stroke-width="12" stroke-linecap="round" stroke-linejoin="round" stroke-miterlimit="10" d="
						M106.7,53.4c-18.3,1.8-18.1,3.9-36.4,5.7c-18.3,1.8-18.5-0.1-36.8,1.7"/>
				</g>
			</g>
			<g>
				<g>
					<path fill="none" stroke="#5049EA" stroke-width="14" stroke-linecap="round" stroke-linejoin="round" d="M67.7,150.2
						c0.4,6,0.8,11.8,1.4,17.4"/>
					
						<path fill="none" stroke="#5049EA" stroke-width="14" stroke-linecap="round" stroke-linejoin="round" stroke-dasharray="35.7661,35.7661" d="
						M74.7,203c12.2,50.8,41.4,75.5,113.3,75.5c116.2,0,108.6-196.8,193.6-196.8c110,0,59.1,185,150.6,185
						c104.2,0,106.7-156.1,102.3-227.8"/>
					<path fill="none" stroke="#5049EA" stroke-width="14" stroke-linecap="round" stroke-linejoin="round" d="M633.1,21.1
						c-1-10.9-1.9-17.4-1.9-17.4"/>
				</g>
			</g>
			<g>
				<g>
					<path fill="#FFFFFF" d="M217.4,136.7c2.9,0,2.9-4.5,0-4.5S214.5,136.7,217.4,136.7L217.4,136.7z"/>
				</g>
			</g>
			<g>
				<polygon fill-rule="evenodd" clip-rule="evenodd" fill="#5049EA" points="530.4,330 488.6,318.4 446.8,309.5 405.5,298.3 
					363.7,289.1 322.2,279.2 332.2,239 341.1,198.4 352.2,158.3 360.4,117.5 371.5,77.5 380.4,36.8 390.2,-3.4 431.5,7.1 
					473.3,15.9 514.6,27.1 556.3,36.6 598.3,46.1 587.4,86.5 579.1,127.3 568.8,167.6 558.1,207.7 548.3,248.1 540.8,289.1 				"/>
			</g>
			<g>
				<g>
					<path fill="#FF3452" d="M670,10v295H10V10H670 M680,0H0v315h680V0L680,0z"/>
				</g>
			</g>
			<g>
				<g>
					<path fill="#5049EA" d="M633.1,28.1c-3.6,0-6.6-2.7-7-6.4c-1-10.6-1.8-28-1.8-28.1c-0.5-3.8,2.2-7.4,6-7.9
						c3.8-0.5,7.4,2.2,7.9,6c0,0.3,0.9,17.8,1.9,28.7c0.3,3.9-2.5,7.3-6.3,7.6C633.5,28.1,633.3,28.1,633.1,28.1z"/>
				</g>
			</g>
			<g>
				<g>
					<polygon fill-rule="evenodd" clip-rule="evenodd" fill="#FFFFFF" points="546.8,322.6 504.3,310.9 461.8,301.8 419.8,290.4 
						377.3,281.1 335.1,271 345.1,230.7 354,190.1 365.2,150 373.3,109.1 384.4,69 393.4,28.3 403.2,-11.9 445.1,-1.3 487.7,7.6 
						529.7,19.1 572,28.7 614.8,38.4 603.8,78.9 595.6,119.7 585.2,160 574.5,200.2 564.7,240.6 557.2,281.6 					"/>
				</g>
				<g>
					<polygon fill-rule="evenodd" clip-rule="evenodd" fill="#FFED5E" points="547.5,245.6 503,236.4 458.9,223.7 413.9,215 
						370.1,203 380.4,156.2 392.3,109.2 404.3,62.3 414.7,14.9 459.6,24.7 503.7,37.2 548.5,47 592.2,58.3 581.4,104.8 569.6,151.8 
						558.4,198.9 					"/>
				</g>
				<path fill-rule="evenodd" clip-rule="evenodd" fill="#FF3452" d="M382.6,146.9c-1.4,0.9,25.9-11.8,65.5-15.9
					c33.3-3.4,56-54.1,91.5-17.4c13.1,13.5,2.8,66.9-56.5,88.7c-26.9,9.9-44.9,17.9-44.9,17.9l-68.7-16.9L382.6,146.9z"/>
				<g>
					<g>
						<path fill="#FF3452" d="M537.9,106.1c-0.1-0.2-0.4-2-0.3-0.5c-0.1-1-0.4,0.8,0.1-0.7c-0.2,0.5-0.5,0.8-0.2,0.5
							c0.5-0.4,0.4-0.4-0.3,0.2c0.6-0.3,0.4-0.3-0.5,0.1c0.8-0.3-1.5-0.1-1.8-0.2c-1.5-0.5-2.6-1.5-3.2-3.2
							c-0.1-1.1-0.1-1.3-0.1-0.6c0-1.8-0.4,0.5-0.3,0.3c-0.5,1.1-1.2,2.2-1.9,3.2c-2.5,3.8,0.8,9.2,5.2,9.1c2.1-0.1,4.5-0.5,6.1-0.7
							c1.2-0.2,2.5-0.2,3.7-0.2c0.1,0,2.1,0.3,1,0.1c-1-0.2-2-1.8-2-2.8c0.1-1.2,0.6-2.1,1.8-2.8c1.1-0.8-0.5,0,0.6-0.2
							c-0.5,0-2.8-0.2-2-0.1c-1.9-0.3-3.7-0.8-5.4-1.5c-3.1-1.2-6.6,1.3-7.4,4.2c-0.9,3.4,1.1,6.3,4.2,7.4c7,2.7,19.7,4,20.3-6.6
							c0.4-6.2-4.2-9.1-9.6-9.8c-1.9-0.3-4,0-5.9,0.3c-2.6,0.3-3.8,0.6-5.4,0.6c1.7,3,3.5,6.1,5.2,9.1c2.3-3.4,4.5-7.6,3.6-11.9
							c-0.8-3.4-4.2-6.2-7.8-5.7c-7.4,0.9-12,8.6-9.4,15.6c1.1,3.1,4.1,5.1,7.4,4.2C536.7,112.7,539,109.2,537.9,106.1L537.9,106.1z
							"/>
					</g>
				</g>
				<g>
					<g>
						<path fill="#FFFFFF" d="M511.1,109.5c-11.2-0.9-21.2,5.9-29.8,12.3c-8.5,6.3-18,16.1-29,17.5c-10.1,1.2-20.3,1.4-30.3,2.9
							c-15.7,2.3-30.9,7.2-45.2,14c-3.5,1.7-0.4,6.9,3,5.2c13.9-6.6,28.6-11,43.8-13.4c9.8-1.5,19.6-1.6,29.4-2.8
							c10.4-1.3,19-8.9,27.1-15c8.8-6.7,19.3-15.6,31-14.6C515,115.9,515,109.8,511.1,109.5L511.1,109.5z"/>
					</g>
				</g>
				<g>
					<g>
						<path fill="#FFFFFF" d="M520.2,116.1c3.9,0,3.9-6,0-6S516.3,116.1,520.2,116.1L520.2,116.1z"/>
					</g>
				</g>
			</g>
		</g>
	</g>
</g>
</svg>
