<?xml version="1.0" encoding="UTF-8" standalone="no"?>
<svg width="222px" height="137px" viewBox="0 0 222 137" version="1.1" xmlns="http://www.w3.org/2000/svg" xmlns:xlink="http://www.w3.org/1999/xlink" xmlns:sketch="http://www.bohemiancoding.com/sketch/ns">
    <!-- Generator: Sketch 3.3.2 (12043) - http://www.bohemiancoding.com/sketch -->
    <title>selected-mpl</title>
    <desc>Created with Sketch.</desc>
    <defs></defs>
    <g id="Page-1" stroke="none" stroke-width="1" fill="none" fill-rule="evenodd" sketch:type="MSPage">
        <path d="M184.584702,13.8644067 C164.678702,3.91040672 148.319702,3.88440672 134.423702,6.65840672 C78.8007017,-13.6625933 38.2467017,16.9774067 17.7757017,39.0394067 C9.62370168,47.8264067 3.70670168,59.5544067 1.11570168,72.0614067 C-1.71929832,85.7464067 0.907701679,99.1784067 8.32170168,108.915407 C16.5537017,119.729407 29.4487017,124.751407 39.7637017,127.918407 C58.8637017,133.784407 79.7617017,136.698407 103.028702,136.698407 C114.098702,136.698407 125.705702,136.038407 137.909702,134.724407 C156.011702,132.775407 176.847702,129.241407 194.129702,117.816407 C209.823702,107.443407 224.131702,87.1584067 220.714702,65.2264067 C217.665702,45.6524067 201.119702,22.1324067 184.584702,13.8644067 L184.584702,13.8644067 Z M189.166702,110.309407 C173.492702,120.670407 153.972702,123.942407 136.945702,125.776407 C100.332702,129.719407 69.4047017,127.607407 42.4067017,119.315407 C33.3787017,116.542407 22.1607017,112.236407 15.4817017,103.464407 C9.73170168,95.9124067 7.65570168,84.8564067 9.92870168,73.8874067 C12.1907017,62.9634067 17.3207017,52.7624067 24.3737017,45.1604067 C41.5807017,26.6164067 66.3447017,8.88640672 98.1267017,8.88640672 C104.478702,8.88640672 111.109702,9.59340672 118.018702,11.1464067 C117.318702,11.3714067 116.625702,11.5964067 115.938702,11.8184067 C112.056702,13.0784067 108.389702,14.2674067 104.781702,15.1994067 C102.374702,15.8204067 100.926702,18.2744067 101.548702,20.6804067 C102.169702,23.0874067 104.623702,24.5354067 107.029702,23.9134067 C110.905702,22.9134067 114.698702,21.6834067 118.715702,20.3804067 C123.610702,18.7924067 128.549702,17.1904067 133.700702,15.9894067 C139.922702,18.4274067 146.344702,21.5494067 152.958702,25.4364067 C155.102702,26.6964067 157.857702,25.9794067 159.118702,23.8364067 C160.377702,21.6934067 159.661702,18.9354067 157.518702,17.6764067 C155.313702,16.3804067 153.123702,15.1634067 150.957702,14.0264067 C159.748702,14.2084067 169.425702,16.3484067 180.558702,21.9144067 C194.596702,28.9334067 209.206702,49.8204067 211.821702,66.6114067 C214.623702,84.6004067 202.462702,101.521407 189.166702,110.309407 L189.166702,110.309407 Z" id="selected-mpl" fill="#FFEE4D" sketch:type="MSShapeGroup"></path>
    </g>
</svg>