<?xml version="1.0" encoding="UTF-8" standalone="no"?>
<svg width="165px" height="146px" viewBox="0 0 165 146" version="1.1" xmlns="http://www.w3.org/2000/svg" xmlns:xlink="http://www.w3.org/1999/xlink" xmlns:sketch="http://www.bohemiancoding.com/sketch/ns">
    <!-- Generator: Sketch 3.3.2 (12043) - http://www.bohemiancoding.com/sketch -->
    <title>selected-gd</title>
    <desc>Created with Sketch.</desc>
    <defs></defs>
    <g id="Page-1" stroke="none" stroke-width="1" fill="none" fill-rule="evenodd" sketch:type="MSPage">
        <path d="M155.734577,38.4490367 C156.752577,38.2050367 157.689577,37.6070367 158.345577,36.6880367 C159.789577,34.6660367 159.320577,31.8550367 157.297577,30.4120367 C150.910577,25.8520367 143.889577,21.8940367 136.445577,18.5820367 C127.254577,11.6900367 116.976577,6.03703674 107.711577,0.940036743 L107.018577,0.559036743 C104.841577,-0.640963257 102.104577,0.155036743 100.907577,2.33303674 C99.709577,4.50903674 100.503577,7.24603674 102.680577,8.44403674 L102.792577,8.50603674 C86.603577,5.77103674 69.958577,5.79803674 54.522577,8.93603674 C40.161577,11.8560367 28.403577,17.2880367 19.575577,25.0850367 C8.39757701,34.9550367 1.52357701,49.4640367 0.219577012,65.9390367 C-1.02042299,81.5730367 3.03257701,97.5220367 11.336577,109.699037 C26.312577,131.663037 54.596577,145.053037 85.656577,145.052037 C86.616577,145.052037 87.583577,145.040037 88.548577,145.013037 C111.323577,144.406037 131.220577,136.861037 144.572577,123.767037 C162.482577,106.206037 169.325577,77.0240367 161.601577,51.1520367 C160.234577,46.5740367 158.227577,42.3550367 155.734577,38.4490367 L155.734577,38.4490367 Z M138.271577,117.341037 C126.547577,128.837037 108.803577,135.470037 88.308577,136.017037 C59.150577,136.775037 32.505577,124.768037 18.771577,104.628037 C3.35357701,82.0190367 6.44957701,48.6820367 25.532577,31.8310367 C33.163577,25.0920367 43.519577,20.3570367 56.315577,17.7560367 C63.802577,16.2340367 71.585577,15.4970367 79.459577,15.4970367 C97.364577,15.4970367 115.719577,19.3160367 131.962577,26.4210367 C141.712577,33.8630367 149.663577,42.6280367 152.977577,53.7260367 C159.773577,76.4880367 153.863577,102.053037 138.271577,117.341037 L138.271577,117.341037 Z" id="selected-gd" fill="#FFEE4D" sketch:type="MSShapeGroup"></path>
    </g>
</svg>