<?xml version="1.0" encoding="UTF-8" standalone="no"?>
<svg width="245px" height="133px" viewBox="0 0 245 133" version="1.1" xmlns="http://www.w3.org/2000/svg" xmlns:xlink="http://www.w3.org/1999/xlink" xmlns:sketch="http://www.bohemiancoding.com/sketch/ns">
    <!-- Generator: Sketch 3.3.2 (12043) - http://www.bohemiancoding.com/sketch -->
    <title>selected-tvm</title>
    <desc>Created with Sketch.</desc>
    <defs></defs>
    <g id="Page-1" stroke="none" stroke-width="1" fill="none" fill-rule="evenodd" sketch:type="MSPage">
        <path d="M242.544185,51.5197373 C239.365185,43.2987373 231.556185,31.5207373 200.557185,24.1747373 C168.146185,16.4947373 134.799185,12.1987373 101.443185,11.4037373 C98.918185,11.3227373 96.896185,13.3107373 96.836185,15.7957373 C96.777185,18.2797373 98.743185,20.3417373 101.228185,20.4017373 C133.958185,21.1807373 166.680185,25.3977373 198.483185,32.9327373 C211.349185,35.9817373 229.045185,41.5617373 234.150185,54.7647373 C237.056185,62.2847373 235.155185,70.4127373 233.049185,75.9087373 C227.258185,91.0137373 213.420185,104.225737 195.082185,112.157737 C176.575185,120.162737 155.771185,122.229737 139.712185,123.135737 C111.769185,124.713737 89.918185,122.819737 70.963185,117.174737 C47.309185,110.129737 28.229185,96.7997373 17.238185,79.6417373 C13.046185,73.0987373 6.52518502,60.1307373 9.94418502,46.8017373 C12.484185,36.9117373 20.485185,27.8367373 31.896185,21.9067373 C43.024185,16.1217373 56.112185,13.7627373 67.445185,12.2177373 C87.912185,9.42873729 108.761185,8.44773729 129.412185,9.29773729 C131.917185,9.42973729 133.991185,7.46973729 134.094185,4.98773729 C134.196185,2.50473729 132.267185,0.408737286 129.783185,0.305737286 C108.605185,-0.570262714 87.222185,0.438737286 66.231185,3.29973729 C54.130185,4.94973729 40.095185,7.50173729 27.745185,13.9207373 C14.067185,21.0297373 4.40018502,32.1987373 1.22818502,44.5657373 C-1.93481498,56.8897373 1.05918502,71.0717373 9.65918502,84.4967373 C21.814185,103.470737 42.673185,118.139737 68.395185,125.799737 C83.929185,130.426737 101.180185,132.670737 121.724185,132.670737 C127.607185,132.670737 133.760185,132.486737 140.220185,132.121737 C157.022185,131.172737 178.848185,128.985737 198.654185,120.416737 C219.201185,111.531737 234.801185,96.4827373 241.453185,79.1287373 C244.125185,72.1587373 246.484185,61.7107373 242.544185,51.5197373" id="selected-tvm" fill="#FFEE4D" sketch:type="MSShapeGroup"></path>
    </g>
</svg>