<?xml version="1.0" encoding="UTF-8" standalone="no"?>
<svg width="161px" height="146px" viewBox="0 0 161 146" version="1.1" xmlns="http://www.w3.org/2000/svg" xmlns:xlink="http://www.w3.org/1999/xlink" xmlns:sketch="http://www.bohemiancoding.com/sketch/ns">
    <!-- Generator: Sketch 3.3.2 (12043) - http://www.bohemiancoding.com/sketch -->
    <title>selected-id</title>
    <desc>Created with Sketch.</desc>
    <defs></defs>
    <g id="Page-1" stroke="none" stroke-width="1" fill="none" fill-rule="evenodd" sketch:type="MSPage">
        <path d="M129.190278,28.9971053 C112.501278,16.1701053 92.8992784,8.40110528 70.8572784,0.277105278 C68.5252784,-0.577894722 65.9392784,0.611105278 65.0782784,2.94310528 C64.2192784,5.27610528 65.4132784,7.86410528 67.7442784,8.72310528 C70.1412784,9.60510528 72.5092784,10.4841053 74.8432784,11.3651053 C43.9252784,12.5181053 15.2662784,31.0531053 4.48127839,57.1861053 C-7.21972161,85.5361053 4.78827839,120.742105 31.2492784,135.667105 C42.9472784,142.264105 57.3482784,145.521105 74.9952784,145.521105 C79.7042784,145.521105 84.6482784,145.289105 89.8282784,144.827105 C102.496278,143.697105 121.053278,141.020105 135.886278,130.856105 C151.208278,120.360105 160.692278,102.676105 160.638278,84.7061053 C160.576278,64.6181053 149.114278,44.3131053 129.190278,28.9971053 L129.190278,28.9971053 Z M130.799278,123.442105 C120.834278,130.269105 107.561278,134.229105 89.0282784,135.881105 C66.3052784,137.910105 48.8512784,135.300105 35.6702784,127.864105 C13.0342784,115.098105 2.77427839,84.9851053 12.8002784,60.6941053 C22.5672784,37.0271053 49.2672784,20.4561053 77.7272784,20.4561053 L77.7962784,20.4561053 C87.0462784,20.4561053 91.7192784,24.7321053 98.7822784,31.3071053 C100.260278,32.6831053 101.789278,34.0321053 103.458278,35.5011053 C105.323278,37.1451053 108.167278,36.9621053 109.809278,35.0961053 C111.451278,33.2301053 111.270278,30.3871053 109.403278,28.7451053 C107.829278,27.3591053 106.348278,25.9801053 104.914278,24.6461053 C104.659278,24.4091053 104.406278,24.1741053 104.152278,23.9371053 C111.121278,27.5131053 117.655278,31.4861053 123.706278,36.1351053 C141.144278,49.5411053 151.586278,67.7101053 151.638278,84.7381053 C151.684278,99.7711053 143.698278,114.604105 130.799278,123.442105 L130.799278,123.442105 Z" id="selected-id" fill="#FFEE4D" sketch:type="MSShapeGroup"></path>
    </g>
</svg>