<?xml version="1.0" encoding="UTF-8" standalone="no"?>
<svg width="162px" height="158px" viewBox="0 0 162 158" version="1.1" xmlns="http://www.w3.org/2000/svg" xmlns:xlink="http://www.w3.org/1999/xlink" xmlns:sketch="http://www.bohemiancoding.com/sketch/ns">
    <!-- Generator: Sketch 3.3.2 (12043) - http://www.bohemiancoding.com/sketch -->
    <title>selected-fk</title>
    <desc>Created with Sketch.</desc>
    <defs></defs>
    <g id="Page-1" stroke="none" stroke-width="1" fill="none" fill-rule="evenodd" sketch:type="MSPage">
        <path d="M85.0923647,0.0436807979 C82.6373647,-0.298319202 80.3533647,1.4046808 80.0033647,3.8646808 C79.6533647,6.3256808 81.3633647,8.6036808 83.8243647,8.9536808 C92.6933647,10.2156808 104.078365,13.0186808 115.182365,19.1226808 C89.6173647,13.5456808 62.1633647,18.3956808 39.5453647,32.9076808 C22.5063647,43.8396808 9.84236466,59.3246808 3.88536466,76.5086808 C-3.19963534,96.9476808 -0.442635345,119.882681 10.9113647,134.937681 C21.9373647,149.559681 40.4003647,157.080681 65.7863647,157.290681 C66.2313647,157.295681 66.6743647,157.296681 67.1163647,157.296681 C90.6663647,157.296681 110.590365,152.078681 126.349365,141.778681 C146.220365,128.792681 159.521365,106.697681 161.061365,84.1166808 C162.512365,62.8366808 153.935365,40.7666808 138.117365,25.0776808 C124.649365,11.7186808 106.313365,3.0616808 85.0923647,0.0436807979 L85.0923647,0.0436807979 Z M152.082365,83.5036808 C150.730365,103.328681 138.983365,122.770681 121.425365,134.245681 C106.881365,143.750681 88.1763647,148.521681 65.8603647,148.290681 C43.4203647,148.105681 27.3503647,141.788681 18.0963647,129.519681 C8.64636466,116.987681 6.35336466,96.8686808 12.3893647,79.4556808 C17.6873647,64.1706808 29.0573647,50.3296808 44.4053647,40.4816808 C59.4513647,30.8286808 76.8363647,25.8656808 94.1743647,25.8656808 C104.576365,25.8656808 114.963365,27.6526808 124.817365,31.2856808 C126.736365,31.9906808 128.825365,31.3096808 129.985365,29.7496808 C130.589365,30.3076808 131.186365,30.8796808 131.779365,31.4676808 C145.559365,45.1356808 153.339365,65.0746808 152.082365,83.5036808 L152.082365,83.5036808 Z" id="selected-fk" fill="#FFEE4D" sketch:type="MSShapeGroup"></path>
    </g>
</svg>