<?xml version="1.0" encoding="UTF-8" standalone="no"?>
<svg width="167px" height="156px" viewBox="0 0 167 156" version="1.1" xmlns="http://www.w3.org/2000/svg" xmlns:xlink="http://www.w3.org/1999/xlink" xmlns:sketch="http://www.bohemiancoding.com/sketch/ns">
    <!-- Generator: Sketch 3.3.2 (12043) - http://www.bohemiancoding.com/sketch -->
    <title>selected</title>
    <desc>Created with Sketch.</desc>
    <defs></defs>
    <g id="Page-1" stroke="none" stroke-width="1" fill="none" fill-rule="evenodd" sketch:type="MSPage">
        <path d="M136.268268,27.5638048 C129.692268,23.1638048 122.485268,20.2508048 114.981268,18.5258048 C116.313268,16.7678048 116.527268,14.3198048 114.347268,12.4308048 C72.0382685,-24.2311952 14.8772685,27.8818048 2.71626849,69.3848048 C-4.79873151,95.0328048 3.45926849,120.338805 25.2632685,135.918805 C40.1942685,146.586805 58.7632685,151.208805 76.6012685,154.019805 C92.6462685,156.547805 109.501268,156.178805 124.789268,150.235805 C149.461268,140.643805 164.721268,117.688805 166.694268,91.6558048 C168.582268,66.7198048 157.137268,41.5258048 136.268268,27.5638048 L136.268268,27.5638048 Z M147.299268,119.994805 C130.332268,146.551805 96.9592685,148.180805 68.9982685,142.586805 C42.3892685,137.262805 12.0242685,122.971805 9.95026849,92.3288048 C8.31626849,68.1888048 22.9382685,44.8748048 40.2492685,29.2938048 C55.7902685,15.3068048 79.6602685,3.99880476 99.8072685,14.4058048 C101.199268,15.1238048 102.535268,15.9368048 103.820268,16.8238048 C94.3632685,16.0568048 84.7052685,16.8688048 75.4602685,18.7458048 C69.1432685,20.0288048 71.8232685,29.6668048 78.1182685,28.3888048 C105.016268,22.9278048 133.485268,29.5788048 148.230268,54.3338048 C160.069268,74.2118048 159.745268,100.514805 147.299268,119.994805 L147.299268,119.994805 Z" id="selected" fill="#FFEE4D" sketch:type="MSShapeGroup"></path>
    </g>
</svg>